Arimo-Bold.ufo
<glyph name="exclam" format="2">
  <advance width="682"/>
  <unicode hex="0021"/>
  <note>
exclam
</note>
  <outline>
    <contour>
      <point x="487" y="1409" type="line"/>
      <point x="193" y="1409" type="line"/>
      <point x="225" y="426" type="line"/>
      <point x="455" y="426" type="line"/>
    </contour>
    <contour>
      <point x="481" y="270" type="line"/>
      <point x="193" y="270" type="line"/>
      <point x="193" y="0" type="line"/>
      <point x="481" y="0" type="line"/>
    </contour>
  </outline>
</glyph>
<glyph name="quotedbl" format="2">
  <advance width="971"/>
  <unicode hex="0022"/>
  <note>
quotedbl
</note>
  <outline>
    <contour>
      <point x="836" y="1409" type="line"/>
      <point x="561" y="1409" type="line"/>
      <point x="588" y="898" type="line"/>
      <point x="807" y="898" type="line"/>
    </contour>
    <contour>
      <point x="408" y="1409" type="line"/>
      <point x="135" y="1409" type="line"/>
      <point x="162" y="898" type="line"/>
      <point x="381" y="898" type="line"/>
    </contour>
  </outline>
</glyph>
<glyph name="numbersign" format="2">
  <advance width="1139"/>
  <unicode hex="0023"/>
  <note>
numbersign
</note>
  <outline>
    <contour>
      <point x="344" y="381" type="line"/>
      <point x="651" y="381" type="line"/>
      <point x="571" y="0" type="line"/>
      <point x="727" y="0" type="line"/>
      <point x="809" y="381" type="line"/>
      <point x="1055" y="381" type="line"/>
      <point x="1055" y="530" type="line"/>
      <point x="840" y="530" type="line"/>
      <point x="909" y="862" type="line"/>
      <point x="1106" y="862" type="line"/>
      <point x="1106" y="1010" type="line"/>
      <point x="942" y="1010" type="line"/>
      <point x="1026" y="1395" type="line"/>
      <point x="870" y="1395" type="line"/>
      <point x="786" y="1010" type="line"/>
      <point x="479" y="1010" type="line"/>
      <point x="561" y="1395" type="line"/>
      <point x="408" y="1395" type="line"/>
      <point x="324" y="1010" type="line"/>
      <point x="86" y="1010" type="line"/>
      <point x="86" y="862" type="line"/>
      <point x="293" y="862" type="line"/>
      <point x="223" y="530" type="line"/>
      <point x="35" y="530" type="line"/>
      <point x="35" y="381" type="line"/>
      <point x="190" y="381" type="line"/>
      <point x="111" y="0" type="line"/>
      <point x="264" y="0" type="line"/>
    </contour>
    <contour>
      <point x="377" y="530" type="line"/>
      <point x="449" y="862" type="line"/>
      <point x="756" y="862" type="line"/>
      <point x="686" y="530" type="line"/>
    </contour>
  </outline>
</glyph>
<glyph name="dollar" format="2">
  <advance width="1139"/>
  <unicode hex="0024"/>
  <note>
dollar
</note>
  <outline>
    <contour>
      <point x="520" y="20" type="curve"/>
      <point x="520" y="-152" type="line"/>
      <point x="629" y="-152" type="line"/>
      <point x="629" y="23" type="line"/>
      <point x="946" y="35"/>
      <point x="1110" y="171"/>
      <point x="1110" y="412" type="curve" smooth="yes"/>
      <point x="1110" y="600"/>
      <point x="1013" y="724"/>
      <point x="817" y="788" type="curve" smooth="yes"/>
      <point x="718" y="820"/>
      <point x="659" y="833"/>
      <point x="629" y="838" type="curve"/>
      <point x="629" y="1190" type="line"/>
      <point x="736" y="1175"/>
      <point x="791" y="1113"/>
      <point x="811" y="997" type="curve"/>
      <point x="1075" y="1036" type="line"/>
      <point x="1009" y="1300"/>
      <point x="875" y="1374"/>
      <point x="629" y="1386" type="curve"/>
      <point x="629" y="1520" type="line"/>
      <point x="520" y="1520" type="line"/>
      <point x="520" y="1386" type="line"/>
      <point x="228" y="1375"/>
      <point x="72" y="1251"/>
      <point x="72" y="1030" type="curve" smooth="yes"/>
      <point x="72" y="881"/>
      <point x="135" y="780"/>
      <point x="245" y="713" type="curve" smooth="yes"/>
      <point x="310" y="673"/>
      <point x="444" y="635"/>
      <point x="520" y="618" type="curve"/>
      <point x="520" y="227" type="line"/>
      <point x="380" y="240"/>
      <point x="308" y="304"/>
      <point x="283" y="455" type="curve"/>
      <point x="27" y="408" type="line"/>
      <point x="78" y="151"/>
      <point x="233" y="31"/>
    </contour>
    <contour>
      <point x="334" y="1034" type="curve" smooth="yes"/>
      <point x="334" y="1131"/>
      <point x="396" y="1185"/>
      <point x="520" y="1194" type="curve"/>
      <point x="520" y="862" type="line"/>
      <point x="422" y="895"/>
      <point x="375" y="913"/>
      <point x="350" y="961" type="curve" smooth="yes"/>
      <point x="339" y="980"/>
      <point x="334" y="1005"/>
    </contour>
    <contour>
      <point x="850" y="408" type="curve"/>
      <point x="850" y="297"/>
      <point x="776" y="237"/>
      <point x="629" y="227" type="curve"/>
      <point x="629" y="594" type="line"/>
      <point x="706" y="572"/>
      <point x="757" y="554"/>
      <point x="780" y="541" type="curve" smooth="yes"/>
      <point x="826" y="514"/>
      <point x="850" y="475"/>
    </contour>
  </outline>
</glyph>
<glyph name="percent" format="2">
  <advance width="1821"/>
  <unicode hex="0025"/>
  <note>
percent
</note>
  <outline>
    <contour>
      <point x="408" y="1425" type="curve"/>
      <point x="161" y="1425"/>
      <point x="51" y="1280"/>
      <point x="51" y="977" type="curve" smooth="yes"/>
      <point x="51" y="684"/>
      <point x="171" y="528"/>
      <point x="403" y="528" type="curve" smooth="yes"/>
      <point x="638" y="528"/>
      <point x="760" y="686"/>
      <point x="760" y="977" type="curve" smooth="yes"/>
      <point x="760" y="1273"/>
      <point x="647" y="1425"/>
    </contour>
    <contour>
      <point x="1475" y="1409" type="line"/>
      <point x="1266" y="1409" type="line"/>
      <point x="346" y="0" type="line"/>
      <point x="552" y="0" type="line"/>
    </contour>
    <contour>
      <point x="543" y="977" type="curve"/>
      <point x="543" y="768"/>
      <point x="505" y="684"/>
      <point x="406" y="684" type="curve" smooth="yes"/>
      <point x="306" y="684"/>
      <point x="266" y="767"/>
      <point x="266" y="977" type="curve" smooth="yes"/>
      <point x="266" y="1188"/>
      <point x="301" y="1270"/>
      <point x="408" y="1270" type="curve" smooth="yes"/>
      <point x="506" y="1270"/>
      <point x="543" y="1187"/>
    </contour>
    <contour>
      <point x="1767" y="432" type="curve"/>
      <point x="1767" y="728"/>
      <point x="1657" y="881"/>
      <point x="1417" y="881" type="curve" smooth="yes"/>
      <point x="1169" y="881"/>
      <point x="1059" y="731"/>
      <point x="1059" y="432" type="curve" smooth="yes"/>
      <point x="1059" y="139"/>
      <point x="1178" y="-16"/>
      <point x="1413" y="-16" type="curve" smooth="yes"/>
      <point x="1645" y="-16"/>
      <point x="1767" y="141"/>
    </contour>
    <contour>
      <point x="1552" y="432" type="curve"/>
      <point x="1552" y="225"/>
      <point x="1512" y="141"/>
      <point x="1415" y="141" type="curve" smooth="yes"/>
      <point x="1316" y="141"/>
      <point x="1276" y="217"/>
      <point x="1276" y="432" type="curve" smooth="yes"/>
      <point x="1276" y="640"/>
      <point x="1310" y="727"/>
      <point x="1417" y="727" type="curve" smooth="yes"/>
      <point x="1515" y="727"/>
      <point x="1552" y="645"/>
    </contour>
  </outline>
</glyph>
<glyph name="ampersand" format="2">
  <advance width="1479"/>
  <unicode hex="0026"/>
  <note>
ampersand
</note>
  <outline>
    <contour>
      <point x="90" y="385" type="curve" smooth="yes"/>
      <point x="90" y="129"/>
      <point x="267" y="-20"/>
      <point x="575" y="-20" type="curve" smooth="yes"/>
      <point x="714" y="-20"/>
      <point x="841" y="23"/>
      <point x="954" y="109" type="curve"/>
      <point x="1049" y="30"/>
      <point x="1169" y="-12"/>
      <point x="1284" y="-12" type="curve" smooth="yes"/>
      <point x="1335" y="-12"/>
      <point x="1378" y="-5"/>
      <point x="1415" y="10" type="curve"/>
      <point x="1415" y="213" type="line"/>
      <point x="1380" y="202"/>
      <point x="1341" y="197"/>
      <point x="1298" y="197" type="curve" smooth="yes"/>
      <point x="1237" y="197"/>
      <point x="1177" y="221"/>
      <point x="1120" y="270" type="curve"/>
      <point x="1203" y="395"/>
      <point x="1268" y="535"/>
      <point x="1313" y="690" type="curve"/>
      <point x="1104" y="760" type="line"/>
      <point x="1068" y="623"/>
      <point x="1015" y="502"/>
      <point x="946" y="397" type="curve"/>
      <point x="849" y="504"/>
      <point x="768" y="616"/>
      <point x="702" y="733" type="curve"/>
      <point x="816" y="786"/>
      <point x="897" y="831"/>
      <point x="945" y="866" type="curve" smooth="yes"/>
      <point x="1040" y="937"/>
      <point x="1094" y="1017"/>
      <point x="1094" y="1120" type="curve" smooth="yes"/>
      <point x="1094" y="1303"/>
      <point x="955" y="1417"/>
      <point x="731" y="1417" type="curve" smooth="yes"/>
      <point x="490" y="1417"/>
      <point x="354" y="1300"/>
      <point x="354" y="1092" type="curve" smooth="yes"/>
      <point x="354" y="1006"/>
      <point x="379" y="913"/>
      <point x="428" y="813" type="curve"/>
      <point x="193" y="704"/>
      <point x="90" y="565"/>
    </contour>
    <contour>
      <point x="870" y="1118" type="curve"/>
      <point x="870" y="1059"/>
      <point x="836" y="1014"/>
      <point x="776" y="973" type="curve" smooth="yes"/>
      <point x="745" y="952"/>
      <point x="695" y="927"/>
      <point x="625" y="897" type="curve"/>
      <point x="589" y="968"/>
      <point x="571" y="1032"/>
      <point x="571" y="1090" type="curve" smooth="yes"/>
      <point x="571" y="1185"/>
      <point x="626" y="1247"/>
      <point x="729" y="1247" type="curve" smooth="yes"/>
      <point x="816" y="1247"/>
      <point x="870" y="1194"/>
    </contour>
    <contour>
      <point x="788" y="246" type="curve"/>
      <point x="745" y="209"/>
      <point x="673" y="170"/>
      <point x="586" y="170" type="curve" smooth="yes"/>
      <point x="437" y="170"/>
      <point x="344" y="257"/>
      <point x="344" y="389" type="curve" smooth="yes"/>
      <point x="344" y="491"/>
      <point x="401" y="569"/>
      <point x="516" y="623" type="curve"/>
      <point x="587" y="495"/>
      <point x="677" y="369"/>
    </contour>
  </outline>
</glyph>
<glyph name="quotesingle" format="2">
  <advance width="487"/>
  <unicode hex="0027"/>
  <note>
quotesingle
</note>
  <outline>
    <contour>
      <point x="381" y="1409" type="line"/>
      <point x="109" y="1409" type="line"/>
      <point x="135" y="898" type="line"/>
      <point x="354" y="898" type="line"/>
    </contour>
  </outline>
</glyph>
<glyph name="parenleft" format="2">
  <advance width="682"/>
  <unicode hex="0028"/>
  <note>
parenleft
</note>
  <outline>
    <contour>
      <point x="399" y="-425" type="curve"/>
      <point x="680" y="-425" type="line"/>
      <point x="468" y="-114"/>
      <point x="379" y="166"/>
      <point x="379" y="530" type="curve" smooth="yes"/>
      <point x="379" y="895"/>
      <point x="469" y="1180"/>
      <point x="680" y="1484" type="curve"/>
      <point x="399" y="1484" type="line"/>
      <point x="190" y="1184"/>
      <point x="102" y="903"/>
      <point x="102" y="531" type="curve" smooth="yes"/>
      <point x="102" y="158"/>
      <point x="190" y="-124"/>
    </contour>
  </outline>
</glyph>
<glyph name="parenright" format="2">
  <advance width="682"/>
  <unicode hex="0029"/>
  <note>
parenright
</note>
  <outline>
    <contour>
      <point x="2" y="-425" type="curve"/>
      <point x="283" y="-425" type="line"/>
      <point x="494" y="-121"/>
      <point x="580" y="160"/>
      <point x="580" y="531" type="curve" smooth="yes"/>
      <point x="580" y="899"/>
      <point x="494" y="1181"/>
      <point x="283" y="1484" type="curve"/>
      <point x="2" y="1484" type="line"/>
      <point x="211" y="1183"/>
      <point x="303" y="897"/>
      <point x="303" y="530" type="curve" smooth="yes"/>
      <point x="303" y="165"/>
      <point x="215" y="-113"/>
    </contour>
  </outline>
</glyph>
<glyph name="asterisk" format="2">
  <advance width="797"/>
  <unicode hex="002A"/>
  <note>
asterisk
</note>
  <outline>
    <contour>
      <point x="731" y="768" type="line"/>
      <point x="545" y="981" type="line"/>
      <point x="795" y="1042" type="line"/>
      <point x="727" y="1239" type="line"/>
      <point x="492" y="1135" type="line"/>
      <point x="510" y="1409" type="line"/>
      <point x="295" y="1409" type="line"/>
      <point x="313" y="1135" type="line"/>
      <point x="74" y="1239" type="line"/>
      <point x="6" y="1042" type="line"/>
      <point x="256" y="981" type="line"/>
      <point x="66" y="770" type="line"/>
      <point x="252" y="647" type="line"/>
      <point x="401" y="899" type="line"/>
      <point x="547" y="647" type="line"/>
    </contour>
  </outline>
</glyph>
<glyph name="plus" format="2">
  <advance width="1196"/>
  <unicode hex="002B"/>
  <note>
plus
</note>
  <outline>
    <contour>
      <point x="711" y="569" type="line"/>
      <point x="1113" y="569" type="line"/>
      <point x="1113" y="793" type="line"/>
      <point x="711" y="793" type="line"/>
      <point x="711" y="1201" type="line"/>
      <point x="485" y="1201" type="line"/>
      <point x="485" y="793" type="line"/>
      <point x="86" y="793" type="line"/>
      <point x="86" y="569" type="line"/>
      <point x="485" y="569" type="line"/>
      <point x="485" y="161" type="line"/>
      <point x="711" y="161" type="line"/>
    </contour>
  </outline>
</glyph>
<glyph name="comma" format="2">
  <advance width="569"/>
  <unicode hex="002C"/>
  <note>
comma
</note>
  <outline>
    <contour>
      <point x="432" y="66" type="curve" smooth="yes"/>
      <point x="432" y="305" type="line"/>
      <point x="143" y="305" type="line"/>
      <point x="143" y="0" type="line"/>
      <point x="272" y="0" type="line"/>
      <point x="272" y="-101"/>
      <point x="218" y="-222"/>
      <point x="139" y="-317" type="curve"/>
      <point x="324" y="-317" type="line"/>
      <point x="400" y="-212"/>
      <point x="432" y="-94"/>
    </contour>
  </outline>
</glyph>
<glyph name="hyphen" format="2">
  <advance width="682"/>
  <unicode hex="002D"/>
  <unicode hex="00AD"/>
  <note>
hyphen
</note>
  <outline>
    <contour>
      <point x="600" y="653" type="line"/>
      <point x="80" y="653" type="line"/>
      <point x="80" y="409" type="line"/>
      <point x="600" y="409" type="line"/>
    </contour>
  </outline>
</glyph>
<glyph name="period" format="2">
  <advance width="569"/>
  <unicode hex="002E"/>
  <note>
period
</note>
  <outline>
    <contour>
      <point x="428" y="305" type="line"/>
      <point x="139" y="305" type="line"/>
      <point x="139" y="0" type="line"/>
      <point x="428" y="0" type="line"/>
    </contour>
  </outline>
</glyph>
<glyph name="slash" format="2">
  <advance width="569"/>
  <unicode hex="002F"/>
  <note>
slash
</note>
  <outline>
    <contour>
      <point x="549" y="1484" type="line"/>
      <point x="311" y="1484" type="line"/>
      <point x="20" y="-41" type="line"/>
      <point x="263" y="-41" type="line"/>
    </contour>
  </outline>
</glyph>
<glyph name="zero" format="2">
  <advance width="1139"/>
  <unicode hex="0030"/>
  <note>
zero
</note>
  <outline>
    <contour>
      <point x="1055" y="705" type="curve"/>
      <point x="1055" y="1189"/>
      <point x="906" y="1430"/>
      <point x="573" y="1430" type="curve" smooth="yes"/>
      <point x="225" y="1430"/>
      <point x="81" y="1199"/>
      <point x="81" y="705" type="curve" smooth="yes"/>
      <point x="81" y="222"/>
      <point x="242" y="-20"/>
      <point x="565" y="-20" type="curve" smooth="yes"/>
      <point x="892" y="-20"/>
      <point x="1055" y="229"/>
    </contour>
    <contour>
      <point x="773" y="705" type="curve"/>
      <point x="773" y="342"/>
      <point x="727" y="201"/>
      <point x="567" y="201" type="curve" smooth="yes"/>
      <point x="405" y="201"/>
      <point x="362" y="326"/>
      <point x="362" y="705" type="curve" smooth="yes"/>
      <point x="362" y="1083"/>
      <point x="400" y="1210"/>
      <point x="571" y="1210" type="curve" smooth="yes"/>
      <point x="731" y="1210"/>
      <point x="773" y="1085"/>
    </contour>
  </outline>
</glyph>
<glyph name="one" format="2">
  <advance width="1139"/>
  <unicode hex="0031"/>
  <note>
one
</note>
  <outline>
    <contour>
      <point x="1082" y="209" type="line"/>
      <point x="759" y="209" type="line"/>
      <point x="759" y="1409" type="line"/>
      <point x="493" y="1409" type="line"/>
      <point x="140" y="1180" type="line"/>
      <point x="140" y="959" type="line"/>
      <point x="478" y="1170" type="line"/>
      <point x="478" y="209" type="line"/>
      <point x="129" y="209" type="line"/>
      <point x="129" y="0" type="line"/>
      <point x="1082" y="0" type="line"/>
    </contour>
  </outline>
</glyph>
<glyph name="two" format="2">
  <advance width="1139"/>
  <unicode hex="0032"/>
  <note>
two
</note>
  <outline>
    <contour>
      <point x="1057" y="231" type="line"/>
      <point x="403" y="231" type="line"/>
      <point x="440" y="318"/>
      <point x="523" y="391"/>
      <point x="616" y="466" type="curve" smooth="yes"/>
      <point x="704" y="535"/>
      <point x="804" y="608"/>
      <point x="879" y="689" type="curve" smooth="yes"/>
      <point x="969" y="784"/>
      <point x="1035" y="892"/>
      <point x="1035" y="1034" type="curve" smooth="yes"/>
      <point x="1035" y="1285"/>
      <point x="867" y="1430"/>
      <point x="563" y="1430" type="curve" smooth="yes"/>
      <point x="282" y="1430"/>
      <point x="115" y="1289"/>
      <point x="83" y="1028" type="curve"/>
      <point x="366" y="1012" type="line"/>
      <point x="385" y="1141"/>
      <point x="445" y="1206"/>
      <point x="565" y="1206" type="curve" smooth="yes"/>
      <point x="688" y="1206"/>
      <point x="750" y="1145"/>
      <point x="750" y="1022" type="curve" smooth="yes"/>
      <point x="750" y="972"/>
      <point x="730" y="921"/>
      <point x="690" y="869" type="curve" smooth="yes"/>
      <point x="651" y="817"/>
      <point x="582" y="751"/>
      <point x="483" y="671" type="curve" smooth="yes"/>
      <point x="278" y="504"/>
      <point x="144" y="356"/>
      <point x="71" y="195" type="curve"/>
      <point x="71" y="0" type="line"/>
      <point x="1057" y="0" type="line"/>
    </contour>
  </outline>
</glyph>
<glyph name="three" format="2">
  <advance width="1139"/>
  <unicode hex="0033"/>
  <note>
three
</note>
  <outline>
    <contour>
      <point x="1065" y="391" type="curve"/>
      <point x="1065" y="572"/>
      <point x="944" y="696"/>
      <point x="728" y="721" type="curve"/>
      <point x="728" y="725" type="line"/>
      <point x="923" y="762"/>
      <point x="1029" y="879"/>
      <point x="1029" y="1055" type="curve" smooth="yes"/>
      <point x="1029" y="1290"/>
      <point x="854" y="1430"/>
      <point x="559" y="1430" type="curve" smooth="yes"/>
      <point x="282" y="1430"/>
      <point x="100" y="1285"/>
      <point x="71" y="1042" type="curve"/>
      <point x="352" y="1022" type="line"/>
      <point x="363" y="1139"/>
      <point x="438" y="1206"/>
      <point x="554" y="1206" type="curve" smooth="yes"/>
      <point x="678" y="1206"/>
      <point x="744" y="1136"/>
      <point x="744" y="1020" type="curve" smooth="yes"/>
      <point x="744" y="897"/>
      <point x="662" y="829"/>
      <point x="501" y="829" type="curve" smooth="yes"/>
      <point x="409" y="829" type="line"/>
      <point x="409" y="602" type="line"/>
      <point x="507" y="602" type="line" smooth="yes"/>
      <point x="686" y="602"/>
      <point x="777" y="533"/>
      <point x="777" y="408" type="curve" smooth="yes"/>
      <point x="777" y="271"/>
      <point x="699" y="205"/>
      <point x="564" y="205" type="curve" smooth="yes"/>
      <point x="428" y="205"/>
      <point x="351" y="273"/>
      <point x="333" y="408" type="curve"/>
      <point x="47" y="383" type="line"/>
      <point x="78" y="120"/>
      <point x="262" y="-23"/>
      <point x="565" y="-23" type="curve" smooth="yes"/>
      <point x="885" y="-23"/>
      <point x="1065" y="127"/>
    </contour>
  </outline>
</glyph>
<glyph name="four" format="2">
  <advance width="1139"/>
  <unicode hex="0034"/>
  <note>
four
</note>
  <outline>
    <contour>
      <point x="940" y="287" type="line"/>
      <point x="1128" y="287" type="line"/>
      <point x="1128" y="496" type="line"/>
      <point x="940" y="496" type="line"/>
      <point x="940" y="1409" type="line"/>
      <point x="626" y="1409" type="line"/>
      <point x="31" y="498" type="line"/>
      <point x="31" y="287" type="line"/>
      <point x="672" y="287" type="line"/>
      <point x="672" y="0" type="line"/>
      <point x="940" y="0" type="line"/>
    </contour>
    <contour>
      <point x="260" y="496" type="line"/>
      <point x="587" y="993" type="line" smooth="yes"/>
      <point x="632" y="1064"/>
      <point x="664" y="1118"/>
      <point x="681" y="1155" type="curve"/>
      <point x="678" y="1131"/>
      <point x="672" y="1029"/>
      <point x="672" y="957" type="curve"/>
      <point x="672" y="496" type="line"/>
    </contour>
  </outline>
</glyph>
<glyph name="five" format="2">
  <advance width="1139"/>
  <unicode hex="0035"/>
  <note>
five
</note>
  <outline>
    <contour>
      <point x="1082" y="469" type="curve"/>
      <point x="1082" y="756"/>
      <point x="908" y="934"/>
      <point x="640" y="934" type="curve" smooth="yes"/>
      <point x="538" y="934"/>
      <point x="453" y="904"/>
      <point x="385" y="844" type="curve"/>
      <point x="408" y="1200" type="line"/>
      <point x="1000" y="1200" type="line"/>
      <point x="1000" y="1409" type="line"/>
      <point x="153" y="1409" type="line"/>
      <point x="104" y="616" type="line"/>
      <point x="378" y="616" type="line"/>
      <point x="427" y="677"/>
      <point x="491" y="707"/>
      <point x="569" y="707" type="curve" smooth="yes"/>
      <point x="710" y="707"/>
      <point x="793" y="611"/>
      <point x="793" y="463" type="curve" smooth="yes"/>
      <point x="793" y="295"/>
      <point x="703" y="203"/>
      <point x="563" y="203" type="curve" smooth="yes"/>
      <point x="450" y="203"/>
      <point x="373" y="255"/>
      <point x="344" y="375" type="curve"/>
      <point x="63" y="352" type="line"/>
      <point x="103" y="111"/>
      <point x="277" y="-20"/>
      <point x="560" y="-20" type="curve" smooth="yes"/>
      <point x="884" y="-20"/>
      <point x="1082" y="170"/>
    </contour>
  </outline>
</glyph>
<glyph name="six" format="2">
  <advance width="1139"/>
  <unicode hex="0036"/>
  <note>
six
</note>
  <outline>
    <contour>
      <point x="1065" y="461" type="curve"/>
      <point x="1065" y="736"/>
      <point x="908" y="907"/>
      <point x="656" y="907" type="curve" smooth="yes"/>
      <point x="521" y="907"/>
      <point x="410" y="852"/>
      <point x="350" y="752" type="curve"/>
      <point x="350" y="1059"/>
      <point x="441" y="1208"/>
      <point x="592" y="1208" type="curve" smooth="yes"/>
      <point x="680" y="1208"/>
      <point x="737" y="1162"/>
      <point x="762" y="1069" type="curve"/>
      <point x="1027" y="1106" type="line"/>
      <point x="970" y="1327"/>
      <point x="837" y="1430"/>
      <point x="598" y="1430" type="curve" smooth="yes"/>
      <point x="262" y="1430"/>
      <point x="75" y="1175"/>
      <point x="75" y="672" type="curve" smooth="yes"/>
      <point x="75" y="215"/>
      <point x="259" y="-20"/>
      <point x="591" y="-20" type="curve" smooth="yes"/>
      <point x="887" y="-20"/>
      <point x="1065" y="161"/>
    </contour>
    <contour>
      <point x="783" y="453" type="curve"/>
      <point x="783" y="294"/>
      <point x="709" y="199"/>
      <point x="582" y="199" type="curve" smooth="yes"/>
      <point x="455" y="199"/>
      <point x="370" y="319"/>
      <point x="370" y="483" type="curve" smooth="yes"/>
      <point x="370" y="614"/>
      <point x="451" y="700"/>
      <point x="575" y="700" type="curve" smooth="yes"/>
      <point x="704" y="700"/>
      <point x="783" y="613"/>
    </contour>
  </outline>
</glyph>
<glyph name="seven" format="2">
  <advance width="1139"/>
  <unicode hex="0037"/>
  <note>
seven
</note>
  <outline>
    <contour>
      <point x="1049" y="1186" type="curve"/>
      <point x="1049" y="1409" type="line"/>
      <point x="88" y="1409" type="line"/>
      <point x="88" y="1178" type="line"/>
      <point x="788" y="1178" type="line"/>
      <point x="608" y="917"/>
      <point x="506" y="749"/>
      <point x="439" y="610" type="curve" smooth="yes"/>
      <point x="338" y="397"/>
      <point x="293" y="214"/>
      <point x="293" y="0" type="curve"/>
      <point x="586" y="0" type="line"/>
      <point x="586" y="224"/>
      <point x="638" y="422"/>
      <point x="722" y="612" type="curve" smooth="yes"/>
      <point x="806" y="802"/>
      <point x="922" y="986"/>
    </contour>
  </outline>
</glyph>
<glyph name="eight" format="2">
  <advance width="1139"/>
  <unicode hex="0038"/>
  <note>
eight
</note>
  <outline>
    <contour>
      <point x="1076" y="397" type="curve"/>
      <point x="1076" y="585"/>
      <point x="966" y="710"/>
      <point x="785" y="739" type="curve"/>
      <point x="785" y="743" type="line"/>
      <point x="941" y="774"/>
      <point x="1041" y="902"/>
      <point x="1041" y="1055" type="curve" smooth="yes"/>
      <point x="1041" y="1295"/>
      <point x="872" y="1430"/>
      <point x="567" y="1430" type="curve" smooth="yes"/>
      <point x="268" y="1430"/>
      <point x="98" y="1288"/>
      <point x="98" y="1057" type="curve" smooth="yes"/>
      <point x="98" y="904"/>
      <point x="200" y="774"/>
      <point x="352" y="741" type="curve"/>
      <point x="352" y="737" type="line"/>
      <point x="177" y="708"/>
      <point x="65" y="575"/>
      <point x="65" y="395" type="curve" smooth="yes"/>
      <point x="65" y="132"/>
      <point x="250" y="-20"/>
      <point x="571" y="-20" type="curve" smooth="yes"/>
      <point x="895" y="-20"/>
      <point x="1076" y="133"/>
    </contour>
    <contour>
      <point x="752" y="1040" type="curve"/>
      <point x="752" y="896"/>
      <point x="692" y="838"/>
      <point x="569" y="838" type="curve" smooth="yes"/>
      <point x="446" y="838"/>
      <point x="385" y="905"/>
      <point x="385" y="1040" type="curve" smooth="yes"/>
      <point x="385" y="1169"/>
      <point x="446" y="1233"/>
      <point x="567" y="1233" type="curve" smooth="yes"/>
      <point x="691" y="1233"/>
      <point x="752" y="1173"/>
    </contour>
    <contour>
      <point x="785" y="420" type="curve"/>
      <point x="785" y="249"/>
      <point x="718" y="178"/>
      <point x="573" y="178" type="curve" smooth="yes"/>
      <point x="425" y="178"/>
      <point x="354" y="251"/>
      <point x="354" y="416" type="curve" smooth="yes"/>
      <point x="354" y="561"/>
      <point x="429" y="641"/>
      <point x="565" y="641" type="curve" smooth="yes"/>
      <point x="712" y="641"/>
      <point x="785" y="567"/>
    </contour>
  </outline>
</glyph>
<glyph name="nine" format="2">
  <advance width="1139"/>
  <unicode hex="0039"/>
  <note>
nine
</note>
  <outline>
    <contour>
      <point x="1063" y="727" type="curve"/>
      <point x="1063" y="1196"/>
      <point x="900" y="1430"/>
      <point x="563" y="1430" type="curve" smooth="yes"/>
      <point x="250" y="1430"/>
      <point x="71" y="1254"/>
      <point x="71" y="958" type="curve" smooth="yes"/>
      <point x="71" y="670"/>
      <point x="228" y="489"/>
      <point x="476" y="489" type="curve" smooth="yes"/>
      <point x="609" y="489"/>
      <point x="736" y="549"/>
      <point x="787" y="649" type="curve"/>
      <point x="784" y="353"/>
      <point x="697" y="201"/>
      <point x="540" y="201" type="curve" smooth="yes"/>
      <point x="446" y="201"/>
      <point x="386" y="250"/>
      <point x="360" y="348" type="curve"/>
      <point x="96" y="311" type="line"/>
      <point x="155" y="82"/>
      <point x="289" y="-20"/>
      <point x="537" y="-20" type="curve" smooth="yes"/>
      <point x="873" y="-20"/>
      <point x="1063" y="227"/>
    </contour>
    <contour>
      <point x="766" y="924" type="curve"/>
      <point x="766" y="787"/>
      <point x="677" y="698"/>
      <point x="557" y="698" type="curve" smooth="yes"/>
      <point x="430" y="698"/>
      <point x="356" y="800"/>
      <point x="356" y="956" type="curve" smooth="yes"/>
      <point x="356" y="1115"/>
      <point x="432" y="1210"/>
      <point x="556" y="1210" type="curve" smooth="yes"/>
      <point x="683" y="1210"/>
      <point x="766" y="1099"/>
    </contour>
  </outline>
</glyph>
<glyph name="colon" format="2">
  <advance width="682"/>
  <unicode hex="003A"/>
  <note>
colon
</note>
  <outline>
    <contour>
      <point x="485" y="1034" type="line"/>
      <point x="197" y="1034" type="line"/>
      <point x="197" y="752" type="line"/>
      <point x="485" y="752" type="line"/>
    </contour>
    <contour>
      <point x="485" y="281" type="line"/>
      <point x="197" y="281" type="line"/>
      <point x="197" y="0" type="line"/>
      <point x="485" y="0" type="line"/>
    </contour>
  </outline>
</glyph>
<glyph name="semicolon" format="2">
  <advance width="682"/>
  <unicode hex="003B"/>
  <unicode hex="037E"/>
  <note>
semicolon
</note>
  <outline>
    <contour>
      <point x="487" y="1034" type="line"/>
      <point x="199" y="1034" type="line"/>
      <point x="199" y="752" type="line"/>
      <point x="487" y="752" type="line"/>
    </contour>
    <contour>
      <point x="487" y="66" type="curve" smooth="yes"/>
      <point x="487" y="281" type="line"/>
      <point x="199" y="281" type="line"/>
      <point x="199" y="0" type="line"/>
      <point x="328" y="0" type="line"/>
      <point x="328" y="-95"/>
      <point x="280" y="-209"/>
      <point x="195" y="-317" type="curve"/>
      <point x="379" y="-317" type="line"/>
      <point x="455" y="-212"/>
      <point x="487" y="-94"/>
    </contour>
  </outline>
</glyph>
<glyph name="less" format="2">
  <advance width="1196"/>
  <unicode hex="003C"/>
  <note>
less
</note>
  <outline>
    <contour>
      <point x="1113" y="352" type="line"/>
      <point x="280" y="676" type="line"/>
      <point x="1113" y="1001" type="line"/>
      <point x="1113" y="1229" type="line"/>
      <point x="86" y="838" type="line"/>
      <point x="86" y="516" type="line"/>
      <point x="1113" y="125" type="line"/>
    </contour>
  </outline>
</glyph>
<glyph name="equal" format="2">
  <advance width="1196"/>
  <unicode hex="003D"/>
  <note>
equal
</note>
  <outline>
    <contour>
      <point x="1112" y="1065" type="line"/>
      <point x="85" y="1065" type="line"/>
      <point x="85" y="842" type="line"/>
      <point x="1112" y="842" type="line"/>
    </contour>
    <contour>
      <point x="1112" y="512" type="line"/>
      <point x="85" y="512" type="line"/>
      <point x="85" y="291" type="line"/>
      <point x="1112" y="291" type="line"/>
    </contour>
  </outline>
</glyph>
<glyph name="greater" format="2">
  <advance width="1196"/>
  <unicode hex="003E"/>
  <note>
greater
</note>
  <outline>
    <contour>
      <point x="1113" y="516" type="line"/>
      <point x="1113" y="838" type="line"/>
      <point x="86" y="1229" type="line"/>
      <point x="86" y="1001" type="line"/>
      <point x="918" y="676" type="line"/>
      <point x="86" y="352" type="line"/>
      <point x="86" y="125" type="line"/>
    </contour>
  </outline>
</glyph>
<glyph name="question" format="2">
  <advance width="1251"/>
  <unicode hex="003F"/>
  <note>
question
</note>
  <outline>
    <contour>
      <point x="1133" y="1026" type="curve"/>
      <point x="1133" y="1278"/>
      <point x="941" y="1430"/>
      <point x="625" y="1430" type="curve" smooth="yes"/>
      <point x="326" y="1430"/>
      <point x="130" y="1272"/>
      <point x="94" y="1001" type="curve"/>
      <point x="379" y="989" type="line"/>
      <point x="395" y="1118"/>
      <point x="494" y="1204"/>
      <point x="629" y="1204" type="curve" smooth="yes"/>
      <point x="770" y="1204"/>
      <point x="850" y="1131"/>
      <point x="850" y="1014" type="curve" smooth="yes"/>
      <point x="850" y="922"/>
      <point x="798" y="857"/>
      <point x="655" y="758" type="curve" smooth="yes"/>
      <point x="522" y="665"/>
      <point x="454" y="562"/>
      <point x="446" y="426" type="curve"/>
      <point x="713" y="426" type="line"/>
      <point x="717" y="506"/>
      <point x="760" y="570"/>
      <point x="851" y="635" type="curve" smooth="yes"/>
      <point x="927" y="690" type="line" smooth="yes"/>
      <point x="1086" y="803"/>
      <point x="1133" y="897"/>
    </contour>
    <contour>
      <point x="727" y="270" type="line"/>
      <point x="438" y="270" type="line"/>
      <point x="438" y="0" type="line"/>
      <point x="727" y="0" type="line"/>
    </contour>
  </outline>
</glyph>
<glyph name="at" format="2">
  <advance width="1997"/>
  <unicode hex="0040"/>
  <note>
at
</note>
  <outline>
    <contour>
      <point x="1878" y="725" type="curve"/>
      <point x="1878" y="1016"/>
      <point x="1750" y="1243"/>
      <point x="1513" y="1364" type="curve" smooth="yes"/>
      <point x="1394" y="1424"/>
      <point x="1254" y="1454"/>
      <point x="1092" y="1454" type="curve" smooth="yes"/>
      <point x="724" y="1454"/>
      <point x="412" y="1278"/>
      <point x="244" y="973" type="curve" smooth="yes"/>
      <point x="159" y="820"/>
      <point x="117" y="650"/>
      <point x="117" y="461" type="curve" smooth="yes"/>
      <point x="117" y="150"/>
      <point x="258" y="-101"/>
      <point x="498" y="-228" type="curve" smooth="yes"/>
      <point x="617" y="-292"/>
      <point x="756" y="-324"/>
      <point x="913" y="-324" type="curve" smooth="yes"/>
      <point x="1138" y="-324"/>
      <point x="1347" y="-274"/>
      <point x="1571" y="-147" type="curve"/>
      <point x="1509" y="-25" type="line"/>
      <point x="1312" y="-128"/>
      <point x="1116" y="-180"/>
      <point x="920" y="-180" type="curve" smooth="yes"/>
      <point x="661" y="-180"/>
      <point x="465" y="-78"/>
      <point x="359" y="119" type="curve" smooth="yes"/>
      <point x="306" y="217"/>
      <point x="279" y="331"/>
      <point x="279" y="461" type="curve" smooth="yes"/>
      <point x="279" y="789"/>
      <point x="427" y="1068"/>
      <point x="671" y="1208" type="curve" smooth="yes"/>
      <point x="793" y="1278"/>
      <point x="934" y="1313"/>
      <point x="1094" y="1313" type="curve" smooth="yes"/>
      <point x="1349" y="1313"/>
      <point x="1548" y="1212"/>
      <point x="1650" y="1033" type="curve" smooth="yes"/>
      <point x="1701" y="943"/>
      <point x="1726" y="840"/>
      <point x="1726" y="723" type="curve" smooth="yes"/>
      <point x="1726" y="536"/>
      <point x="1665" y="373"/>
      <point x="1568" y="281" type="curve" smooth="yes"/>
      <point x="1519" y="234"/>
      <point x="1468" y="211"/>
      <point x="1415" y="211" type="curve" smooth="yes"/>
      <point x="1374" y="211"/>
      <point x="1337" y="236"/>
      <point x="1337" y="303" type="curve" smooth="yes"/>
      <point x="1337" y="348"/>
      <point x="1349" y="428"/>
      <point x="1374" y="543" type="curve" smooth="yes"/>
      <point x="1491" y="1049" type="line"/>
      <point x="1335" y="1049" type="line"/>
      <point x="1296" y="897" type="line"/>
      <point x="1290" y="897" type="line"/>
      <point x="1244" y="1013"/>
      <point x="1156" y="1071"/>
      <point x="1026" y="1071" type="curve" smooth="yes"/>
      <point x="837" y="1071"/>
      <point x="677" y="956"/>
      <point x="591" y="765" type="curve" smooth="yes"/>
      <point x="548" y="670"/>
      <point x="526" y="568"/>
      <point x="526" y="459" type="curve" smooth="yes"/>
      <point x="526" y="216"/>
      <point x="647" y="74"/>
      <point x="856" y="74" type="curve" smooth="yes"/>
      <point x="993" y="74"/>
      <point x="1139" y="173"/>
      <point x="1206" y="313" type="curve"/>
      <point x="1212" y="313" type="line"/>
      <point x="1208" y="293"/>
      <point x="1206" y="271"/>
      <point x="1206" y="246" type="curve" smooth="yes"/>
      <point x="1206" y="138"/>
      <point x="1274" y="74"/>
      <point x="1397" y="74" type="curve" smooth="yes"/>
      <point x="1570" y="74"/>
      <point x="1730" y="193"/>
      <point x="1815" y="393" type="curve" smooth="yes"/>
      <point x="1857" y="493"/>
      <point x="1878" y="604"/>
    </contour>
    <contour>
      <point x="1231" y="721" type="curve"/>
      <point x="1231" y="641"/>
      <point x="1194" y="485"/>
      <point x="1129" y="379" type="curve" smooth="yes"/>
      <point x="1064" y="273"/>
      <point x="977" y="215"/>
      <point x="889" y="215" type="curve" smooth="yes"/>
      <point x="756" y="215"/>
      <point x="692" y="309"/>
      <point x="692" y="461" type="curve" smooth="yes"/>
      <point x="692" y="622"/>
      <point x="750" y="790"/>
      <point x="850" y="874" type="curve" smooth="yes"/>
      <point x="899" y="915"/>
      <point x="955" y="936"/>
      <point x="1018" y="936" type="curve" smooth="yes"/>
      <point x="1143" y="936"/>
      <point x="1231" y="848"/>
    </contour>
  </outline>
</glyph>
<glyph name="A" format="2">
  <advance width="1479"/>
  <unicode hex="0041"/>
  <note>
A
</note>
  <outline>
    <contour>
      <point x="471" y="360" type="line"/>
      <point x="1008" y="360" type="line"/>
      <point x="1133" y="0" type="line"/>
      <point x="1425" y="0" type="line"/>
      <point x="913" y="1409" type="line"/>
      <point x="565" y="1409" type="line"/>
      <point x="51" y="0" type="line"/>
      <point x="346" y="0" type="line"/>
    </contour>
    <contour>
      <point x="739" y="1192" type="curve"/>
      <point x="756" y="1137"/>
      <point x="771" y="1080"/>
      <point x="790" y="1026" type="curve" smooth="yes"/>
      <point x="942" y="582" type="line"/>
      <point x="537" y="582" type="line"/>
      <point x="685" y="1017" type="line" smooth="yes"/>
      <point x="695" y="1048"/>
      <point x="726" y="1139"/>
    </contour>
  </outline>
</glyph>
<glyph name="B" format="2">
  <advance width="1479"/>
  <unicode hex="0042"/>
  <note>
B
</note>
  <outline>
    <contour>
      <point x="1386" y="402" type="curve" smooth="yes"/>
      <point x="1386" y="594"/>
      <point x="1264" y="714"/>
      <point x="1036" y="741" type="curve"/>
      <point x="1217" y="780"/>
      <point x="1305" y="895"/>
      <point x="1305" y="1055" type="curve" smooth="yes"/>
      <point x="1305" y="1288"/>
      <point x="1126" y="1409"/>
      <point x="782" y="1409" type="curve" smooth="yes"/>
      <point x="137" y="1409" type="line"/>
      <point x="137" y="0" type="line"/>
      <point x="842" y="0" type="line" smooth="yes"/>
      <point x="1183" y="0"/>
      <point x="1386" y="146"/>
    </contour>
    <contour>
      <point x="1008" y="1015" type="curve" smooth="yes"/>
      <point x="1008" y="899"/>
      <point x="937" y="841"/>
      <point x="770" y="841" type="curve" smooth="yes"/>
      <point x="432" y="841" type="line"/>
      <point x="432" y="1190" type="line"/>
      <point x="768" y="1190" type="line" smooth="yes"/>
      <point x="927" y="1190"/>
      <point x="1008" y="1142"/>
    </contour>
    <contour>
      <point x="1090" y="425" type="curve" smooth="yes"/>
      <point x="1090" y="288"/>
      <point x="1006" y="219"/>
      <point x="817" y="219" type="curve" smooth="yes"/>
      <point x="432" y="219" type="line"/>
      <point x="432" y="623" type="line"/>
      <point x="806" y="623" type="line" smooth="yes"/>
      <point x="995" y="623"/>
      <point x="1090" y="557"/>
    </contour>
  </outline>
</glyph>
<glyph name="C" format="2">
  <advance width="1479"/>
  <unicode hex="0043"/>
  <note>
C
</note>
  <outline>
    <contour>
      <point x="795" y="212" type="curve" smooth="yes"/>
      <point x="527" y="212"/>
      <point x="381" y="387"/>
      <point x="381" y="711" type="curve" smooth="yes"/>
      <point x="381" y="1030"/>
      <point x="521" y="1198"/>
      <point x="788" y="1198" type="curve" smooth="yes"/>
      <point x="963" y="1198"/>
      <point x="1101" y="1108"/>
      <point x="1145" y="967" type="curve"/>
      <point x="1405" y="1038" type="line"/>
      <point x="1321" y="1295"/>
      <point x="1113" y="1430"/>
      <point x="782" y="1430" type="curve" smooth="yes"/>
      <point x="329" y="1430"/>
      <point x="84" y="1174"/>
      <point x="84" y="711" type="curve" smooth="yes"/>
      <point x="84" y="250"/>
      <point x="342" y="-20"/>
      <point x="795" y="-20" type="curve" smooth="yes"/>
      <point x="1094" y="-20"/>
      <point x="1312" y="111"/>
      <point x="1423" y="383" type="curve"/>
      <point x="1166" y="480" type="line"/>
      <point x="1097" y="301"/>
      <point x="973" y="212"/>
    </contour>
  </outline>
</glyph>
<glyph name="D" format="2">
  <advance width="1479"/>
  <unicode hex="0044"/>
  <note>
D
</note>
  <outline>
    <contour>
      <point x="1393" y="715" type="curve" smooth="yes"/>
      <point x="1393" y="1162"/>
      <point x="1122" y="1409"/>
      <point x="647" y="1409" type="curve" smooth="yes"/>
      <point x="137" y="1409" type="line"/>
      <point x="137" y="0" type="line"/>
      <point x="707" y="0" type="line" smooth="yes"/>
      <point x="1111" y="0"/>
      <point x="1393" y="262"/>
    </contour>
    <contour>
      <point x="1096" y="715" type="curve" smooth="yes"/>
      <point x="1096" y="415"/>
      <point x="935" y="228"/>
      <point x="682" y="228" type="curve" smooth="yes"/>
      <point x="432" y="228" type="line"/>
      <point x="432" y="1181" type="line"/>
      <point x="641" y="1181" type="line" smooth="yes"/>
      <point x="933" y="1181"/>
      <point x="1096" y="1018"/>
    </contour>
  </outline>
</glyph>
<glyph name="E" format="2">
  <advance width="1366"/>
  <unicode hex="0045"/>
  <note>
E
</note>
  <outline>
    <contour>
      <point x="1286" y="228" type="line"/>
      <point x="432" y="228" type="line"/>
      <point x="432" y="599" type="line"/>
      <point x="1184" y="599" type="line"/>
      <point x="1184" y="827" type="line"/>
      <point x="432" y="827" type="line"/>
      <point x="432" y="1181" type="line"/>
      <point x="1245" y="1181" type="line"/>
      <point x="1245" y="1409" type="line"/>
      <point x="137" y="1409" type="line"/>
      <point x="137" y="0" type="line"/>
      <point x="1286" y="0" type="line"/>
    </contour>
  </outline>
</glyph>
<glyph name="F" format="2">
  <advance width="1251"/>
  <unicode hex="0046"/>
  <note>
F
</note>
  <outline>
    <contour>
      <point x="432" y="517" type="line"/>
      <point x="1153" y="517" type="line"/>
      <point x="1153" y="745" type="line"/>
      <point x="432" y="745" type="line"/>
      <point x="432" y="1181" type="line"/>
      <point x="1176" y="1181" type="line"/>
      <point x="1176" y="1409" type="line"/>
      <point x="137" y="1409" type="line"/>
      <point x="137" y="0" type="line"/>
      <point x="432" y="0" type="line"/>
    </contour>
  </outline>
</glyph>
<glyph name="G" format="2">
  <advance width="1593"/>
  <unicode hex="0047"/>
  <note>
G
</note>
  <outline>
    <contour>
      <point x="806" y="211" type="curve" smooth="yes"/>
      <point x="537" y="211"/>
      <point x="381" y="392"/>
      <point x="381" y="711" type="curve" smooth="yes"/>
      <point x="381" y="1024"/>
      <point x="528" y="1198"/>
      <point x="805" y="1198" type="curve" smooth="yes"/>
      <point x="974" y="1198"/>
      <point x="1105" y="1124"/>
      <point x="1164" y="981" type="curve"/>
      <point x="1436" y="1063" type="line"/>
      <point x="1346" y="1308"/>
      <point x="1136" y="1430"/>
      <point x="805" y="1430" type="curve" smooth="yes"/>
      <point x="340" y="1430"/>
      <point x="84" y="1175"/>
      <point x="84" y="711" type="curve" smooth="yes"/>
      <point x="84" y="244"/>
      <point x="339" y="-20"/>
      <point x="798" y="-20" type="curve" smooth="yes"/>
      <point x="1061" y="-20"/>
      <point x="1317" y="72"/>
      <point x="1466" y="225" type="curve"/>
      <point x="1466" y="743" type="line"/>
      <point x="852" y="743" type="line"/>
      <point x="852" y="525" type="line"/>
      <point x="1196" y="525" type="line"/>
      <point x="1196" y="330" type="line"/>
      <point x="1117" y="261"/>
      <point x="959" y="211"/>
    </contour>
  </outline>
</glyph>
<glyph name="H" format="2">
  <advance width="1479"/>
  <unicode hex="0048"/>
  <note>
H
</note>
  <outline>
    <contour>
      <point x="432" y="604" type="line"/>
      <point x="1046" y="604" type="line"/>
      <point x="1046" y="0" type="line"/>
      <point x="1341" y="0" type="line"/>
      <point x="1341" y="1409" type="line"/>
      <point x="1046" y="1409" type="line"/>
      <point x="1046" y="848" type="line"/>
      <point x="432" y="848" type="line"/>
      <point x="432" y="1409" type="line"/>
      <point x="137" y="1409" type="line"/>
      <point x="137" y="0" type="line"/>
      <point x="432" y="0" type="line"/>
    </contour>
  </outline>
</glyph>
<glyph name="I" format="2">
  <advance width="569"/>
  <unicode hex="0049"/>
  <note>
I
</note>
  <outline>
    <contour>
      <point x="432" y="1409" type="line"/>
      <point x="137" y="1409" type="line"/>
      <point x="137" y="0" type="line"/>
      <point x="432" y="0" type="line"/>
    </contour>
  </outline>
</glyph>
<glyph name="K" format="2">
  <advance width="1479"/>
  <unicode hex="004B"/>
  <note>
K
</note>
  <outline>
    <contour>
      <point x="432" y="514" type="line"/>
      <point x="606" y="647" type="line"/>
      <point x="1112" y="0" type="line"/>
      <point x="1460" y="0" type="line"/>
      <point x="809" y="813" type="line"/>
      <point x="1411" y="1409" type="line"/>
      <point x="1067" y="1409" type="line"/>
      <point x="432" y="770" type="line"/>
      <point x="432" y="1409" type="line"/>
      <point x="137" y="1409" type="line"/>
      <point x="137" y="0" type="line"/>
      <point x="432" y="0" type="line"/>
    </contour>
  </outline>
</glyph>
<glyph name="L" format="2">
  <advance width="1251"/>
  <unicode hex="004C"/>
  <note>
L
</note>
  <outline>
    <contour>
      <point x="1188" y="228" type="line"/>
      <point x="432" y="228" type="line"/>
      <point x="432" y="1409" type="line"/>
      <point x="137" y="1409" type="line"/>
      <point x="137" y="0" type="line"/>
      <point x="1188" y="0" type="line"/>
    </contour>
  </outline>
</glyph>
<glyph name="M" format="2">
  <advance width="1706"/>
  <unicode hex="004D"/>
  <note>
M
</note>
  <outline>
    <contour>
      <point x="399" y="854" type="line" smooth="yes"/>
      <point x="399" y="904"/>
      <point x="395" y="1006"/>
      <point x="387" y="1161" type="curve"/>
      <point x="494" y="786" type="line"/>
      <point x="748" y="0" type="line"/>
      <point x="958" y="0" type="line"/>
      <point x="1212" y="786" type="line" smooth="yes"/>
      <point x="1235" y="857"/>
      <point x="1270" y="982"/>
      <point x="1317" y="1161" type="curve"/>
      <point x="1310" y="1024"/>
      <point x="1307" y="893"/>
      <point x="1307" y="854" type="curve" smooth="yes"/>
      <point x="1307" y="0" type="line"/>
      <point x="1569" y="0" type="line"/>
      <point x="1569" y="1409" type="line"/>
      <point x="1176" y="1409" type="line"/>
      <point x="917" y="582" type="line" smooth="yes"/>
      <point x="894" y="508"/>
      <point x="875" y="431"/>
      <point x="854" y="356" type="curve"/>
      <point x="831" y="444"/>
      <point x="807" y="533"/>
      <point x="784" y="621" type="curve"/>
      <point x="532" y="1409" type="line"/>
      <point x="137" y="1409" type="line"/>
      <point x="137" y="0" type="line"/>
      <point x="399" y="0" type="line"/>
    </contour>
  </outline>
</glyph>
<glyph name="N" format="2">
  <advance width="1479"/>
  <unicode hex="004E"/>
  <note>
N
</note>
  <outline>
    <contour>
      <point x="399" y="831" type="line" smooth="yes"/>
      <point x="399" y="895"/>
      <point x="393" y="980"/>
      <point x="381" y="1085" type="curve"/>
      <point x="995" y="0" type="line"/>
      <point x="1341" y="0" type="line"/>
      <point x="1341" y="1409" type="line"/>
      <point x="1079" y="1409" type="line"/>
      <point x="1079" y="590" type="line" smooth="yes"/>
      <point x="1079" y="507"/>
      <point x="1085" y="416"/>
      <point x="1097" y="315" type="curve"/>
      <point x="474" y="1409" type="line"/>
      <point x="137" y="1409" type="line"/>
      <point x="137" y="0" type="line"/>
      <point x="399" y="0" type="line"/>
    </contour>
  </outline>
</glyph>
<glyph name="O" format="2">
  <advance width="1593"/>
  <unicode hex="004F"/>
  <note>
O
</note>
  <outline>
    <contour>
      <point x="1507" y="711" type="curve" smooth="yes"/>
      <point x="1507" y="1158"/>
      <point x="1242" y="1430"/>
      <point x="795" y="1430" type="curve" smooth="yes"/>
      <point x="348" y="1430"/>
      <point x="84" y="1163"/>
      <point x="84" y="711" type="curve" smooth="yes"/>
      <point x="84" y="258"/>
      <point x="350" y="-20"/>
      <point x="793" y="-20" type="curve" smooth="yes"/>
      <point x="1224" y="-20"/>
      <point x="1507" y="270"/>
    </contour>
    <contour>
      <point x="1206" y="711" type="curve" smooth="yes"/>
      <point x="1206" y="392"/>
      <point x="1057" y="212"/>
      <point x="793" y="212" type="curve" smooth="yes"/>
      <point x="538" y="212"/>
      <point x="381" y="402"/>
      <point x="381" y="711" type="curve" smooth="yes"/>
      <point x="381" y="1018"/>
      <point x="531" y="1198"/>
      <point x="795" y="1198" type="curve" smooth="yes"/>
      <point x="1055" y="1198"/>
      <point x="1206" y="1015"/>
    </contour>
  </outline>
</glyph>
<glyph name="Q" format="2">
  <advance width="1593"/>
  <unicode hex="0051"/>
  <note>
Q
</note>
  <outline>
    <contour>
      <point x="1507" y="711" type="curve" smooth="yes"/>
      <point x="1507" y="1158"/>
      <point x="1242" y="1430"/>
      <point x="795" y="1430" type="curve" smooth="yes"/>
      <point x="348" y="1430"/>
      <point x="84" y="1163"/>
      <point x="84" y="711" type="curve" smooth="yes"/>
      <point x="84" y="294"/>
      <point x="304" y="26"/>
      <point x="684" y="-10" type="curve"/>
      <point x="771" y="-291"/>
      <point x="909" y="-403"/>
      <point x="1126" y="-403" type="curve" smooth="yes"/>
      <point x="1203" y="-403"/>
      <point x="1284" y="-394"/>
      <point x="1368" y="-375" type="curve"/>
      <point x="1370" y="-173" type="line"/>
      <point x="1330" y="-180"/>
      <point x="1290" y="-183"/>
      <point x="1251" y="-183" type="curve" smooth="yes"/>
      <point x="1103" y="-183"/>
      <point x="1028" y="-128"/>
      <point x="983" y="4" type="curve"/>
      <point x="1312" y="71"/>
      <point x="1507" y="335"/>
    </contour>
    <contour>
      <point x="1206" y="711" type="curve" smooth="yes"/>
      <point x="1206" y="391"/>
      <point x="1057" y="211"/>
      <point x="793" y="211" type="curve" smooth="yes"/>
      <point x="537" y="211"/>
      <point x="381" y="402"/>
      <point x="381" y="711" type="curve" smooth="yes"/>
      <point x="381" y="1018"/>
      <point x="531" y="1198"/>
      <point x="795" y="1198" type="curve" smooth="yes"/>
      <point x="1055" y="1198"/>
      <point x="1206" y="1015"/>
    </contour>
  </outline>
</glyph>
<glyph name="S" format="2">
  <advance width="1366"/>
  <unicode hex="0053"/>
  <note>
S
</note>
  <outline>
    <contour>
      <point x="1286" y="406" type="curve" smooth="yes"/>
      <point x="1286" y="523"/>
      <point x="1249" y="613"/>
      <point x="1181" y="678" type="curve" smooth="yes"/>
      <point x="1147" y="710"/>
      <point x="1101" y="738"/>
      <point x="1043" y="763" type="curve" smooth="yes"/>
      <point x="984" y="787"/>
      <point x="887" y="813"/>
      <point x="752" y="842" type="curve" smooth="yes"/>
      <point x="638" y="866"/>
      <point x="562" y="886"/>
      <point x="525" y="903" type="curve" smooth="yes"/>
      <point x="450" y="936"/>
      <point x="412" y="980"/>
      <point x="412" y="1053" type="curve" smooth="yes"/>
      <point x="412" y="1165"/>
      <point x="501" y="1221"/>
      <point x="680" y="1221" type="curve" smooth="yes"/>
      <point x="848" y="1221"/>
      <point x="934" y="1159"/>
      <point x="963" y="1038" type="curve"/>
      <point x="1249" y="1077" type="line"/>
      <point x="1198" y="1329"/>
      <point x="1035" y="1430"/>
      <point x="686" y="1430" type="curve" smooth="yes"/>
      <point x="321" y="1430"/>
      <point x="125" y="1291"/>
      <point x="125" y="1036" type="curve" smooth="yes"/>
      <point x="125" y="886"/>
      <point x="184" y="789"/>
      <point x="284" y="729" type="curve" smooth="yes"/>
      <point x="351" y="688"/>
      <point x="405" y="665"/>
      <point x="616" y="616" type="curve" smooth="yes"/>
      <point x="738" y="591"/>
      <point x="821" y="570"/>
      <point x="864" y="553" type="curve" smooth="yes"/>
      <point x="950" y="518"/>
      <point x="999" y="469"/>
      <point x="999" y="389" type="curve" smooth="yes"/>
      <point x="999" y="264"/>
      <point x="896" y="201"/>
      <point x="690" y="201" type="curve" smooth="yes"/>
      <point x="491" y="201"/>
      <point x="383" y="265"/>
      <point x="344" y="414" type="curve"/>
      <point x="59" y="367" type="line"/>
      <point x="118" y="107"/>
      <point x="321" y="-20"/>
      <point x="682" y="-20" type="curve" smooth="yes"/>
      <point x="1078" y="-20"/>
      <point x="1286" y="130"/>
    </contour>
  </outline>
</glyph>
<glyph name="U" format="2">
  <advance width="1479"/>
  <unicode hex="0055"/>
  <note>
U
</note>
  <outline>
    <contour>
      <point x="723" y="-20" type="curve" smooth="yes"/>
      <point x="1123" y="-20"/>
      <point x="1354" y="186"/>
      <point x="1354" y="543" type="curve" smooth="yes"/>
      <point x="1354" y="1409" type="line"/>
      <point x="1059" y="1409" type="line"/>
      <point x="1059" y="561" type="line" smooth="yes"/>
      <point x="1059" y="336"/>
      <point x="942" y="211"/>
      <point x="731" y="211" type="curve" smooth="yes"/>
      <point x="526" y="211"/>
      <point x="418" y="328"/>
      <point x="418" y="551" type="curve" smooth="yes"/>
      <point x="418" y="1409" type="line"/>
      <point x="123" y="1409" type="line"/>
      <point x="123" y="528" type="line" smooth="yes"/>
      <point x="123" y="176"/>
      <point x="335" y="-20"/>
    </contour>
  </outline>
</glyph>
<glyph name="V" format="2">
  <advance width="1366"/>
  <unicode hex="0056"/>
  <note>
V
</note>
  <outline>
    <contour>
      <point x="1352" y="1409" type="line"/>
      <point x="1047" y="1409" type="line"/>
      <point x="758" y="504" type="line" smooth="yes"/>
      <point x="745" y="465"/>
      <point x="730" y="405"/>
      <point x="686" y="238" type="curve"/>
      <point x="655" y="356"/>
      <point x="631" y="445"/>
      <point x="612" y="504" type="curve" smooth="yes"/>
      <point x="322" y="1409" type="line"/>
      <point x="14" y="1409" type="line"/>
      <point x="535" y="0" type="line"/>
      <point x="834" y="0" type="line"/>
    </contour>
  </outline>
</glyph>
<glyph name="W" format="2">
  <advance width="1933"/>
  <unicode hex="0057"/>
  <note>
W
</note>
  <outline>
    <contour>
      <point x="909" y="834" type="line" smooth="yes"/>
      <point x="919" y="879"/>
      <point x="951" y="1029"/>
      <point x="967" y="1116" type="curve"/>
      <point x="983" y="1011"/>
      <point x="1003" y="911"/>
      <point x="1026" y="815" type="curve" smooth="yes"/>
      <point x="1217" y="0" type="line"/>
      <point x="1567" y="0" type="line"/>
      <point x="1931" y="1409" type="line"/>
      <point x="1632" y="1409" type="line"/>
      <point x="1451" y="572" type="line" smooth="yes"/>
      <point x="1426" y="457"/>
      <point x="1410" y="394"/>
      <point x="1384" y="279" type="curve"/>
      <point x="1366" y="406"/>
      <point x="1345" y="520"/>
      <point x="1332" y="576" type="curve" smooth="yes"/>
      <point x="1135" y="1409" type="line"/>
      <point x="805" y="1409" type="line"/>
      <point x="606" y="545" type="line" smooth="yes"/>
      <point x="586" y="460"/>
      <point x="570" y="372"/>
      <point x="551" y="279" type="curve"/>
      <point x="538" y="369"/>
      <point x="514" y="473"/>
      <point x="497" y="546" type="curve" smooth="yes"/>
      <point x="301" y="1409" type="line"/>
      <point x="2" y="1409" type="line"/>
      <point x="365" y="0" type="line"/>
      <point x="715" y="0" type="line"/>
    </contour>
  </outline>
</glyph>
<glyph name="X" format="2">
  <advance width="1366"/>
  <unicode hex="0058"/>
  <note>
X
</note>
  <outline>
    <contour>
      <point x="684" y="561" type="line"/>
      <point x="1038" y="0" type="line"/>
      <point x="1348" y="0" type="line"/>
      <point x="879" y="741" type="line"/>
      <point x="1307" y="1409" type="line"/>
      <point x="997" y="1409" type="line"/>
      <point x="684" y="911" type="line"/>
      <point x="371" y="1409" type="line"/>
      <point x="59" y="1409" type="line"/>
      <point x="506" y="741" type="line"/>
      <point x="18" y="0" type="line"/>
      <point x="330" y="0" type="line"/>
    </contour>
  </outline>
</glyph>
<glyph name="Y" format="2">
  <advance width="1366"/>
  <unicode hex="0059"/>
  <note>
Y
</note>
  <outline>
    <contour>
      <point x="831" y="578" type="line"/>
      <point x="1333" y="1409" type="line"/>
      <point x="1024" y="1409" type="line"/>
      <point x="682" y="813" type="line"/>
      <point x="344" y="1409" type="line"/>
      <point x="35" y="1409" type="line"/>
      <point x="537" y="578" type="line"/>
      <point x="537" y="0" type="line"/>
      <point x="831" y="0" type="line"/>
    </contour>
  </outline>
</glyph>
<glyph name="bracketleft" format="2">
  <advance width="682"/>
  <unicode hex="005B"/>
  <note>
bracketleft
</note>
  <outline>
    <contour>
      <point x="657" y="-234" type="line"/>
      <point x="381" y="-234" type="line"/>
      <point x="381" y="1294" type="line"/>
      <point x="657" y="1294" type="line"/>
      <point x="657" y="1484" type="line"/>
      <point x="115" y="1484" type="line"/>
      <point x="115" y="-425" type="line"/>
      <point x="657" y="-425" type="line"/>
    </contour>
  </outline>
</glyph>
<glyph name="backslash" format="2">
  <advance width="569"/>
  <unicode hex="005C"/>
  <note>
backslash
</note>
  <outline>
    <contour>
      <point x="259" y="1485" type="line"/>
      <point x="21" y="1485" type="line"/>
      <point x="307" y="-41" type="line"/>
      <point x="550" y="-41" type="line"/>
    </contour>
  </outline>
</glyph>
<glyph name="bracketright" format="2">
  <advance width="682"/>
  <unicode hex="005D"/>
  <note>
bracketright
</note>
  <outline>
    <contour>
      <point x="567" y="1484" type="line"/>
      <point x="25" y="1484" type="line"/>
      <point x="25" y="1294" type="line"/>
      <point x="303" y="1294" type="line"/>
      <point x="303" y="-234" type="line"/>
      <point x="25" y="-234" type="line"/>
      <point x="25" y="-425" type="line"/>
      <point x="567" y="-425" type="line"/>
    </contour>
  </outline>
</glyph>
<glyph name="asciicircum" format="2">
  <advance width="1196"/>
  <unicode hex="005E"/>
  <note>
asciicircum
</note>
  <outline>
    <contour>
      <point x="45" y="514" type="line"/>
      <point x="272" y="514" type="line"/>
      <point x="596" y="1266" type="line"/>
      <point x="922" y="514" type="line"/>
      <point x="1151" y="514" type="line"/>
      <point x="758" y="1409" type="line"/>
      <point x="436" y="1409" type="line"/>
    </contour>
  </outline>
</glyph>
<glyph name="underscore" format="2">
  <advance width="1139"/>
  <unicode hex="005F"/>
  <note>
underscore
</note>
  <outline>
    <contour>
      <point x="1157" y="-172" type="line"/>
      <point x="-20" y="-172" type="line"/>
      <point x="-20" y="-250" type="line"/>
      <point x="1157" y="-250" type="line"/>
    </contour>
  </outline>
</glyph>
<glyph name="grave" format="2">
  <advance width="682"/>
  <unicode hex="0060"/>
  <note>
grave
</note>
  <outline>
    <contour>
      <point x="575" y="1214" type="line"/>
      <point x="324" y="1502" type="line"/>
      <point x="66" y="1502" type="line"/>
      <point x="66" y="1459" type="line"/>
      <point x="406" y="1183" type="line"/>
      <point x="575" y="1183" type="line"/>
    </contour>
  </outline>
</glyph>
<glyph name="a" format="2">
  <advance width="1139"/>
  <unicode hex="0061"/>
  <note>
a
</note>
  <outline>
    <contour>
      <point x="393" y="-20" type="curve" smooth="yes"/>
      <point x="552" y="-20"/>
      <point x="670" y="51"/>
      <point x="749" y="193" type="curve"/>
      <point x="755" y="193" type="line"/>
      <point x="768" y="58"/>
      <point x="831" y="-12"/>
      <point x="972" y="-12" type="curve" smooth="yes"/>
      <point x="1044" y="-12"/>
      <point x="1083" y="-3"/>
      <point x="1152" y="14" type="curve"/>
      <point x="1152" y="166" type="line"/>
      <point x="1132" y="162"/>
      <point x="1111" y="160"/>
      <point x="1090" y="160" type="curve" smooth="yes"/>
      <point x="1026" y="160"/>
      <point x="1001" y="199"/>
      <point x="1001" y="320" type="curve" smooth="yes"/>
      <point x="1001" y="714" type="line" smooth="yes"/>
      <point x="1001" y="962"/>
      <point x="847" y="1102"/>
      <point x="574" y="1102" type="curve" smooth="yes"/>
      <point x="303" y="1102"/>
      <point x="145" y="992"/>
      <point x="109" y="781" type="curve"/>
      <point x="402" y="767" type="line"/>
      <point x="414" y="876"/>
      <point x="458" y="920"/>
      <point x="562" y="920" type="curve" smooth="yes"/>
      <point x="674" y="920"/>
      <point x="720" y="852"/>
      <point x="720" y="711" type="curve" smooth="yes"/>
      <point x="720" y="656" type="line"/>
      <point x="487" y="652" type="line" smooth="yes"/>
      <point x="210" y="647"/>
      <point x="60" y="530"/>
      <point x="60" y="306" type="curve" smooth="yes"/>
      <point x="60" y="99"/>
      <point x="184" y="-20"/>
    </contour>
    <contour>
      <point x="720" y="501" type="line"/>
      <point x="720" y="446" type="line" smooth="yes"/>
      <point x="720" y="351"/>
      <point x="676" y="260"/>
      <point x="604" y="212" type="curve" smooth="yes"/>
      <point x="567" y="188"/>
      <point x="527" y="176"/>
      <point x="483" y="176" type="curve" smooth="yes"/>
      <point x="404" y="176"/>
      <point x="353" y="225"/>
      <point x="353" y="328" type="curve" smooth="yes"/>
      <point x="353" y="408"/>
      <point x="382" y="454"/>
      <point x="437" y="478" type="curve" smooth="yes"/>
      <point x="464" y="489"/>
      <point x="511" y="496"/>
      <point x="576" y="499" type="curve" smooth="yes"/>
    </contour>
  </outline>
</glyph>
<glyph name="d" format="2">
  <advance width="1251"/>
  <unicode hex="0064"/>
  <note>
d
</note>
  <outline>
    <contour>
      <point x="844" y="0" type="curve"/>
      <point x="1116" y="0" type="line"/>
      <point x="1111" y="91"/>
      <point x="1108" y="169"/>
      <point x="1108" y="236" type="curve" smooth="yes"/>
      <point x="1108" y="1484" type="line"/>
      <point x="827" y="1484" type="line"/>
      <point x="827" y="1089" type="line"/>
      <point x="829" y="911" type="line"/>
      <point x="827" y="911" type="line"/>
      <point x="767" y="1038"/>
      <point x="653" y="1102"/>
      <point x="500" y="1102" type="curve" smooth="yes"/>
      <point x="235" y="1102"/>
      <point x="84" y="899"/>
      <point x="84" y="540" type="curve" smooth="yes"/>
      <point x="84" y="187"/>
      <point x="227" y="-20"/>
      <point x="479" y="-20" type="curve" smooth="yes"/>
      <point x="649" y="-20"/>
      <point x="764" y="45"/>
      <point x="825" y="176" type="curve"/>
      <point x="829" y="176" type="line"/>
      <point x="829" y="123"/>
      <point x="839" y="20"/>
    </contour>
    <contour>
      <point x="377" y="540" type="curve" smooth="yes"/>
      <point x="377" y="791"/>
      <point x="449" y="911"/>
      <point x="600" y="911" type="curve" smooth="yes"/>
      <point x="752" y="911"/>
      <point x="831" y="780"/>
      <point x="831" y="547" type="curve" smooth="yes"/>
      <point x="831" y="307"/>
      <point x="746" y="172"/>
      <point x="598" y="172" type="curve" smooth="yes"/>
      <point x="451" y="172"/>
      <point x="377" y="295"/>
    </contour>
  </outline>
</glyph>
<glyph name="e" format="2">
  <advance width="1139"/>
  <unicode hex="0065"/>
  <note>
e
</note>
  <outline>
    <contour>
      <point x="375" y="487" type="curve"/>
      <point x="1069" y="487" type="line"/>
      <point x="1069" y="495" type="line" smooth="yes"/>
      <point x="1069" y="892"/>
      <point x="901" y="1102"/>
      <point x="590" y="1102" type="curve" smooth="yes"/>
      <point x="265" y="1102"/>
      <point x="80" y="903"/>
      <point x="80" y="546" type="curve" smooth="yes"/>
      <point x="80" y="177"/>
      <point x="261" y="-20"/>
      <point x="586" y="-20" type="curve" smooth="yes"/>
      <point x="821" y="-20"/>
      <point x="976" y="78"/>
      <point x="1053" y="274" type="curve"/>
      <point x="788" y="297" type="line"/>
      <point x="762" y="211"/>
      <point x="699" y="168"/>
      <point x="600" y="168" type="curve" smooth="yes"/>
      <point x="456" y="168"/>
      <point x="375" y="276"/>
    </contour>
    <contour>
      <point x="797" y="663" type="curve"/>
      <point x="377" y="663" type="line"/>
      <point x="381" y="828"/>
      <point x="454" y="925"/>
      <point x="586" y="925" type="curve" smooth="yes"/>
      <point x="710" y="925"/>
      <point x="786" y="838"/>
    </contour>
  </outline>
</glyph>
<glyph name="g" format="2">
  <advance width="1251"/>
  <unicode hex="0067"/>
  <note>
g
</note>
  <outline>
    <contour>
      <point x="596" y="-434" type="curve" smooth="yes"/>
      <point x="929" y="-434"/>
      <point x="1108" y="-275"/>
      <point x="1108" y="33" type="curve" smooth="yes"/>
      <point x="1108" y="832" type="line" smooth="yes"/>
      <point x="1108" y="927"/>
      <point x="1110" y="1010"/>
      <point x="1114" y="1082" type="curve"/>
      <point x="848" y="1082" type="line"/>
      <point x="841" y="1057"/>
      <point x="834" y="955"/>
      <point x="834" y="908" type="curve"/>
      <point x="829" y="908" type="line"/>
      <point x="768" y="1038"/>
      <point x="659" y="1103"/>
      <point x="502" y="1103" type="curve" smooth="yes"/>
      <point x="230" y="1103"/>
      <point x="84" y="903"/>
      <point x="84" y="550" type="curve" smooth="yes"/>
      <point x="84" y="198"/>
      <point x="229" y="2"/>
      <point x="481" y="2" type="curve" smooth="yes"/>
      <point x="651" y="2"/>
      <point x="767" y="68"/>
      <point x="829" y="201" type="curve"/>
      <point x="831" y="201" type="line"/>
      <point x="829" y="37" type="line" smooth="yes"/>
      <point x="829" y="-152"/>
      <point x="760" y="-249"/>
      <point x="604" y="-249" type="curve" smooth="yes"/>
      <point x="497" y="-249"/>
      <point x="430" y="-197"/>
      <point x="410" y="-110" type="curve"/>
      <point x="129" y="-143" type="line"/>
      <point x="166" y="-330"/>
      <point x="332" y="-434"/>
    </contour>
    <contour>
      <point x="831" y="556" type="curve" smooth="yes"/>
      <point x="831" y="327"/>
      <point x="749" y="197"/>
      <point x="600" y="197" type="curve" smooth="yes"/>
      <point x="451" y="197"/>
      <point x="377" y="315"/>
      <point x="377" y="550" type="curve" smooth="yes"/>
      <point x="377" y="790"/>
      <point x="452" y="910"/>
      <point x="602" y="910" type="curve" smooth="yes"/>
      <point x="749" y="910"/>
      <point x="831" y="779"/>
    </contour>
  </outline>
</glyph>
<glyph name="i" format="2">
  <advance width="569"/>
  <unicode hex="0069"/>
  <note>
i
</note>
  <outline>
    <contour>
      <point x="424" y="1484" type="line"/>
      <point x="143" y="1484" type="line"/>
      <point x="143" y="1277" type="line"/>
      <point x="424" y="1277" type="line"/>
    </contour>
    <contour>
      <point x="424" y="1082" type="line"/>
      <point x="143" y="1082" type="line"/>
      <point x="143" y="0" type="line"/>
      <point x="424" y="0" type="line"/>
    </contour>
  </outline>
</glyph>
<glyph name="j" format="2">
  <advance width="569"/>
  <unicode hex="006A"/>
  <note>
j
</note>
  <outline>
    <contour>
      <point x="425" y="1484" type="line"/>
      <point x="144" y="1484" type="line"/>
      <point x="144" y="1277" type="line"/>
      <point x="425" y="1277" type="line"/>
    </contour>
    <contour>
      <point x="138" y="-425" type="curve" smooth="yes"/>
      <point x="327" y="-425"/>
      <point x="425" y="-319"/>
      <point x="425" y="-128" type="curve" smooth="yes"/>
      <point x="425" y="1082" type="line"/>
      <point x="144" y="1082" type="line"/>
      <point x="144" y="-60" type="line" smooth="yes"/>
      <point x="144" y="-192"/>
      <point x="115" y="-222"/>
      <point x="19" y="-222" type="curve" smooth="yes"/>
      <point x="2" y="-222"/>
      <point x="-15" y="-220"/>
      <point x="-32" y="-218" type="curve"/>
      <point x="-32" y="-416" type="line"/>
      <point x="15" y="-422"/>
      <point x="71" y="-425"/>
    </contour>
  </outline>
</glyph>
<glyph name="l" format="2">
  <advance width="569"/>
  <unicode hex="006C"/>
  <note>
l
</note>
  <outline>
    <contour>
      <point x="424" y="1484" type="line"/>
      <point x="143" y="1484" type="line"/>
      <point x="143" y="0" type="line"/>
      <point x="424" y="0" type="line"/>
    </contour>
  </outline>
</glyph>
<glyph name="m" format="2">
  <advance width="1821"/>
  <unicode hex="006D"/>
  <note>
m
</note>
  <outline>
    <contour>
      <point x="424" y="580" type="line" smooth="yes"/>
      <point x="424" y="764"/>
      <point x="503" y="892"/>
      <point x="616" y="892" type="curve" smooth="yes"/>
      <point x="725" y="892"/>
      <point x="780" y="797"/>
      <point x="780" y="607" type="curve" smooth="yes"/>
      <point x="780" y="0" type="line"/>
      <point x="1059" y="0" type="line"/>
      <point x="1059" y="593" type="line" smooth="yes"/>
      <point x="1059" y="780"/>
      <point x="1142" y="892"/>
      <point x="1251" y="892" type="curve" smooth="yes"/>
      <point x="1360" y="892"/>
      <point x="1415" y="797"/>
      <point x="1415" y="607" type="curve" smooth="yes"/>
      <point x="1415" y="0" type="line"/>
      <point x="1694" y="0" type="line"/>
      <point x="1694" y="687" type="line" smooth="yes"/>
      <point x="1694" y="955"/>
      <point x="1581" y="1103"/>
      <point x="1370" y="1103" type="curve" smooth="yes"/>
      <point x="1211" y="1103"/>
      <point x="1115" y="1035"/>
      <point x="1042" y="867" type="curve"/>
      <point x="1036" y="867" type="line"/>
      <point x="1001" y="1024"/>
      <point x="900" y="1103"/>
      <point x="735" y="1103" type="curve" smooth="yes"/>
      <point x="591" y="1103"/>
      <point x="489" y="1032"/>
      <point x="420" y="867" type="curve"/>
      <point x="416" y="867" type="line"/>
      <point x="416" y="908"/>
      <point x="407" y="1057"/>
      <point x="403" y="1082" type="curve"/>
      <point x="135" y="1082" type="line"/>
      <point x="139" y="1023"/>
      <point x="143" y="956"/>
      <point x="143" y="840" type="curve" smooth="yes"/>
      <point x="143" y="0" type="line"/>
      <point x="424" y="0" type="line"/>
    </contour>
  </outline>
</glyph>
<glyph name="p" format="2">
  <advance width="1251"/>
  <unicode hex="0070"/>
  <note>
p
</note>
  <outline>
    <contour>
      <point x="1167" y="546" type="curve" smooth="yes"/>
      <point x="1167" y="903"/>
      <point x="1022" y="1105"/>
      <point x="770" y="1105" type="curve" smooth="yes"/>
      <point x="603" y="1105"/>
      <point x="487" y="1039"/>
      <point x="424" y="906" type="curve"/>
      <point x="420" y="906" type="line"/>
      <point x="420" y="975"/>
      <point x="415" y="1058"/>
      <point x="408" y="1082" type="curve"/>
      <point x="135" y="1082" type="line"/>
      <point x="140" y="1018"/>
      <point x="143" y="935"/>
      <point x="143" y="833" type="curve" smooth="yes"/>
      <point x="143" y="-425" type="line"/>
      <point x="424" y="-425" type="line"/>
      <point x="424" y="-10" type="line" smooth="yes"/>
      <point x="424" y="91"/>
      <point x="422" y="152"/>
      <point x="418" y="172" type="curve"/>
      <point x="424" y="172" type="line"/>
      <point x="484" y="48"/>
      <point x="600" y="-20"/>
      <point x="752" y="-20" type="curve" smooth="yes"/>
      <point x="1016" y="-20"/>
      <point x="1167" y="185"/>
    </contour>
    <contour>
      <point x="874" y="546" type="curve" smooth="yes"/>
      <point x="874" y="297"/>
      <point x="799" y="172"/>
      <point x="649" y="172" type="curve" smooth="yes"/>
      <point x="502" y="172"/>
      <point x="420" y="305"/>
      <point x="420" y="538" type="curve" smooth="yes"/>
      <point x="420" y="773"/>
      <point x="502" y="910"/>
      <point x="651" y="910" type="curve" smooth="yes"/>
      <point x="800" y="910"/>
      <point x="874" y="789"/>
    </contour>
  </outline>
</glyph>
<glyph name="q" format="2">
  <advance width="1251"/>
  <unicode hex="0071"/>
  <note>
q
</note>
  <outline>
    <contour>
      <point x="84" y="540" type="curve" smooth="yes"/>
      <point x="84" y="187"/>
      <point x="227" y="-20"/>
      <point x="479" y="-20" type="curve" smooth="yes"/>
      <point x="652" y="-20"/>
      <point x="770" y="47"/>
      <point x="832" y="180" type="curve"/>
      <point x="834" y="180" type="line"/>
      <point x="829" y="25" type="line"/>
      <point x="829" y="-425" type="line"/>
      <point x="1108" y="-425" type="line"/>
      <point x="1108" y="833" type="line" smooth="yes"/>
      <point x="1108" y="927"/>
      <point x="1110" y="1010"/>
      <point x="1114" y="1082" type="curve"/>
      <point x="844" y="1082" type="line"/>
      <point x="839" y="1062"/>
      <point x="829" y="969"/>
      <point x="829" y="908" type="curve"/>
      <point x="768" y="1038"/>
      <point x="659" y="1103"/>
      <point x="502" y="1103" type="curve" smooth="yes"/>
      <point x="237" y="1103"/>
      <point x="84" y="897"/>
    </contour>
    <contour>
      <point x="831" y="546" type="curve" smooth="yes"/>
      <point x="831" y="307"/>
      <point x="747" y="172"/>
      <point x="600" y="172" type="curve" smooth="yes"/>
      <point x="451" y="172"/>
      <point x="377" y="295"/>
      <point x="377" y="540" type="curve" smooth="yes"/>
      <point x="377" y="787"/>
      <point x="452" y="910"/>
      <point x="602" y="910" type="curve" smooth="yes"/>
      <point x="753" y="910"/>
      <point x="831" y="777"/>
    </contour>
  </outline>
</glyph>
<glyph name="s" format="2">
  <advance width="1139"/>
  <unicode hex="0073"/>
  <note>
s
</note>
  <outline>
    <contour>
      <point x="1055" y="316" type="curve" smooth="yes"/>
      <point x="1055" y="440"/>
      <point x="1004" y="515"/>
      <point x="925" y="566" type="curve" smooth="yes"/>
      <point x="845" y="617"/>
      <point x="710" y="650"/>
      <point x="541" y="685" type="curve" smooth="yes"/>
      <point x="420" y="709"/>
      <point x="373" y="742"/>
      <point x="373" y="805" type="curve" smooth="yes"/>
      <point x="373" y="885"/>
      <point x="440" y="916"/>
      <point x="573" y="916" type="curve" smooth="yes"/>
      <point x="709" y="916"/>
      <point x="765" y="873"/>
      <point x="781" y="785" type="curve"/>
      <point x="1030" y="811" type="line"/>
      <point x="991" y="1000"/>
      <point x="830" y="1103"/>
      <point x="573" y="1103" type="curve" smooth="yes"/>
      <point x="281" y="1103"/>
      <point x="115" y="982"/>
      <point x="115" y="775" type="curve" smooth="yes"/>
      <point x="115" y="650"/>
      <point x="174" y="566"/>
      <point x="285" y="512" type="curve" smooth="yes"/>
      <point x="340" y="485"/>
      <point x="447" y="455"/>
      <point x="606" y="424" type="curve" smooth="yes"/>
      <point x="745" y="396"/>
      <point x="797" y="359"/>
      <point x="797" y="290" type="curve" smooth="yes"/>
      <point x="797" y="205"/>
      <point x="728" y="166"/>
      <point x="571" y="166" type="curve" smooth="yes"/>
      <point x="400" y="166"/>
      <point x="347" y="204"/>
      <point x="319" y="307" type="curve"/>
      <point x="72" y="270" type="line"/>
      <point x="124" y="71"/>
      <point x="274" y="-20"/>
      <point x="571" y="-20" type="curve" smooth="yes"/>
      <point x="874" y="-20"/>
      <point x="1055" y="107"/>
    </contour>
  </outline>
</glyph>
<glyph name="t" format="2">
  <advance width="682"/>
  <unicode hex="0074"/>
  <note>
t
</note>
  <outline>
    <contour>
      <point x="657" y="16" type="curve"/>
      <point x="657" y="190" type="line"/>
      <point x="616" y="181"/>
      <point x="585" y="176"/>
      <point x="563" y="176" type="curve" smooth="yes"/>
      <point x="479" y="176"/>
      <point x="440" y="225"/>
      <point x="440" y="330" type="curve" smooth="yes"/>
      <point x="440" y="892" type="line"/>
      <point x="645" y="892" type="line"/>
      <point x="645" y="1082" type="line"/>
      <point x="440" y="1082" type="line"/>
      <point x="440" y="1336" type="line"/>
      <point x="264" y="1336" type="line"/>
      <point x="176" y="1082" type="line"/>
      <point x="25" y="1082" type="line"/>
      <point x="25" y="892" type="line"/>
      <point x="162" y="892" type="line"/>
      <point x="162" y="254" type="line" smooth="yes"/>
      <point x="162" y="71"/>
      <point x="255" y="-18"/>
      <point x="420" y="-18" type="curve" smooth="yes"/>
      <point x="509" y="-18"/>
      <point x="588" y="-7"/>
    </contour>
  </outline>
</glyph>
<glyph name="u" format="2">
  <advance width="1251"/>
  <unicode hex="0075"/>
  <note>
u
</note>
  <outline>
    <contour>
      <point x="831" y="215" type="curve"/>
      <point x="836" y="215" type="line"/>
      <point x="836" y="168"/>
      <point x="840" y="96"/>
      <point x="848" y="0" type="curve"/>
      <point x="1116" y="0" type="line"/>
      <point x="1111" y="69"/>
      <point x="1108" y="150"/>
      <point x="1108" y="242" type="curve" smooth="yes"/>
      <point x="1108" y="1082" type="line"/>
      <point x="827" y="1082" type="line"/>
      <point x="827" y="502" type="line" smooth="yes"/>
      <point x="827" y="319"/>
      <point x="736" y="190"/>
      <point x="600" y="190" type="curve" smooth="yes"/>
      <point x="472" y="190"/>
      <point x="408" y="285"/>
      <point x="408" y="475" type="curve" smooth="yes"/>
      <point x="408" y="1082" type="line"/>
      <point x="127" y="1082" type="line"/>
      <point x="127" y="395" type="line" smooth="yes"/>
      <point x="127" y="123"/>
      <point x="254" y="-20"/>
      <point x="483" y="-20" type="curve" smooth="yes"/>
      <point x="642" y="-20"/>
      <point x="756" y="51"/>
    </contour>
  </outline>
</glyph>
<glyph name="v" format="2">
  <advance width="1139"/>
  <unicode hex="0076"/>
  <note>
v
</note>
  <outline>
    <contour>
      <point x="1130" y="1082" type="line"/>
      <point x="836" y="1082" type="line"/>
      <point x="635" y="459" type="line" smooth="yes"/>
      <point x="613" y="390"/>
      <point x="572" y="254"/>
      <point x="565" y="227" type="curve"/>
      <point x="528" y="360"/>
      <point x="504" y="444"/>
      <point x="494" y="477" type="curve" smooth="yes"/>
      <point x="305" y="1082" type="line"/>
      <point x="8" y="1082" type="line"/>
      <point x="395" y="0" type="line"/>
      <point x="731" y="0" type="line"/>
    </contour>
  </outline>
</glyph>
<glyph name="w" format="2">
  <advance width="1593"/>
  <unicode hex="0077"/>
  <note>
w
</note>
  <outline>
    <contour>
      <point x="745" y="658" type="line" smooth="yes"/>
      <point x="765" y="732"/>
      <point x="780" y="807"/>
      <point x="797" y="882" type="curve"/>
      <point x="820" y="764"/>
      <point x="836" y="690"/>
      <point x="844" y="660" type="curve" smooth="yes"/>
      <point x="1016" y="0" type="line"/>
      <point x="1313" y="0" type="line"/>
      <point x="1597" y="1082" type="line"/>
      <point x="1337" y="1082" type="line"/>
      <point x="1195" y="446" type="line" smooth="yes"/>
      <point x="1181" y="382"/>
      <point x="1167" y="319"/>
      <point x="1153" y="255" type="curve"/>
      <point x="1135" y="348"/>
      <point x="1121" y="411"/>
      <point x="1112" y="446" type="curve" smooth="yes"/>
      <point x="946" y="1082" type="line"/>
      <point x="645" y="1082" type="line"/>
      <point x="475" y="446" type="line" smooth="yes"/>
      <point x="458" y="383"/>
      <point x="449" y="319"/>
      <point x="436" y="255" type="curve"/>
      <point x="423" y="317"/>
      <point x="409" y="380"/>
      <point x="396" y="442" type="curve" smooth="yes"/>
      <point x="258" y="1082" type="line"/>
      <point x="-6" y="1082" type="line"/>
      <point x="274" y="0" type="line"/>
      <point x="571" y="0" type="line"/>
    </contour>
  </outline>
</glyph>
<glyph name="x" format="2">
  <advance width="1139"/>
  <unicode hex="0078"/>
  <note>
x
</note>
  <outline>
    <contour>
      <point x="567" y="392" type="line"/>
      <point x="819" y="0" type="line"/>
      <point x="1124" y="0" type="line"/>
      <point x="725" y="562" type="line"/>
      <point x="1102" y="1082" type="line"/>
      <point x="797" y="1082" type="line"/>
      <point x="567" y="728" type="line"/>
      <point x="336" y="1082" type="line"/>
      <point x="33" y="1082" type="line"/>
      <point x="410" y="559" type="line"/>
      <point x="14" y="0" type="line"/>
      <point x="313" y="0" type="line"/>
    </contour>
  </outline>
</glyph>
<glyph name="y" format="2">
  <advance width="1139"/>
  <unicode hex="0079"/>
  <note>
y
</note>
  <outline>
    <contour>
      <point x="283" y="-425" type="curve" smooth="yes"/>
      <point x="414" y="-425"/>
      <point x="505" y="-384"/>
      <point x="586" y="-273" type="curve" smooth="yes"/>
      <point x="626" y="-219"/>
      <point x="665" y="-149"/>
      <point x="700" y="-57" type="curve" smooth="yes"/>
      <point x="1128" y="1082" type="line"/>
      <point x="834" y="1082" type="line"/>
      <point x="674" y="571" type="line" smooth="yes"/>
      <point x="640" y="462"/>
      <point x="614" y="364"/>
      <point x="584" y="241" type="curve"/>
      <point x="543" y="391"/>
      <point x="510" y="502"/>
      <point x="483" y="575" type="curve" smooth="yes"/>
      <point x="313" y="1082" type="line"/>
      <point x="16" y="1082" type="line"/>
      <point x="444" y="11" type="line"/>
      <point x="382" y="-156"/>
      <point x="334" y="-220"/>
      <point x="203" y="-220" type="curve" smooth="yes"/>
      <point x="174" y="-220"/>
      <point x="141" y="-217"/>
      <point x="106" y="-212" type="curve"/>
      <point x="106" y="-412" type="line"/>
      <point x="157" y="-421"/>
      <point x="216" y="-425"/>
    </contour>
  </outline>
</glyph>
<glyph name="z" format="2">
  <advance width="1024"/>
  <unicode hex="007A"/>
  <note>
z
</note>
  <outline>
    <contour>
      <point x="950" y="205" type="line"/>
      <point x="395" y="205" type="line"/>
      <point x="901" y="881" type="line"/>
      <point x="901" y="1082" type="line"/>
      <point x="123" y="1082" type="line"/>
      <point x="123" y="879" type="line"/>
      <point x="591" y="879" type="line"/>
      <point x="82" y="199" type="line"/>
      <point x="82" y="0" type="line"/>
      <point x="950" y="0" type="line"/>
    </contour>
  </outline>
</glyph>
<glyph name="braceleft" format="2">
  <advance width="797"/>
  <unicode hex="007B"/>
  <note>
braceleft
</note>
  <outline>
    <contour>
      <point x="557" y="-425" type="curve" smooth="yes"/>
      <point x="754" y="-425" type="line"/>
      <point x="754" y="-234" type="line"/>
      <point x="696" y="-234" type="line" smooth="yes"/>
      <point x="575" y="-234"/>
      <point x="524" y="-166"/>
      <point x="524" y="-25" type="curve" smooth="yes"/>
      <point x="524" y="276" type="line" smooth="yes"/>
      <point x="524" y="400"/>
      <point x="444" y="499"/>
      <point x="317" y="528" type="curve"/>
      <point x="317" y="532" type="line"/>
      <point x="440" y="557"/>
      <point x="524" y="657"/>
      <point x="524" y="784" type="curve" smooth="yes"/>
      <point x="524" y="1085" type="line" smooth="yes"/>
      <point x="524" y="1225"/>
      <point x="575" y="1294"/>
      <point x="696" y="1294" type="curve" smooth="yes"/>
      <point x="754" y="1294" type="line"/>
      <point x="754" y="1484" type="line"/>
      <point x="557" y="1484" type="line" smooth="yes"/>
      <point x="373" y="1484"/>
      <point x="262" y="1380"/>
      <point x="262" y="1185" type="curve" smooth="yes"/>
      <point x="262" y="857" type="line" smooth="yes"/>
      <point x="262" y="706"/>
      <point x="194" y="633"/>
      <point x="33" y="626" type="curve"/>
      <point x="33" y="431" type="line"/>
      <point x="192" y="428"/>
      <point x="262" y="354"/>
      <point x="262" y="202" type="curve" smooth="yes"/>
      <point x="262" y="-126" type="line" smooth="yes"/>
      <point x="262" y="-315"/>
      <point x="378" y="-425"/>
    </contour>
  </outline>
</glyph>
<glyph name="bar" format="2">
  <advance width="573"/>
  <unicode hex="007C"/>
  <note>
bar
</note>
  <outline>
    <contour>
      <point x="418" y="1484" type="line"/>
      <point x="156" y="1484" type="line"/>
      <point x="156" y="-455" type="line"/>
      <point x="418" y="-455" type="line"/>
    </contour>
  </outline>
</glyph>
<glyph name="braceright" format="2">
  <advance width="797"/>
  <unicode hex="007D"/>
  <note>
braceright
</note>
  <outline>
    <contour>
      <point x="43" y="-234" type="line"/>
      <point x="43" y="-425" type="line"/>
      <point x="240" y="-425" type="line" smooth="yes"/>
      <point x="420" y="-425"/>
      <point x="535" y="-314"/>
      <point x="535" y="-126" type="curve" smooth="yes"/>
      <point x="535" y="202" type="line" smooth="yes"/>
      <point x="535" y="350"/>
      <point x="605" y="428"/>
      <point x="766" y="431" type="curve"/>
      <point x="766" y="626" type="line"/>
      <point x="605" y="633"/>
      <point x="535" y="708"/>
      <point x="535" y="857" type="curve" smooth="yes"/>
      <point x="535" y="1185" type="line" smooth="yes"/>
      <point x="535" y="1380"/>
      <point x="424" y="1484"/>
      <point x="240" y="1484" type="curve" smooth="yes"/>
      <point x="43" y="1484" type="line"/>
      <point x="43" y="1294" type="line"/>
      <point x="100" y="1294" type="line" smooth="yes"/>
      <point x="224" y="1294"/>
      <point x="272" y="1225"/>
      <point x="272" y="1085" type="curve" smooth="yes"/>
      <point x="272" y="784" type="line" smooth="yes"/>
      <point x="272" y="656"/>
      <point x="358" y="557"/>
      <point x="479" y="532" type="curve"/>
      <point x="479" y="528" type="line"/>
      <point x="354" y="499"/>
      <point x="272" y="399"/>
      <point x="272" y="276" type="curve" smooth="yes"/>
      <point x="272" y="-25" type="line" smooth="yes"/>
      <point x="272" y="-166"/>
      <point x="224" y="-234"/>
      <point x="100" y="-234" type="curve" smooth="yes"/>
    </contour>
  </outline>
</glyph>
<glyph name="asciitilde" format="2">
  <advance width="1196"/>
  <unicode hex="007E"/>
  <note>
asciitilde
</note>
  <outline>
    <contour>
      <point x="852" y="516" type="curve" smooth="yes"/>
      <point x="967" y="516"/>
      <point x="1034" y="537"/>
      <point x="1119" y="596" type="curve"/>
      <point x="1119" y="815" type="line"/>
      <point x="1043" y="754"/>
      <point x="960" y="723"/>
      <point x="871" y="723" type="curve" smooth="yes"/>
      <point x="841" y="723"/>
      <point x="809" y="727"/>
      <point x="776" y="735" type="curve" smooth="yes"/>
      <point x="743" y="743"/>
      <point x="682" y="762"/>
      <point x="594" y="793" type="curve" smooth="yes"/>
      <point x="503" y="824"/>
      <point x="422" y="840"/>
      <point x="352" y="840" type="curve" smooth="yes"/>
      <point x="247" y="840"/>
      <point x="156" y="812"/>
      <point x="81" y="756" type="curve"/>
      <point x="81" y="543" type="line"/>
      <point x="168" y="603"/>
      <point x="241" y="631"/>
      <point x="336" y="631" type="curve" smooth="yes"/>
      <point x="393" y="631"/>
      <point x="467" y="615"/>
      <point x="557" y="584" type="curve" smooth="yes"/>
      <point x="657" y="549"/>
      <point x="752" y="516"/>
    </contour>
  </outline>
</glyph>
<glyph name="exclamdown" format="2">
  <advance width="682"/>
  <unicode hex="00A1"/>
  <note>
exclamdown
</note>
  <outline>
    <contour>
      <point x="488" y="1082" type="line"/>
      <point x="200" y="1082" type="line"/>
      <point x="200" y="812" type="line"/>
      <point x="488" y="812" type="line"/>
    </contour>
    <contour>
      <point x="194" y="-327" type="line"/>
      <point x="488" y="-327" type="line"/>
      <point x="456" y="654" type="line"/>
      <point x="226" y="654" type="line"/>
    </contour>
  </outline>
</glyph>
<glyph name="cent" format="2">
  <advance width="1139"/>
  <unicode hex="00A2"/>
  <note>
cent
</note>
  <outline>
    <contour>
      <point x="588" y="340" type="curve" smooth="yes"/>
      <point x="427" y="340"/>
      <point x="334" y="464"/>
      <point x="334" y="696" type="curve" smooth="yes"/>
      <point x="334" y="915"/>
      <point x="421" y="1044"/>
      <point x="586" y="1044" type="curve" smooth="yes"/>
      <point x="703" y="1044"/>
      <point x="781" y="975"/>
      <point x="801" y="854" type="curve"/>
      <point x="1083" y="868" type="line"/>
      <point x="1046" y="1069"/>
      <point x="893" y="1200"/>
      <point x="668" y="1225" type="curve"/>
      <point x="668" y="1409" type="line"/>
      <point x="506" y="1409" type="line"/>
      <point x="506" y="1225" type="line"/>
      <point x="213" y="1192"/>
      <point x="51" y="995"/>
      <point x="51" y="686" type="curve" smooth="yes"/>
      <point x="51" y="373"/>
      <point x="219" y="186"/>
      <point x="506" y="158" type="curve"/>
      <point x="506" y="-31" type="line"/>
      <point x="668" y="-31" type="line"/>
      <point x="668" y="160" type="line"/>
      <point x="905" y="188"/>
      <point x="1063" y="333"/>
      <point x="1092" y="537" type="curve"/>
      <point x="809" y="549" type="line"/>
      <point x="790" y="416"/>
      <point x="705" y="340"/>
    </contour>
  </outline>
</glyph>
<glyph name="currency" format="2">
  <advance width="1139"/>
  <unicode hex="00A4"/>
  <note>
currency
</note>
  <outline>
    <contour>
      <point x="134" y="684" type="curve" smooth="yes"/>
      <point x="134" y="604"/>
      <point x="153" y="531"/>
      <point x="192" y="465" type="curve"/>
      <point x="57" y="328" type="line"/>
      <point x="214" y="170" type="line"/>
      <point x="349" y="307" type="line"/>
      <point x="414" y="269"/>
      <point x="488" y="250"/>
      <point x="569" y="250" type="curve" smooth="yes"/>
      <point x="650" y="250"/>
      <point x="723" y="270"/>
      <point x="790" y="309" type="curve"/>
      <point x="923" y="174" type="line"/>
      <point x="1081" y="334" type="line"/>
      <point x="947" y="467" type="line"/>
      <point x="986" y="533"/>
      <point x="1005" y="605"/>
      <point x="1005" y="684" type="curve" smooth="yes"/>
      <point x="1005" y="764"/>
      <point x="985" y="837"/>
      <point x="945" y="903" type="curve"/>
      <point x="1081" y="1038" type="line"/>
      <point x="923" y="1196" type="line"/>
      <point x="788" y="1061" type="line"/>
      <point x="723" y="1100"/>
      <point x="650" y="1120"/>
      <point x="569" y="1120" type="curve" smooth="yes"/>
      <point x="490" y="1120"/>
      <point x="416" y="1100"/>
      <point x="349" y="1061" type="curve"/>
      <point x="218" y="1194" type="line"/>
      <point x="61" y="1038" type="line"/>
      <point x="194" y="905" type="line"/>
      <point x="154" y="838"/>
      <point x="134" y="764"/>
    </contour>
    <contour>
      <point x="360" y="686" type="curve" smooth="yes"/>
      <point x="360" y="802"/>
      <point x="454" y="895"/>
      <point x="569" y="895" type="curve" smooth="yes"/>
      <point x="684" y="895"/>
      <point x="777" y="801"/>
      <point x="777" y="686" type="curve" smooth="yes"/>
      <point x="777" y="573"/>
      <point x="682" y="477"/>
      <point x="569" y="477" type="curve" smooth="yes"/>
      <point x="453" y="477"/>
      <point x="360" y="571"/>
    </contour>
  </outline>
</glyph>
<glyph name="yen" format="2">
  <advance width="1139"/>
  <unicode hex="00A5"/>
  <note>
yen
</note>
  <outline>
    <contour>
      <point x="704" y="236" type="line"/>
      <point x="1042" y="236" type="line"/>
      <point x="1042" y="383" type="line"/>
      <point x="704" y="383" type="line"/>
      <point x="704" y="545" type="line"/>
      <point x="1042" y="545" type="line"/>
      <point x="1042" y="691" type="line"/>
      <point x="766" y="691" type="line"/>
      <point x="1130" y="1409" type="line"/>
      <point x="841" y="1409" type="line"/>
      <point x="567" y="813" type="line"/>
      <point x="297" y="1409" type="line"/>
      <point x="8" y="1409" type="line"/>
      <point x="372" y="691" type="line"/>
      <point x="96" y="691" type="line"/>
      <point x="96" y="545" type="line"/>
      <point x="434" y="545" type="line"/>
      <point x="432" y="383" type="line"/>
      <point x="96" y="383" type="line"/>
      <point x="96" y="236" type="line"/>
      <point x="432" y="236" type="line"/>
      <point x="432" y="0" type="line"/>
      <point x="704" y="0" type="line"/>
    </contour>
  </outline>
</glyph>
<glyph name="brokenbar" format="2">
  <advance width="573"/>
  <unicode hex="00A6"/>
  <note>
brokenbar
</note>
  <outline>
    <contour>
      <point x="418" y="1454" type="line"/>
      <point x="156" y="1454" type="line"/>
      <point x="156" y="676" type="line"/>
      <point x="418" y="676" type="line"/>
    </contour>
    <contour>
      <point x="418" y="324" type="line"/>
      <point x="156" y="324" type="line"/>
      <point x="156" y="-455" type="line"/>
      <point x="418" y="-455" type="line"/>
    </contour>
  </outline>
</glyph>
<glyph name="section" format="2">
  <advance width="1139"/>
  <unicode hex="00A7"/>
  <note>
section
</note>
  <outline>
    <contour>
      <point x="575" y="1427" type="curve"/>
      <point x="276" y="1427"/>
      <point x="116" y="1313"/>
      <point x="116" y="1114" type="curve" smooth="yes"/>
      <point x="116" y="1002"/>
      <point x="184" y="907"/>
      <point x="304" y="856" type="curve"/>
      <point x="167" y="809"/>
      <point x="91" y="724"/>
      <point x="91" y="600" type="curve" smooth="yes"/>
      <point x="91" y="451"/>
      <point x="193" y="348"/>
      <point x="468" y="283" type="curve" smooth="yes"/>
      <point x="591" y="254"/>
      <point x="670" y="232"/>
      <point x="705" y="217" type="curve" smooth="yes"/>
      <point x="773" y="187"/>
      <point x="804" y="150"/>
      <point x="804" y="86" type="curve" smooth="yes"/>
      <point x="804" y="-21"/>
      <point x="719" y="-59"/>
      <point x="556" y="-59" type="curve" smooth="yes"/>
      <point x="392" y="-59"/>
      <point x="317" y="-11"/>
      <point x="290" y="96" type="curve"/>
      <point x="53" y="59" type="line"/>
      <point x="105" y="-140"/>
      <point x="259" y="-229"/>
      <point x="556" y="-229" type="curve" smooth="yes"/>
      <point x="867" y="-229"/>
      <point x="1040" y="-108"/>
      <point x="1040" y="115" type="curve" smooth="yes"/>
      <point x="1040" y="233"/>
      <point x="980" y="318"/>
      <point x="859" y="371" type="curve"/>
      <point x="975" y="407"/>
      <point x="1056" y="510"/>
      <point x="1056" y="634" type="curve" smooth="yes"/>
      <point x="1056" y="750"/>
      <point x="998" y="829"/>
      <point x="891" y="884" type="curve" smooth="yes"/>
      <point x="837" y="911"/>
      <point x="754" y="938"/>
      <point x="642" y="963" type="curve" smooth="yes"/>
      <point x="555" y="982"/>
      <point x="495" y="999"/>
      <point x="462" y="1014" type="curve" smooth="yes"/>
      <point x="396" y="1042"/>
      <point x="358" y="1078"/>
      <point x="358" y="1133" type="curve" smooth="yes"/>
      <point x="358" y="1220"/>
      <point x="426" y="1257"/>
      <point x="575" y="1257" type="curve" smooth="yes"/>
      <point x="695" y="1257"/>
      <point x="775" y="1211"/>
      <point x="792" y="1128" type="curve"/>
      <point x="1031" y="1153" type="line"/>
      <point x="995" y="1330"/>
      <point x="834" y="1427"/>
    </contour>
    <contour>
      <point x="818" y="600" type="curve" smooth="yes"/>
      <point x="818" y="512"/>
      <point x="753" y="465"/>
      <point x="623" y="458" type="curve"/>
      <point x="532" y="479"/>
      <point x="470" y="496"/>
      <point x="437" y="510" type="curve" smooth="yes"/>
      <point x="370" y="538"/>
      <point x="333" y="572"/>
      <point x="333" y="627" type="curve" smooth="yes"/>
      <point x="333" y="714"/>
      <point x="397" y="765"/>
      <point x="526" y="780" type="curve"/>
      <point x="641" y="758"/>
      <point x="719" y="734"/>
      <point x="759" y="709" type="curve" smooth="yes"/>
      <point x="798" y="684"/>
      <point x="818" y="647"/>
    </contour>
  </outline>
</glyph>
<glyph name="dieresis" format="2">
  <advance width="682"/>
  <unicode hex="00A8"/>
  <note>
dieresis
</note>
  <outline>
    <contour>
      <point x="667" y="1418" type="line"/>
      <point x="450" y="1418" type="line"/>
      <point x="450" y="1199" type="line"/>
      <point x="667" y="1199" type="line"/>
    </contour>
    <contour>
      <point x="230" y="1418" type="line"/>
      <point x="16" y="1418" type="line"/>
      <point x="16" y="1199" type="line"/>
      <point x="230" y="1199" type="line"/>
    </contour>
  </outline>
</glyph>
<glyph name="copyright" format="2">
  <advance width="1509"/>
  <unicode hex="00A9"/>
  <note>
copyright
</note>
  <outline>
    <contour>
      <point x="1478" y="707" type="curve" smooth="yes"/>
      <point x="1478" y="966"/>
      <point x="1342" y="1203"/>
      <point x="1118" y="1333" type="curve" smooth="yes"/>
      <point x="1005" y="1398"/>
      <point x="884" y="1430"/>
      <point x="755" y="1430" type="curve" smooth="yes"/>
      <point x="498" y="1430"/>
      <point x="258" y="1292"/>
      <point x="129" y="1068" type="curve" smooth="yes"/>
      <point x="64" y="956"/>
      <point x="32" y="836"/>
      <point x="32" y="707" type="curve" smooth="yes"/>
      <point x="32" y="455"/>
      <point x="163" y="219"/>
      <point x="389" y="85" type="curve" smooth="yes"/>
      <point x="502" y="18"/>
      <point x="624" y="-16"/>
      <point x="755" y="-16" type="curve" smooth="yes"/>
      <point x="1012" y="-16"/>
      <point x="1253" y="121"/>
      <point x="1382" y="346" type="curve" smooth="yes"/>
      <point x="1446" y="458"/>
      <point x="1478" y="578"/>
    </contour>
    <contour>
      <point x="1366" y="707" type="curve" smooth="yes"/>
      <point x="1366" y="490"/>
      <point x="1250" y="287"/>
      <point x="1061" y="178" type="curve" smooth="yes"/>
      <point x="966" y="123"/>
      <point x="864" y="96"/>
      <point x="755" y="96" type="curve" smooth="yes"/>
      <point x="536" y="96"/>
      <point x="337" y="213"/>
      <point x="229" y="402" type="curve" smooth="yes"/>
      <point x="174" y="497"/>
      <point x="147" y="598"/>
      <point x="147" y="707" type="curve" smooth="yes"/>
      <point x="147" y="932"/>
      <point x="271" y="1133"/>
      <point x="458" y="1237" type="curve" smooth="yes"/>
      <point x="551" y="1289"/>
      <point x="650" y="1315"/>
      <point x="755" y="1315" type="curve" smooth="yes"/>
      <point x="972" y="1315"/>
      <point x="1175" y="1198"/>
      <point x="1284" y="1011" type="curve" smooth="yes"/>
      <point x="1339" y="917"/>
      <point x="1366" y="816"/>
    </contour>
    <contour>
      <point x="544" y="709" type="curve" smooth="yes"/>
      <point x="544" y="888"/>
      <point x="619" y="983"/>
      <point x="764" y="983" type="curve" smooth="yes"/>
      <point x="856" y="983"/>
      <point x="921" y="935"/>
      <point x="956" y="854" type="curve"/>
      <point x="1112" y="895" type="line"/>
      <point x="1048" y="1051"/>
      <point x="932" y="1124"/>
      <point x="759" y="1124" type="curve" smooth="yes"/>
      <point x="504" y="1124"/>
      <point x="364" y="980"/>
      <point x="364" y="709" type="curve" smooth="yes"/>
      <point x="364" y="440"/>
      <point x="511" y="285"/>
      <point x="768" y="285" type="curve" smooth="yes"/>
      <point x="933" y="285"/>
      <point x="1047" y="355"/>
      <point x="1124" y="522" type="curve"/>
      <point x="964" y="569" type="line"/>
      <point x="927" y="477"/>
      <point x="856" y="426"/>
      <point x="768" y="426" type="curve" smooth="yes"/>
      <point x="627" y="426"/>
      <point x="544" y="529"/>
    </contour>
  </outline>
</glyph>
<glyph name="ordfeminine" format="2">
  <advance width="758"/>
  <unicode hex="00AA"/>
  <note>
ordfeminine
</note>
  <outline>
    <contour>
      <point x="257" y="725" type="curve" smooth="yes"/>
      <point x="357" y="725"/>
      <point x="431" y="771"/>
      <point x="479" y="862" type="curve"/>
      <point x="482" y="862" type="line"/>
      <point x="489" y="781"/>
      <point x="544" y="728"/>
      <point x="639" y="728" type="curve" smooth="yes"/>
      <point x="675" y="728"/>
      <point x="715" y="734"/>
      <point x="758" y="746" type="curve"/>
      <point x="758" y="855" type="line"/>
      <point x="742" y="853"/>
      <point x="725" y="851"/>
      <point x="709" y="850" type="curve" smooth="yes"/>
      <point x="665" y="849"/>
      <point x="658" y="883"/>
      <point x="658" y="947" type="curve" smooth="yes"/>
      <point x="658" y="1184" type="line" smooth="yes"/>
      <point x="658" y="1335"/>
      <point x="555" y="1419"/>
      <point x="371" y="1419" type="curve" smooth="yes"/>
      <point x="203" y="1419"/>
      <point x="94" y="1347"/>
      <point x="70" y="1216" type="curve"/>
      <point x="260" y="1207" type="line"/>
      <point x="267" y="1270"/>
      <point x="304" y="1301"/>
      <point x="372" y="1301" type="curve" smooth="yes"/>
      <point x="441" y="1301"/>
      <point x="476" y="1261"/>
      <point x="476" y="1182" type="curve" smooth="yes"/>
      <point x="476" y="1140" type="line"/>
      <point x="329" y="1138" type="line" smooth="yes"/>
      <point x="140" y="1135"/>
      <point x="45" y="1064"/>
      <point x="45" y="927" type="curve" smooth="yes"/>
      <point x="45" y="798"/>
      <point x="128" y="725"/>
    </contour>
    <contour>
      <point x="328" y="856" type="curve" smooth="yes"/>
      <point x="265" y="856"/>
      <point x="234" y="884"/>
      <point x="234" y="941" type="curve" smooth="yes"/>
      <point x="234" y="1008"/>
      <point x="267" y="1038"/>
      <point x="384" y="1042" type="curve" smooth="yes"/>
      <point x="476" y="1044" type="line"/>
      <point x="476" y="1017" type="line" smooth="yes"/>
      <point x="476" y="930"/>
      <point x="409" y="856"/>
    </contour>
  </outline>
</glyph>
<glyph name="guillemotleft" format="2">
  <advance width="1139"/>
  <unicode hex="00AB"/>
  <note>
guillemotleft
</note>
  <outline>
    <contour>
      <point x="1047" y="176" type="line"/>
      <point x="791" y="537" type="line"/>
      <point x="1045" y="903" type="line"/>
      <point x="1045" y="940" type="line"/>
      <point x="807" y="940" type="line"/>
      <point x="551" y="573" type="line"/>
      <point x="551" y="502" type="line"/>
      <point x="807" y="141" type="line"/>
      <point x="1047" y="141" type="line"/>
    </contour>
    <contour>
      <point x="588" y="176" type="line"/>
      <point x="332" y="537" type="line"/>
      <point x="586" y="903" type="line"/>
      <point x="586" y="940" type="line"/>
      <point x="350" y="940" type="line"/>
      <point x="92" y="573" type="line"/>
      <point x="92" y="502" type="line"/>
      <point x="350" y="141" type="line"/>
      <point x="588" y="141" type="line"/>
    </contour>
  </outline>
</glyph>
<glyph name="logicalnot" format="2">
  <advance width="1196"/>
  <unicode hex="00AC"/>
  <note>
logicalnot
</note>
  <outline>
    <contour>
      <point x="1111" y="793" type="line"/>
      <point x="84" y="793" type="line"/>
      <point x="84" y="569" type="line"/>
      <point x="887" y="569" type="line"/>
      <point x="887" y="141" type="line"/>
      <point x="1111" y="141" type="line"/>
    </contour>
  </outline>
</glyph>
<glyph name="registered" format="2">
  <advance width="1509"/>
  <unicode hex="00AE"/>
  <note>
registered
</note>
  <outline>
    <contour>
      <point x="1478" y="707" type="curve" smooth="yes"/>
      <point x="1478" y="966"/>
      <point x="1342" y="1203"/>
      <point x="1118" y="1333" type="curve" smooth="yes"/>
      <point x="1005" y="1398"/>
      <point x="884" y="1430"/>
      <point x="755" y="1430" type="curve" smooth="yes"/>
      <point x="498" y="1430"/>
      <point x="258" y="1292"/>
      <point x="129" y="1068" type="curve" smooth="yes"/>
      <point x="64" y="956"/>
      <point x="32" y="836"/>
      <point x="32" y="707" type="curve" smooth="yes"/>
      <point x="32" y="455"/>
      <point x="163" y="219"/>
      <point x="389" y="85" type="curve" smooth="yes"/>
      <point x="502" y="18"/>
      <point x="624" y="-16"/>
      <point x="755" y="-16" type="curve" smooth="yes"/>
      <point x="1012" y="-16"/>
      <point x="1253" y="121"/>
      <point x="1382" y="346" type="curve" smooth="yes"/>
      <point x="1446" y="458"/>
      <point x="1478" y="578"/>
    </contour>
    <contour>
      <point x="1366" y="707" type="curve" smooth="yes"/>
      <point x="1366" y="490"/>
      <point x="1250" y="287"/>
      <point x="1061" y="178" type="curve" smooth="yes"/>
      <point x="966" y="123"/>
      <point x="864" y="96"/>
      <point x="755" y="96" type="curve" smooth="yes"/>
      <point x="536" y="96"/>
      <point x="337" y="213"/>
      <point x="229" y="402" type="curve" smooth="yes"/>
      <point x="174" y="497"/>
      <point x="147" y="598"/>
      <point x="147" y="707" type="curve" smooth="yes"/>
      <point x="147" y="932"/>
      <point x="271" y="1133"/>
      <point x="458" y="1237" type="curve" smooth="yes"/>
      <point x="551" y="1289"/>
      <point x="650" y="1315"/>
      <point x="755" y="1315" type="curve" smooth="yes"/>
      <point x="972" y="1315"/>
      <point x="1175" y="1198"/>
      <point x="1284" y="1011" type="curve" smooth="yes"/>
      <point x="1339" y="917"/>
      <point x="1366" y="816"/>
    </contour>
    <contour>
      <point x="628" y="610" type="line"/>
      <point x="745" y="610" type="line"/>
      <point x="923" y="297" type="line"/>
      <point x="1124" y="297" type="line"/>
      <point x="911" y="633" type="line"/>
      <point x="1015" y="666"/>
      <point x="1085" y="745"/>
      <point x="1085" y="870" type="curve" smooth="yes"/>
      <point x="1085" y="1021"/>
      <point x="984" y="1112"/>
      <point x="780" y="1112" type="curve" smooth="yes"/>
      <point x="450" y="1112" type="line"/>
      <point x="450" y="297" type="line"/>
      <point x="628" y="297" type="line"/>
    </contour>
    <contour>
      <point x="905" y="868" type="curve" smooth="yes"/>
      <point x="905" y="791"/>
      <point x="860" y="739"/>
      <point x="772" y="739" type="curve" smooth="yes"/>
      <point x="628" y="739" type="line"/>
      <point x="628" y="985" type="line"/>
      <point x="761" y="985" type="line" smooth="yes"/>
      <point x="853" y="985"/>
      <point x="905" y="944"/>
    </contour>
  </outline>
</glyph>
<glyph name="degree" format="2">
  <advance width="819"/>
  <unicode hex="00B0"/>
  <note>
degree
</note>
  <outline>
    <contour>
      <point x="731" y="1113" type="curve" smooth="yes"/>
      <point x="731" y="1286"/>
      <point x="590" y="1425"/>
      <point x="410" y="1425" type="curve" smooth="yes"/>
      <point x="233" y="1425"/>
      <point x="90" y="1283"/>
      <point x="90" y="1110" type="curve" smooth="yes"/>
      <point x="90" y="933"/>
      <point x="234" y="795"/>
      <point x="410" y="795" type="curve" smooth="yes"/>
      <point x="589" y="795"/>
      <point x="731" y="940"/>
    </contour>
    <contour>
      <point x="573" y="1110" type="curve" smooth="yes"/>
      <point x="573" y="1017"/>
      <point x="499" y="942"/>
      <point x="410" y="942" type="curve" smooth="yes"/>
      <point x="319" y="942"/>
      <point x="244" y="1018"/>
      <point x="244" y="1110" type="curve" smooth="yes"/>
      <point x="244" y="1202"/>
      <point x="315" y="1276"/>
      <point x="410" y="1276" type="curve" smooth="yes"/>
      <point x="503" y="1276"/>
      <point x="573" y="1203"/>
    </contour>
  </outline>
</glyph>
<glyph name="plusminus" format="2">
  <advance width="1124"/>
  <unicode hex="00B1"/>
  <note>
plusminus
</note>
  <outline>
    <contour>
      <point x="674" y="707" type="line"/>
      <point x="1076" y="707" type="line"/>
      <point x="1076" y="930" type="line"/>
      <point x="674" y="930" type="line"/>
      <point x="674" y="1270" type="line"/>
      <point x="450" y="1270" type="line"/>
      <point x="450" y="930" type="line"/>
      <point x="49" y="930" type="line"/>
      <point x="49" y="707" type="line"/>
      <point x="450" y="707" type="line"/>
      <point x="450" y="366" type="line"/>
      <point x="674" y="366" type="line"/>
    </contour>
    <contour>
      <point x="1076" y="223" type="line"/>
      <point x="49" y="223" type="line"/>
      <point x="49" y="0" type="line"/>
      <point x="1076" y="0" type="line"/>
    </contour>
  </outline>
</glyph>
<glyph name="twosuperior" format="2">
  <advance width="682"/>
  <unicode hex="00B2"/>
  <note>
twosuperior
</note>
  <outline>
    <contour>
      <point x="639" y="832" type="line"/>
      <point x="277" y="832" type="line"/>
      <point x="288" y="854"/>
      <point x="306" y="875"/>
      <point x="332" y="896" type="curve" smooth="yes"/>
      <point x="357" y="917"/>
      <point x="404" y="949"/>
      <point x="473" y="993" type="curve" smooth="yes"/>
      <point x="575" y="1058"/>
      <point x="626" y="1133"/>
      <point x="626" y="1216" type="curve" smooth="yes"/>
      <point x="626" y="1348"/>
      <point x="522" y="1426"/>
      <point x="347" y="1426" type="curve" smooth="yes"/>
      <point x="182" y="1426"/>
      <point x="75" y="1338"/>
      <point x="58" y="1206" type="curve"/>
      <point x="252" y="1201" type="line"/>
      <point x="259" y="1266"/>
      <point x="290" y="1299"/>
      <point x="347" y="1299" type="curve" smooth="yes"/>
      <point x="401" y="1299"/>
      <point x="428" y="1269"/>
      <point x="428" y="1208" type="curve" smooth="yes"/>
      <point x="428" y="1155"/>
      <point x="392" y="1114"/>
      <point x="277" y="1040" type="curve" smooth="yes"/>
      <point x="156" y="961"/>
      <point x="90" y="896"/>
      <point x="51" y="815" type="curve"/>
      <point x="53" y="694" type="line"/>
      <point x="639" y="694" type="line"/>
    </contour>
  </outline>
</glyph>
<glyph name="threesuperior" format="2">
  <advance width="682"/>
  <unicode hex="00B3"/>
  <note>
threesuperior
</note>
  <outline>
    <contour>
      <point x="638" y="895" type="curve" smooth="yes"/>
      <point x="638" y="987"/>
      <point x="578" y="1053"/>
      <point x="467" y="1065" type="curve"/>
      <point x="467" y="1067" type="line"/>
      <point x="572" y="1088"/>
      <point x="619" y="1153"/>
      <point x="619" y="1238" type="curve" smooth="yes"/>
      <point x="619" y="1351"/>
      <point x="519" y="1426"/>
      <point x="348" y="1426" type="curve" smooth="yes"/>
      <point x="181" y="1426"/>
      <point x="74" y="1347"/>
      <point x="59" y="1222" type="curve"/>
      <point x="245" y="1210" type="line"/>
      <point x="252" y="1269"/>
      <point x="284" y="1299"/>
      <point x="343" y="1299" type="curve" smooth="yes"/>
      <point x="400" y="1299"/>
      <point x="432" y="1268"/>
      <point x="432" y="1216" type="curve" smooth="yes"/>
      <point x="432" y="1159"/>
      <point x="389" y="1126"/>
      <point x="305" y="1126" type="curve" smooth="yes"/>
      <point x="254" y="1126" type="line"/>
      <point x="254" y="1000" type="line"/>
      <point x="310" y="1000" type="line" smooth="yes"/>
      <point x="403" y="1000"/>
      <point x="449" y="969"/>
      <point x="449" y="907" type="curve" smooth="yes"/>
      <point x="449" y="843"/>
      <point x="415" y="811"/>
      <point x="347" y="811" type="curve" smooth="yes"/>
      <point x="278" y="811"/>
      <point x="240" y="842"/>
      <point x="233" y="904" type="curve"/>
      <point x="44" y="892" type="line"/>
      <point x="61" y="753"/>
      <point x="170" y="684"/>
      <point x="350" y="684" type="curve" smooth="yes"/>
      <point x="534" y="684"/>
      <point x="638" y="763"/>
    </contour>
  </outline>
</glyph>
<glyph name="acute" format="2">
  <advance width="682"/>
  <unicode hex="00B4"/>
  <note>
acute
</note>
  <outline>
    <contour>
      <point x="597" y="1459" type="line"/>
      <point x="597" y="1502" type="line"/>
      <point x="339" y="1502" type="line"/>
      <point x="87" y="1214" type="line"/>
      <point x="87" y="1183" type="line"/>
      <point x="257" y="1183" type="line"/>
    </contour>
  </outline>
</glyph>
<glyph name="mu1" format="2">
  <advance width="1229"/>
  <unicode hex="00B5"/>
  <note>
mu1
</note>
  <outline>
    <contour>
      <point x="134" y="-426" type="line"/>
      <point x="415" y="-426" type="line"/>
      <point x="415" y="70" type="line"/>
      <point x="446" y="14"/>
      <point x="502" y="-20"/>
      <point x="571" y="-20" type="curve" smooth="yes"/>
      <point x="676" y="-20"/>
      <point x="751" y="29"/>
      <point x="795" y="178" type="curve"/>
      <point x="801" y="178" type="line"/>
      <point x="814" y="43"/>
      <point x="877" y="-12"/>
      <point x="1018" y="-12" type="curve" smooth="yes"/>
      <point x="1090" y="-12"/>
      <point x="1129" y="-3"/>
      <point x="1198" y="14" type="curve"/>
      <point x="1198" y="166" type="line"/>
      <point x="1178" y="162"/>
      <point x="1157" y="160"/>
      <point x="1136" y="160" type="curve" smooth="yes"/>
      <point x="1072" y="160"/>
      <point x="1047" y="199"/>
      <point x="1047" y="320" type="curve" smooth="yes"/>
      <point x="1049" y="1082" type="line"/>
      <point x="768" y="1082" type="line"/>
      <point x="768" y="504" type="line" smooth="yes"/>
      <point x="768" y="292"/>
      <point x="709" y="193"/>
      <point x="590" y="193" type="curve" smooth="yes"/>
      <point x="470" y="193"/>
      <point x="415" y="277"/>
      <point x="415" y="477" type="curve" smooth="yes"/>
      <point x="415" y="1082" type="line"/>
      <point x="134" y="1082" type="line"/>
    </contour>
  </outline>
</glyph>
<glyph name="paragraph" format="2">
  <advance width="1139"/>
  <unicode hex="00B6"/>
  <note>
paragraph
</note>
  <outline>
    <contour>
      <point x="589" y="1266" type="line"/>
      <point x="784" y="1266" type="line"/>
      <point x="784" y="-264" type="line"/>
      <point x="940" y="-264" type="line"/>
      <point x="940" y="1266" type="line"/>
      <point x="1071" y="1266" type="line"/>
      <point x="1071" y="1409" type="line"/>
      <point x="442" y="1409" type="line" smooth="yes"/>
      <point x="210" y="1409"/>
      <point x="71" y="1274"/>
      <point x="71" y="1049" type="curve" smooth="yes"/>
      <point x="71" y="822"/>
      <point x="209" y="694"/>
      <point x="434" y="694" type="curve"/>
      <point x="434" y="-264" type="line"/>
      <point x="589" y="-264" type="line"/>
    </contour>
  </outline>
</glyph>
<glyph name="middot" format="2">
  <advance width="682"/>
  <unicode hex="00B7"/>
  <note>
middot
</note>
  <outline>
    <contour>
      <point x="429" y="836" type="line"/>
      <point x="141" y="836" type="line"/>
      <point x="141" y="531" type="line"/>
      <point x="429" y="531" type="line"/>
    </contour>
  </outline>
</glyph>
<glyph name="cedilla" format="2">
  <advance width="682"/>
  <unicode hex="00B8"/>
  <note>
cedilla
</note>
  <outline>
    <contour>
      <point x="500" y="-235" type="curve" smooth="yes"/>
      <point x="500" y="-147"/>
      <point x="440" y="-89"/>
      <point x="315" y="-82" type="curve"/>
      <point x="348" y="0" type="line"/>
      <point x="205" y="0" type="line"/>
      <point x="143" y="-172" type="line"/>
      <point x="152" y="-171"/>
      <point x="170" y="-170"/>
      <point x="195" y="-170" type="curve" smooth="yes"/>
      <point x="283" y="-170"/>
      <point x="317" y="-192"/>
      <point x="317" y="-239" type="curve" smooth="yes"/>
      <point x="317" y="-285"/>
      <point x="271" y="-308"/>
      <point x="180" y="-308" type="curve" smooth="yes"/>
      <point x="147" y="-308"/>
      <point x="119" y="-306"/>
      <point x="96" y="-301" type="curve"/>
      <point x="96" y="-419" type="line"/>
      <point x="133" y="-423"/>
      <point x="167" y="-425"/>
      <point x="197" y="-425" type="curve" smooth="yes"/>
      <point x="393" y="-425"/>
      <point x="500" y="-360"/>
    </contour>
  </outline>
</glyph>
<glyph name="onesuperior" format="2">
  <advance width="682"/>
  <unicode hex="00B9"/>
  <note>
onesuperior
</note>
  <outline>
    <contour>
      <point x="618" y="815" type="line"/>
      <point x="448" y="815" type="line"/>
      <point x="448" y="1414" type="line"/>
      <point x="273" y="1414" type="line"/>
      <point x="93" y="1297" type="line"/>
      <point x="93" y="1175" type="line"/>
      <point x="266" y="1283" type="line"/>
      <point x="266" y="815" type="line"/>
      <point x="82" y="815" type="line"/>
      <point x="82" y="694" type="line"/>
      <point x="618" y="694" type="line"/>
    </contour>
  </outline>
</glyph>
<glyph name="ordmasculine" format="2">
  <advance width="748"/>
  <unicode hex="00BA"/>
  <note>
ordmasculine
</note>
  <outline>
    <contour>
      <point x="713" y="1073" type="curve" smooth="yes"/>
      <point x="713" y="1297"/>
      <point x="592" y="1419"/>
      <point x="379" y="1419" type="curve" smooth="yes"/>
      <point x="168" y="1419"/>
      <point x="45" y="1289"/>
      <point x="45" y="1073" type="curve" smooth="yes"/>
      <point x="45" y="854"/>
      <point x="172" y="725"/>
      <point x="375" y="725" type="curve" smooth="yes"/>
      <point x="587" y="725"/>
      <point x="713" y="857"/>
    </contour>
    <contour>
      <point x="513" y="1073" type="curve" smooth="yes"/>
      <point x="513" y="930"/>
      <point x="474" y="865"/>
      <point x="374" y="865" type="curve" smooth="yes"/>
      <point x="285" y="865"/>
      <point x="243" y="932"/>
      <point x="243" y="1073" type="curve" smooth="yes"/>
      <point x="243" y="1212"/>
      <point x="284" y="1276"/>
      <point x="381" y="1276" type="curve" smooth="yes"/>
      <point x="478" y="1276"/>
      <point x="513" y="1214"/>
    </contour>
  </outline>
</glyph>
<glyph name="guillemotright" format="2">
  <advance width="1139"/>
  <unicode hex="00BB"/>
  <note>
guillemotright
</note>
  <outline>
    <contour>
      <point x="790" y="141" type="line"/>
      <point x="1048" y="502" type="line"/>
      <point x="1048" y="573" type="line"/>
      <point x="790" y="940" type="line"/>
      <point x="554" y="940" type="line"/>
      <point x="554" y="903" type="line"/>
      <point x="808" y="537" type="line"/>
      <point x="552" y="176" type="line"/>
      <point x="552" y="141" type="line"/>
    </contour>
    <contour>
      <point x="333" y="141" type="line"/>
      <point x="589" y="502" type="line"/>
      <point x="589" y="573" type="line"/>
      <point x="333" y="940" type="line"/>
      <point x="95" y="940" type="line"/>
      <point x="95" y="903" type="line"/>
      <point x="349" y="537" type="line"/>
      <point x="93" y="176" type="line"/>
      <point x="93" y="141" type="line"/>
    </contour>
  </outline>
</glyph>
<glyph name="questiondown" format="2">
  <advance width="1251"/>
  <unicode hex="00BF"/>
  <note>
questiondown
</note>
  <outline>
    <contour>
      <point x="809" y="1082" type="line"/>
      <point x="520" y="1082" type="line"/>
      <point x="520" y="812" type="line"/>
      <point x="809" y="812" type="line"/>
    </contour>
    <contour>
      <point x="114" y="56" type="curve" smooth="yes"/>
      <point x="114" y="-196"/>
      <point x="306" y="-348"/>
      <point x="622" y="-348" type="curve" smooth="yes"/>
      <point x="921" y="-348"/>
      <point x="1117" y="-190"/>
      <point x="1153" y="81" type="curve"/>
      <point x="868" y="93" type="line"/>
      <point x="852" y="-36"/>
      <point x="753" y="-122"/>
      <point x="618" y="-122" type="curve" smooth="yes"/>
      <point x="477" y="-122"/>
      <point x="397" y="-49"/>
      <point x="397" y="68" type="curve" smooth="yes"/>
      <point x="397" y="161"/>
      <point x="449" y="225"/>
      <point x="592" y="325" type="curve" smooth="yes"/>
      <point x="724" y="416"/>
      <point x="793" y="520"/>
      <point x="801" y="656" type="curve"/>
      <point x="534" y="656" type="line"/>
      <point x="530" y="576"/>
      <point x="486" y="512"/>
      <point x="397" y="447" type="curve" smooth="yes"/>
      <point x="320" y="392" type="line" smooth="yes"/>
      <point x="161" y="279"/>
      <point x="114" y="185"/>
    </contour>
  </outline>
</glyph>
<glyph name="AE" format="2">
  <advance width="2048"/>
  <unicode hex="00C6"/>
  <note>
AE
</note>
  <outline>
    <contour>
      <point x="481" y="360" type="line"/>
      <point x="931" y="360" type="line"/>
      <point x="931" y="0" type="line"/>
      <point x="1968" y="0" type="line"/>
      <point x="1968" y="227" type="line"/>
      <point x="1226" y="227" type="line"/>
      <point x="1226" y="606" type="line"/>
      <point x="1865" y="606" type="line"/>
      <point x="1865" y="827" type="line"/>
      <point x="1226" y="827" type="line"/>
      <point x="1226" y="1182" type="line"/>
      <point x="1927" y="1182" type="line"/>
      <point x="1927" y="1409" type="line"/>
      <point x="704" y="1409" type="line"/>
      <point x="4" y="0" type="line"/>
      <point x="309" y="0" type="line"/>
    </contour>
    <contour>
      <point x="583" y="582" type="line"/>
      <point x="870" y="1192" type="line"/>
      <point x="931" y="1192" type="line"/>
      <point x="931" y="582" type="line"/>
    </contour>
  </outline>
</glyph>
<glyph name="Eth" format="2">
  <advance width="1479"/>
  <unicode hex="00D0"/>
  <note>
Eth
</note>
  <outline>
    <contour>
      <point x="1393" y="715" type="curve" smooth="yes"/>
      <point x="1393" y="1162"/>
      <point x="1122" y="1409"/>
      <point x="647" y="1409" type="curve" smooth="yes"/>
      <point x="137" y="1409" type="line"/>
      <point x="137" y="813" type="line"/>
      <point x="8" y="813" type="line"/>
      <point x="8" y="594" type="line"/>
      <point x="137" y="594" type="line"/>
      <point x="137" y="0" type="line"/>
      <point x="707" y="0" type="line" smooth="yes"/>
      <point x="1111" y="0"/>
      <point x="1393" y="265"/>
    </contour>
    <contour>
      <point x="1096" y="715" type="curve" smooth="yes"/>
      <point x="1096" y="415"/>
      <point x="937" y="231"/>
      <point x="682" y="231" type="curve" smooth="yes"/>
      <point x="432" y="231" type="line"/>
      <point x="432" y="594" type="line"/>
      <point x="788" y="594" type="line"/>
      <point x="788" y="813" type="line"/>
      <point x="432" y="813" type="line"/>
      <point x="432" y="1178" type="line"/>
      <point x="641" y="1178" type="line" smooth="yes"/>
      <point x="936" y="1178"/>
      <point x="1096" y="1015"/>
    </contour>
  </outline>
</glyph>
<glyph name="multiply" format="2">
  <advance width="1196"/>
  <unicode hex="00D7"/>
  <note>
multiply
</note>
  <outline>
    <contour>
      <point x="600" y="526" type="line"/>
      <point x="952" y="172" type="line"/>
      <point x="1110" y="332" type="line"/>
      <point x="758" y="682" type="line"/>
      <point x="1110" y="1036" type="line"/>
      <point x="952" y="1194" type="line"/>
      <point x="600" y="842" type="line"/>
      <point x="248" y="1192" type="line"/>
      <point x="90" y="1036" type="line"/>
      <point x="442" y="684" type="line"/>
      <point x="86" y="326" type="line"/>
      <point x="244" y="168" type="line"/>
    </contour>
  </outline>
</glyph>
<glyph name="Oslash" format="2">
  <advance width="1593"/>
  <unicode hex="00D8"/>
  <note>
Oslash
</note>
  <outline>
    <contour>
      <point x="1508" y="711" type="curve" smooth="yes"/>
      <point x="1508" y="951"/>
      <point x="1431" y="1145"/>
      <point x="1282" y="1270" type="curve"/>
      <point x="1424" y="1473" type="line"/>
      <point x="1231" y="1473" type="line"/>
      <point x="1149" y="1356" type="line"/>
      <point x="1045" y="1405"/>
      <point x="927" y="1430"/>
      <point x="795" y="1430" type="curve" smooth="yes"/>
      <point x="348" y="1430"/>
      <point x="84" y="1163"/>
      <point x="84" y="711" type="curve" smooth="yes"/>
      <point x="84" y="465"/>
      <point x="156" y="276"/>
      <point x="301" y="145" type="curve"/>
      <point x="147" y="-73" type="line"/>
      <point x="342" y="-72" type="line"/>
      <point x="433" y="57" type="line"/>
      <point x="532" y="6"/>
      <point x="652" y="-20"/>
      <point x="793" y="-20" type="curve" smooth="yes"/>
      <point x="1228" y="-20"/>
      <point x="1508" y="269"/>
    </contour>
    <contour>
      <point x="381" y="711" type="curve" smooth="yes"/>
      <point x="381" y="1018"/>
      <point x="531" y="1198"/>
      <point x="795" y="1198" type="curve" smooth="yes"/>
      <point x="873" y="1198"/>
      <point x="943" y="1181"/>
      <point x="1004" y="1147" type="curve"/>
      <point x="465" y="379" type="line"/>
      <point x="409" y="464"/>
      <point x="381" y="574"/>
    </contour>
    <contour>
      <point x="1207" y="711" type="curve" smooth="yes"/>
      <point x="1207" y="392"/>
      <point x="1058" y="211"/>
      <point x="793" y="211" type="curve" smooth="yes"/>
      <point x="712" y="211"/>
      <point x="641" y="229"/>
      <point x="580" y="266" type="curve"/>
      <point x="1121" y="1038" type="line"/>
      <point x="1178" y="955"/>
      <point x="1207" y="846"/>
    </contour>
  </outline>
</glyph>
<glyph name="Thorn" format="2">
  <advance width="1366"/>
  <unicode hex="00DE"/>
  <note>
Thorn
</note>
  <outline>
    <contour>
      <point x="1296" y="737" type="curve" smooth="yes"/>
      <point x="1296" y="1020"/>
      <point x="1109" y="1176"/>
      <point x="770" y="1176" type="curve" smooth="yes"/>
      <point x="432" y="1176" type="line"/>
      <point x="432" y="1409" type="line"/>
      <point x="137" y="1409" type="line"/>
      <point x="137" y="0" type="line"/>
      <point x="432" y="0" type="line"/>
      <point x="432" y="283" type="line"/>
      <point x="782" y="283" type="line" smooth="yes"/>
      <point x="1102" y="283"/>
      <point x="1296" y="470"/>
    </contour>
    <contour>
      <point x="999" y="733" type="curve" smooth="yes"/>
      <point x="999" y="581"/>
      <point x="906" y="492"/>
      <point x="745" y="492" type="curve" smooth="yes"/>
      <point x="432" y="492" type="line"/>
      <point x="432" y="967" type="line"/>
      <point x="737" y="967" type="line" smooth="yes"/>
      <point x="912" y="967"/>
      <point x="999" y="880"/>
    </contour>
  </outline>
</glyph>
<glyph name="germandbls" format="2">
  <advance width="1251"/>
  <unicode hex="00DF"/>
  <note>
germandbls
</note>
  <outline>
    <contour>
      <point x="1193" y="312" type="curve" smooth="yes"/>
      <point x="1193" y="433"/>
      <point x="1137" y="535"/>
      <point x="1025" y="618" type="curve" smooth="yes"/>
      <point x="853" y="745"/>
      <point x="857" y="749"/>
      <point x="857" y="782" type="curve" smooth="yes"/>
      <point x="857" y="822"/>
      <point x="922" y="871"/>
      <point x="970" y="915" type="curve" smooth="yes"/>
      <point x="1028" y="969"/>
      <point x="1082" y="1040"/>
      <point x="1082" y="1149" type="curve" smooth="yes"/>
      <point x="1082" y="1356"/>
      <point x="913" y="1484"/>
      <point x="638" y="1484" type="curve" smooth="yes"/>
      <point x="318" y="1484"/>
      <point x="143" y="1319"/>
      <point x="143" y="1007" type="curve" smooth="yes"/>
      <point x="143" y="0" type="line"/>
      <point x="424" y="0" type="line"/>
      <point x="424" y="1013" type="line" smooth="yes"/>
      <point x="424" y="1201"/>
      <point x="498" y="1281"/>
      <point x="635" y="1281" type="curve" smooth="yes"/>
      <point x="752" y="1281"/>
      <point x="816" y="1225"/>
      <point x="816" y="1138" type="curve" smooth="yes"/>
      <point x="816" y="1078"/>
      <point x="786" y="1030"/>
      <point x="705" y="958" type="curve" smooth="yes"/>
      <point x="629" y="891"/>
      <point x="593" y="832"/>
      <point x="593" y="760" type="curve" smooth="yes"/>
      <point x="593" y="658"/>
      <point x="649" y="571"/>
      <point x="762" y="498" type="curve" smooth="yes"/>
      <point x="886" y="417"/>
      <point x="931" y="365"/>
      <point x="931" y="296" type="curve" smooth="yes"/>
      <point x="931" y="220"/>
      <point x="884" y="170"/>
      <point x="776" y="170" type="curve" smooth="yes"/>
      <point x="713" y="170"/>
      <point x="611" y="198"/>
      <point x="544" y="229" type="curve"/>
      <point x="544" y="23" type="line"/>
      <point x="621" y="-6"/>
      <point x="709" y="-20"/>
      <point x="806" y="-20" type="curve" smooth="yes"/>
      <point x="1054" y="-20"/>
      <point x="1193" y="96"/>
    </contour>
  </outline>
</glyph>
<glyph name="ae" format="2">
  <advance width="1821"/>
  <unicode hex="00E6"/>
  <note>
ae
</note>
  <outline>
    <contour>
      <point x="1720" y="274" type="curve"/>
      <point x="1455" y="297" type="line"/>
      <point x="1429" y="211"/>
      <point x="1366" y="168"/>
      <point x="1267" y="168" type="curve" smooth="yes"/>
      <point x="1124" y="168"/>
      <point x="1042" y="281"/>
      <point x="1042" y="476" type="curve"/>
      <point x="1736" y="476" type="line"/>
      <point x="1736" y="495" type="line" smooth="yes"/>
      <point x="1736" y="892"/>
      <point x="1568" y="1102"/>
      <point x="1257" y="1102" type="curve" smooth="yes"/>
      <point x="1118" y="1102"/>
      <point x="1006" y="1066"/>
      <point x="919" y="995" type="curve"/>
      <point x="842" y="1066"/>
      <point x="731" y="1102"/>
      <point x="586" y="1102" type="curve" smooth="yes"/>
      <point x="309" y="1102"/>
      <point x="150" y="990"/>
      <point x="115" y="781" type="curve"/>
      <point x="408" y="767" type="line"/>
      <point x="420" y="872"/>
      <point x="465" y="920"/>
      <point x="578" y="920" type="curve" smooth="yes"/>
      <point x="695" y="920"/>
      <point x="746" y="855"/>
      <point x="746" y="711" type="curve" smooth="yes"/>
      <point x="746" y="656" type="line"/>
      <point x="506" y="652" type="line" smooth="yes"/>
      <point x="215" y="645"/>
      <point x="66" y="527"/>
      <point x="66" y="306" type="curve" smooth="yes"/>
      <point x="66" y="101"/>
      <point x="191" y="-20"/>
      <point x="406" y="-20" type="curve" smooth="yes"/>
      <point x="593" y="-20"/>
      <point x="730" y="56"/>
      <point x="819" y="209" type="curve"/>
      <point x="902" y="56"/>
      <point x="1046" y="-20"/>
      <point x="1253" y="-20" type="curve" smooth="yes"/>
      <point x="1488" y="-20"/>
      <point x="1643" y="78"/>
    </contour>
    <contour>
      <point x="1464" y="663" type="curve"/>
      <point x="1044" y="663" type="line"/>
      <point x="1048" y="828"/>
      <point x="1121" y="925"/>
      <point x="1253" y="925" type="curve" smooth="yes"/>
      <point x="1377.0" y="925.0"/>
      <point x="1453" y="838"/>
    </contour>
    <contour>
      <point x="359" y="328" type="curve" smooth="yes"/>
      <point x="359" y="408"/>
      <point x="390" y="454"/>
      <point x="447" y="478" type="curve" smooth="yes"/>
      <point x="476" y="489"/>
      <point x="525" y="496"/>
      <point x="594" y="499" type="curve" smooth="yes"/>
      <point x="746" y="501" type="line"/>
      <point x="746" y="456" type="line" smooth="yes"/>
      <point x="746" y="360"/>
      <point x="700" y="267"/>
      <point x="623" y="215" type="curve" smooth="yes"/>
      <point x="584" y="189"/>
      <point x="542" y="176"/>
      <point x="496" y="176" type="curve" smooth="yes"/>
      <point x="413" y="176"/>
      <point x="359" y="225"/>
    </contour>
  </outline>
</glyph>
<glyph name="divide" format="2">
  <advance width="1124"/>
  <unicode hex="00F7"/>
  <note>
divide
</note>
  <outline>
    <contour>
      <point x="680" y="1194" type="line"/>
      <point x="442" y="1194" type="line"/>
      <point x="442" y="961" type="line"/>
      <point x="680" y="961" type="line"/>
    </contour>
    <contour>
      <point x="1076" y="793" type="line"/>
      <point x="49" y="793" type="line"/>
      <point x="49" y="569" type="line"/>
      <point x="1076" y="569" type="line"/>
    </contour>
    <contour>
      <point x="680" y="403" type="line"/>
      <point x="442" y="403" type="line"/>
      <point x="442" y="170" type="line"/>
      <point x="680" y="170" type="line"/>
    </contour>
  </outline>
</glyph>
<glyph name="oslash" format="2">
  <advance width="1251"/>
  <unicode hex="00F8"/>
  <note>
oslash
</note>
  <outline>
    <contour>
      <point x="1171" y="542" type="curve" smooth="yes"/>
      <point x="1171" y="704"/>
      <point x="1133" y="832"/>
      <point x="1058" y="927" type="curve"/>
      <point x="1242" y="1133" type="line"/>
      <point x="1058" y="1133" type="line"/>
      <point x="957" y="1019" type="line"/>
      <point x="870" y="1074"/>
      <point x="760" y="1102"/>
      <point x="627" y="1102" type="curve" smooth="yes"/>
      <point x="282" y="1102"/>
      <point x="80" y="890"/>
      <point x="80" y="542" type="curve" smooth="yes"/>
      <point x="80" y="385"/>
      <point x="119" y="257"/>
      <point x="198" y="160" type="curve"/>
      <point x="1" y="-55" type="line"/>
      <point x="184" y="-55" type="line"/>
      <point x="297" y="69" type="line"/>
      <point x="385" y="10"/>
      <point x="493" y="-20"/>
      <point x="621" y="-20" type="curve" smooth="yes"/>
      <point x="965" y="-20"/>
      <point x="1171" y="191"/>
    </contour>
    <contour>
      <point x="375" y="542" type="curve" smooth="yes"/>
      <point x="375" y="787"/>
      <point x="460" y="909"/>
      <point x="631" y="909" type="curve" smooth="yes"/>
      <point x="703" y="909"/>
      <point x="759" y="886"/>
      <point x="799" y="840" type="curve"/>
      <point x="392" y="379" type="line"/>
      <point x="381" y="426"/>
      <point x="375" y="481"/>
    </contour>
    <contour>
      <point x="877" y="542" type="curve" smooth="yes"/>
      <point x="877" y="295"/>
      <point x="791" y="172"/>
      <point x="618" y="172" type="curve" smooth="yes"/>
      <point x="550" y="172"/>
      <point x="495" y="196"/>
      <point x="454" y="244" type="curve"/>
      <point x="861" y="704" type="line"/>
      <point x="872" y="659"/>
      <point x="877" y="605"/>
    </contour>
  </outline>
</glyph>
<glyph name="thorn" format="2">
  <advance width="1251"/>
  <unicode hex="00FE"/>
  <note>
thorn
</note>
  <outline>
    <contour>
      <point x="424" y="-10" type="line" smooth="yes"/>
      <point x="424" y="91"/>
      <point x="422" y="152"/>
      <point x="418" y="172" type="curve"/>
      <point x="424" y="172" type="line"/>
      <point x="484" y="48"/>
      <point x="600" y="-20"/>
      <point x="752" y="-20" type="curve" smooth="yes"/>
      <point x="1016" y="-20"/>
      <point x="1167" y="177"/>
      <point x="1167" y="520" type="curve" smooth="yes"/>
      <point x="1167" y="856"/>
      <point x="1025" y="1053"/>
      <point x="770" y="1053" type="curve" smooth="yes"/>
      <point x="603" y="1053"/>
      <point x="487" y="987"/>
      <point x="424" y="854" type="curve"/>
      <point x="420" y="854" type="line"/>
      <point x="421" y="910"/>
      <point x="424" y="966"/>
      <point x="424" y="1022" type="curve" smooth="yes"/>
      <point x="424" y="1484" type="line"/>
      <point x="143" y="1484" type="line"/>
      <point x="143" y="-425" type="line"/>
      <point x="424" y="-425" type="line"/>
    </contour>
    <contour>
      <point x="874" y="520" type="curve" smooth="yes"/>
      <point x="874" y="288"/>
      <point x="799" y="172"/>
      <point x="649" y="172" type="curve" smooth="yes"/>
      <point x="502" y="172"/>
      <point x="420" y="295"/>
      <point x="420" y="512" type="curve" smooth="yes"/>
      <point x="420" y="729"/>
      <point x="500" y="858"/>
      <point x="651" y="858" type="curve" smooth="yes"/>
      <point x="800" y="858"/>
      <point x="874" y="749"/>
    </contour>
  </outline>
</glyph>
<glyph name="dcroat" format="2">
  <advance width="1251"/>
  <unicode hex="0111"/>
  <note>
dcroat
</note>
  <outline>
    <contour>
      <point x="827" y="1345" type="line"/>
      <point x="541" y="1345" type="line"/>
      <point x="541" y="1175" type="line"/>
      <point x="827" y="1175" type="line"/>
      <point x="827" y="1049" type="line"/>
      <point x="829" y="871" type="line"/>
      <point x="827" y="871" type="line"/>
      <point x="767" y="998"/>
      <point x="653" y="1062"/>
      <point x="500" y="1062" type="curve" smooth="yes"/>
      <point x="233" y="1062"/>
      <point x="84" y="868"/>
      <point x="84" y="521" type="curve" smooth="yes"/>
      <point x="84" y="177"/>
      <point x="228" y="-20"/>
      <point x="479" y="-20" type="curve" smooth="yes"/>
      <point x="650" y="-20"/>
      <point x="765" y="45"/>
      <point x="826" y="176" type="curve"/>
      <point x="830" y="176" type="line"/>
      <point x="830" y="123"/>
      <point x="840" y="20"/>
      <point x="845" y="0" type="curve"/>
      <point x="1117" y="0" type="line"/>
      <point x="1112" y="91"/>
      <point x="1109" y="169"/>
      <point x="1109" y="236" type="curve" smooth="yes"/>
      <point x="1109" y="1175" type="line"/>
      <point x="1241" y="1175" type="line"/>
      <point x="1241" y="1345" type="line"/>
      <point x="1109" y="1345" type="line"/>
      <point x="1109" y="1484" type="line"/>
      <point x="827" y="1484" type="line"/>
    </contour>
    <contour>
      <point x="377" y="522" type="curve" smooth="yes"/>
      <point x="377" y="765"/>
      <point x="449" y="874"/>
      <point x="600" y="874" type="curve" smooth="yes"/>
      <point x="753" y="874"/>
      <point x="831" y="752"/>
      <point x="831" y="529" type="curve" smooth="yes"/>
      <point x="831" y="302"/>
      <point x="749" y="172"/>
      <point x="598" y="172" type="curve" smooth="yes"/>
      <point x="451" y="172"/>
      <point x="377" y="289"/>
    </contour>
  </outline>
</glyph>
<glyph name="Hbar" format="2">
  <advance width="1479"/>
  <unicode hex="0126"/>
  <note>
Hbar
</note>
  <outline>
    <contour>
      <point x="432" y="604" type="line"/>
      <point x="1057" y="604" type="line"/>
      <point x="1057" y="0" type="line"/>
      <point x="1341" y="0" type="line"/>
      <point x="1341" y="1045" type="line"/>
      <point x="1465" y="1045" type="line"/>
      <point x="1465" y="1215" type="line"/>
      <point x="1341" y="1215" type="line"/>
      <point x="1341" y="1409" type="line"/>
      <point x="1057" y="1409" type="line"/>
      <point x="1057" y="1215" type="line"/>
      <point x="432" y="1215" type="line"/>
      <point x="432" y="1409" type="line"/>
      <point x="137" y="1409" type="line"/>
      <point x="137" y="1215" type="line"/>
      <point x="14" y="1215" type="line"/>
      <point x="14" y="1045" type="line"/>
      <point x="137" y="1045" type="line"/>
      <point x="137" y="0" type="line"/>
      <point x="432" y="0" type="line"/>
    </contour>
    <contour>
      <point x="432" y="848" type="line"/>
      <point x="432" y="1045" type="line"/>
      <point x="1057" y="1045" type="line"/>
      <point x="1057" y="848" type="line"/>
    </contour>
  </outline>
</glyph>
<glyph name="hbar" format="2">
  <advance width="1251"/>
  <unicode hex="0127"/>
  <note>
hbar
</note>
  <outline>
    <contour>
      <point x="420" y="826" type="curve"/>
      <point x="416" y="826" type="line"/>
      <point x="421" y="895"/>
      <point x="424" y="966"/>
      <point x="424" y="1039" type="curve" smooth="yes"/>
      <point x="424" y="1175" type="line"/>
      <point x="730" y="1175" type="line"/>
      <point x="730" y="1345" type="line"/>
      <point x="424" y="1345" type="line"/>
      <point x="424" y="1484" type="line"/>
      <point x="143" y="1484" type="line"/>
      <point x="143" y="1345" type="line"/>
      <point x="10" y="1345" type="line"/>
      <point x="10" y="1175" type="line"/>
      <point x="143" y="1175" type="line"/>
      <point x="143" y="0" type="line"/>
      <point x="424" y="0" type="line"/>
      <point x="424" y="539" type="line" smooth="yes"/>
      <point x="424" y="722"/>
      <point x="515" y="851"/>
      <point x="651" y="851" type="curve" smooth="yes"/>
      <point x="780" y="851"/>
      <point x="844" y="756"/>
      <point x="844" y="566" type="curve" smooth="yes"/>
      <point x="844" y="0" type="line"/>
      <point x="1124" y="0" type="line"/>
      <point x="1124" y="646" type="line" smooth="yes"/>
      <point x="1124" y="918"/>
      <point x="997" y="1062"/>
      <point x="768" y="1062" type="curve" smooth="yes"/>
      <point x="609" y="1062"/>
      <point x="496" y="991"/>
    </contour>
  </outline>
</glyph>
<glyph name="dotlessi" format="2">
  <advance width="569"/>
  <unicode hex="0131"/>
  <note>
dotlessi
</note>
  <outline>
    <contour>
      <point x="426" y="1082" type="line"/>
      <point x="145" y="1082" type="line"/>
      <point x="145" y="0" type="line"/>
      <point x="426" y="0" type="line"/>
    </contour>
  </outline>
</glyph>
<glyph name="jcircumflex" format="2">
  <advance width="569"/>
  <unicode hex="0135"/>
  <note>
jcircumflex
</note>
  <outline>
    <contour>
      <point x="281" y="1375" type="line"/>
      <point x="285" y="1375" type="line"/>
      <point x="488" y="1183" type="line"/>
      <point x="647" y="1183" type="line"/>
      <point x="647" y="1211" type="line"/>
      <point x="397" y="1529" type="line"/>
      <point x="168" y="1529" type="line"/>
      <point x="-90" y="1211" type="line"/>
      <point x="-90" y="1183" type="line"/>
      <point x="70" y="1183" type="line"/>
    </contour>
    <contour>
      <point x="138" y="-425" type="curve" smooth="yes"/>
      <point x="327" y="-425"/>
      <point x="425" y="-319"/>
      <point x="425" y="-128" type="curve" smooth="yes"/>
      <point x="425" y="1082" type="line"/>
      <point x="144" y="1082" type="line"/>
      <point x="144" y="-60" type="line" smooth="yes"/>
      <point x="144" y="-192"/>
      <point x="115" y="-222"/>
      <point x="19" y="-222" type="curve"/>
      <point x="-32" y="-218" type="line"/>
      <point x="-32" y="-416" type="line"/>
      <point x="15" y="-422"/>
      <point x="71" y="-425"/>
    </contour>
  </outline>
</glyph>
<glyph name="Lslash" format="2">
  <advance width="1251"/>
  <unicode hex="0141"/>
  <note>
Lslash
</note>
  <outline>
    <contour>
      <point x="136" y="0" type="line"/>
      <point x="1188" y="0" type="line"/>
      <point x="1188" y="231" type="line"/>
      <point x="432" y="231" type="line"/>
      <point x="432" y="627" type="line"/>
      <point x="739" y="774" type="line"/>
      <point x="739" y="997" type="line"/>
      <point x="432" y="850" type="line"/>
      <point x="432" y="1409" type="line"/>
      <point x="137" y="1409" type="line"/>
      <point x="137" y="709" type="line"/>
      <point x="0" y="643" type="line"/>
      <point x="0" y="418" type="line"/>
      <point x="137" y="483" type="line"/>
    </contour>
  </outline>
</glyph>
<glyph name="lslash" format="2">
  <advance width="569"/>
  <unicode hex="0142"/>
  <note>
lslash
</note>
  <outline>
    <contour>
      <point x="143" y="0" type="line"/>
      <point x="424" y="0" type="line"/>
      <point x="424" y="717" type="line"/>
      <point x="553" y="793" type="line"/>
      <point x="553" y="1006" type="line"/>
      <point x="424" y="932" type="line"/>
      <point x="424" y="1484" type="line"/>
      <point x="143" y="1484" type="line"/>
      <point x="143" y="776" type="line"/>
      <point x="18" y="707" type="line"/>
      <point x="18" y="492" type="line"/>
      <point x="143" y="561" type="line"/>
    </contour>
  </outline>
</glyph>
<glyph name="Eng" format="2">
  <advance width="1481"/>
  <unicode hex="014A"/>
  <note>
Eng
</note>
  <outline>
    <contour>
      <point x="904" y="-20" type="curve" smooth="yes"/>
      <point x="1216" y="-20"/>
      <point x="1355" y="142"/>
      <point x="1355" y="542" type="curve" smooth="yes"/>
      <point x="1355" y="889" type="line" smooth="yes"/>
      <point x="1355" y="1265"/>
      <point x="1225" y="1429"/>
      <point x="914" y="1429" type="curve" smooth="yes"/>
      <point x="706" y="1429"/>
      <point x="524" y="1327"/>
      <point x="436" y="1158" type="curve"/>
      <point x="432" y="1158" type="line"/>
      <point x="432" y="1245"/>
      <point x="428" y="1328"/>
      <point x="421" y="1409" type="curve"/>
      <point x="133" y="1409" type="line"/>
      <point x="137" y="1092" type="line"/>
      <point x="137" y="0" type="line"/>
      <point x="432" y="0" type="line"/>
      <point x="432" y="839" type="line" smooth="yes"/>
      <point x="432" y="966"/>
      <point x="503" y="1086"/>
      <point x="616" y="1151" type="curve" smooth="yes"/>
      <point x="673" y="1184"/>
      <point x="733" y="1200"/>
      <point x="798" y="1200" type="curve" smooth="yes"/>
      <point x="991" y="1200"/>
      <point x="1071" y="1096"/>
      <point x="1071" y="848" type="curve" smooth="yes"/>
      <point x="1071" y="553" type="line" smooth="yes"/>
      <point x="1071" y="460"/>
      <point x="1066" y="390"/>
      <point x="1055" y="345" type="curve" smooth="yes"/>
      <point x="1034" y="254"/>
      <point x="986" y="212"/>
      <point x="902" y="212" type="curve" smooth="yes"/>
      <point x="839" y="212"/>
      <point x="790" y="238"/>
      <point x="721" y="329" type="curve"/>
      <point x="519" y="158" type="line"/>
      <point x="618" y="26"/>
      <point x="728" y="-20"/>
    </contour>
  </outline>
</glyph>
<glyph name="eng" format="2">
  <advance width="1251"/>
  <unicode hex="014B"/>
  <note>
eng
</note>
  <outline>
    <contour>
      <point x="837" y="-425" type="curve" smooth="yes"/>
      <point x="1026" y="-425"/>
      <point x="1124" y="-319"/>
      <point x="1124" y="-128" type="curve" smooth="yes"/>
      <point x="1124" y="687" type="line" smooth="yes"/>
      <point x="1124" y="959"/>
      <point x="997" y="1103"/>
      <point x="768" y="1103" type="curve" smooth="yes"/>
      <point x="609" y="1103"/>
      <point x="496" y="1032"/>
      <point x="420" y="867" type="curve"/>
      <point x="416" y="867" type="line"/>
      <point x="416" y="908"/>
      <point x="407" y="1057"/>
      <point x="403" y="1082" type="curve"/>
      <point x="135" y="1082" type="line"/>
      <point x="139" y="1023"/>
      <point x="143" y="956"/>
      <point x="143" y="840" type="curve" smooth="yes"/>
      <point x="143" y="0" type="line"/>
      <point x="424" y="0" type="line"/>
      <point x="424" y="580" type="line" smooth="yes"/>
      <point x="424" y="763"/>
      <point x="515" y="892"/>
      <point x="651" y="892" type="curve" smooth="yes"/>
      <point x="780" y="892"/>
      <point x="844" y="797"/>
      <point x="844" y="607" type="curve" smooth="yes"/>
      <point x="844" y="-60" type="line" smooth="yes"/>
      <point x="844" y="-189"/>
      <point x="817" y="-222"/>
      <point x="718" y="-222" type="curve"/>
      <point x="667" y="-218" type="line"/>
      <point x="667" y="-416" type="line"/>
      <point x="714" y="-422"/>
      <point x="770" y="-425"/>
    </contour>
  </outline>
</glyph>
<glyph name="OE" format="2">
  <advance width="2048"/>
  <unicode hex="0152"/>
  <note>
OE
</note>
  <outline>
    <contour>
      <point x="992" y="0" type="curve"/>
      <point x="1968" y="0" type="line"/>
      <point x="1968" y="227" type="line"/>
      <point x="1260" y="227" type="line"/>
      <point x="1260" y="606" type="line"/>
      <point x="1866" y="606" type="line"/>
      <point x="1866" y="827" type="line"/>
      <point x="1260" y="827" type="line"/>
      <point x="1260" y="1182" type="line"/>
      <point x="1927" y="1182" type="line"/>
      <point x="1927" y="1409" type="line"/>
      <point x="998" y="1409" type="line"/>
      <point x="910" y="1416"/>
      <point x="842" y="1420"/>
      <point x="795" y="1420" type="curve" smooth="yes"/>
      <point x="347" y="1420"/>
      <point x="84" y="1162"/>
      <point x="84" y="711" type="curve" smooth="yes"/>
      <point x="84" y="260"/>
      <point x="348" y="-10"/>
      <point x="793" y="-10" type="curve" smooth="yes"/>
      <point x="864" y="-10"/>
      <point x="941" y="-3"/>
    </contour>
    <contour>
      <point x="963" y="1169" type="curve"/>
      <point x="963" y="242" type="line"/>
      <point x="927" y="229"/>
      <point x="870" y="222"/>
      <point x="793" y="222" type="curve" smooth="yes"/>
      <point x="536" y="222"/>
      <point x="381" y="406"/>
      <point x="381" y="711" type="curve" smooth="yes"/>
      <point x="381" y="1015"/>
      <point x="528" y="1188"/>
      <point x="795" y="1188" type="curve" smooth="yes"/>
      <point x="860" y="1188"/>
      <point x="916" y="1182"/>
    </contour>
  </outline>
</glyph>
<glyph name="oe" format="2">
  <advance width="1933"/>
  <unicode hex="0153"/>
  <note>
oe
</note>
  <outline>
    <contour>
      <point x="1173" y="476" type="curve"/>
      <point x="1867" y="476" type="line"/>
      <point x="1867" y="495" type="line" smooth="yes"/>
      <point x="1867" y="892"/>
      <point x="1699" y="1102"/>
      <point x="1388" y="1102" type="curve" smooth="yes"/>
      <point x="1233" y="1102"/>
      <point x="1110" y="1051"/>
      <point x="1021" y="949" type="curve"/>
      <point x="929" y="1051"/>
      <point x="798" y="1102"/>
      <point x="627" y="1102" type="curve" smooth="yes"/>
      <point x="282" y="1102"/>
      <point x="80" y="890"/>
      <point x="80" y="542" type="curve" smooth="yes"/>
      <point x="80" y="193"/>
      <point x="284" y="-20"/>
      <point x="621" y="-20" type="curve" smooth="yes"/>
      <point x="788" y="-20"/>
      <point x="919" y="33"/>
      <point x="1015" y="139" type="curve"/>
      <point x="1102" y="33"/>
      <point x="1225" y="-20"/>
      <point x="1384" y="-20" type="curve" smooth="yes"/>
      <point x="1619" y="-20"/>
      <point x="1774" y="78"/>
      <point x="1851" y="274" type="curve"/>
      <point x="1586" y="297" type="line"/>
      <point x="1560" y="211"/>
      <point x="1497" y="168"/>
      <point x="1398" y="168" type="curve" smooth="yes"/>
      <point x="1255" y="168"/>
      <point x="1173" y="281"/>
    </contour>
    <contour>
      <point x="877" y="542" type="curve" smooth="yes"/>
      <point x="877" y="295"/>
      <point x="791" y="172"/>
      <point x="618" y="172" type="curve" smooth="yes"/>
      <point x="461" y="172"/>
      <point x="375" y="301"/>
      <point x="375" y="542" type="curve" smooth="yes"/>
      <point x="375" y="787"/>
      <point x="460" y="909"/>
      <point x="631" y="909" type="curve" smooth="yes"/>
      <point x="791" y="909"/>
      <point x="877" y="799"/>
    </contour>
    <contour>
      <point x="1384" y="925" type="curve" smooth="yes"/>
      <point x="1508" y="925"/>
      <point x="1584" y="838"/>
      <point x="1595" y="663" type="curve"/>
      <point x="1175" y="663" type="line"/>
      <point x="1179" y="828"/>
      <point x="1252" y="925"/>
    </contour>
  </outline>
</glyph>
<glyph name="Tbar" format="2">
  <advance width="1251"/>
  <unicode hex="0166"/>
  <note>
Tbar
</note>
  <outline>
    <contour>
      <point x="773" y="626" type="line"/>
      <point x="1001" y="626" type="line"/>
      <point x="1001" y="816" type="line"/>
      <point x="773" y="816" type="line"/>
      <point x="773" y="1181" type="line"/>
      <point x="1229" y="1181" type="line"/>
      <point x="1229" y="1409" type="line"/>
      <point x="23" y="1409" type="line"/>
      <point x="23" y="1181" type="line"/>
      <point x="478" y="1181" type="line"/>
      <point x="478" y="816" type="line"/>
      <point x="251" y="816" type="line"/>
      <point x="251" y="626" type="line"/>
      <point x="478" y="626" type="line"/>
      <point x="478" y="0" type="line"/>
      <point x="773" y="0" type="line"/>
    </contour>
  </outline>
</glyph>
<glyph name="longs" format="2">
  <advance width="569"/>
  <unicode hex="017F"/>
  <note>
longs
</note>
  <outline>
    <contour>
      <point x="422" y="1167" type="line" smooth="yes"/>
      <point x="422" y="1263"/>
      <point x="457" y="1296"/>
      <point x="553" y="1296" type="curve" smooth="yes"/>
      <point x="580" y="1296"/>
      <point x="608" y="1293"/>
      <point x="635" y="1287" type="curve"/>
      <point x="635" y="1468" type="line"/>
      <point x="569" y="1479"/>
      <point x="510" y="1484"/>
      <point x="457" y="1484" type="curve" smooth="yes"/>
      <point x="245" y="1484"/>
      <point x="142" y="1391"/>
      <point x="142" y="1195" type="curve" smooth="yes"/>
      <point x="142" y="0" type="line"/>
      <point x="422" y="0" type="line"/>
    </contour>
  </outline>
</glyph>
<glyph name="uni0180" format="2">
  <advance width="1251"/>
  <unicode hex="0180"/>
  <note>
uni0180
</note>
  <outline>
    <contour>
      <point x="1167" y="525" type="curve" smooth="yes"/>
      <point x="1167" y="874"/>
      <point x="1029" y="1062"/>
      <point x="770" y="1062" type="curve" smooth="yes"/>
      <point x="603" y="1062"/>
      <point x="487" y="993"/>
      <point x="424" y="854" type="curve"/>
      <point x="420" y="854" type="line"/>
      <point x="421" y="913"/>
      <point x="424.0" y="971"/>
      <point x="424" y="1030" type="curve" smooth="yes"/>
      <point x="424" y="1175" type="line"/>
      <point x="734" y="1175" type="line"/>
      <point x="734" y="1345" type="line"/>
      <point x="424" y="1345" type="line"/>
      <point x="424" y="1484" type="line"/>
      <point x="143" y="1484" type="line"/>
      <point x="143" y="1345" type="line"/>
      <point x="10" y="1345" type="line"/>
      <point x="10" y="1175" type="line"/>
      <point x="143" y="1175" type="line"/>
      <point x="143" y="247" type="line" smooth="yes"/>
      <point x="143" y="144"/>
      <point x="140" y="62"/>
      <point x="135" y="0" type="curve"/>
      <point x="408" y="0" type="line"/>
      <point x="415" y="23"/>
      <point x="422" y="127"/>
      <point x="422" y="174" type="curve"/>
      <point x="424" y="174" type="line"/>
      <point x="481" y="50"/>
      <point x="597" y="-20"/>
      <point x="752" y="-20" type="curve" smooth="yes"/>
      <point x="1021" y="-20"/>
      <point x="1167" y="173"/>
    </contour>
    <contour>
      <point x="874" y="525" type="curve" smooth="yes"/>
      <point x="874" y="284"/>
      <point x="806" y="172"/>
      <point x="651" y="172" type="curve" smooth="yes"/>
      <point x="491" y="172"/>
      <point x="420" y="293"/>
      <point x="420" y="516" type="curve" smooth="yes"/>
      <point x="420" y="745"/>
      <point x="493" y="867"/>
      <point x="653" y="867" type="curve" smooth="yes"/>
      <point x="806" y="867"/>
      <point x="874" y="762"/>
    </contour>
  </outline>
</glyph>
<glyph name="uni0181" format="2">
  <advance width="1713"/>
  <unicode hex="0181"/>
  <note>
uni0181
</note>
  <outline>
    <contour>
      <point x="1623" y="402" type="curve" smooth="yes"/>
      <point x="1623" y="594"/>
      <point x="1501" y="714"/>
      <point x="1273" y="741" type="curve"/>
      <point x="1454" y="780"/>
      <point x="1542" y="895"/>
      <point x="1542" y="1055" type="curve" smooth="yes"/>
      <point x="1542" y="1287"/>
      <point x="1364" y="1409"/>
      <point x="1019" y="1409" type="curve" smooth="yes"/>
      <point x="334" y="1409" type="line" smooth="yes"/>
      <point x="133" y="1409"/>
      <point x="0" y="1304"/>
      <point x="0" y="1135" type="curve" smooth="yes"/>
      <point x="0" y="1071"/>
      <point x="10" y="1004"/>
      <point x="30" y="934" type="curve"/>
      <point x="244" y="951" type="line"/>
      <point x="223" y="1006"/>
      <point x="213" y="1051"/>
      <point x="213" y="1085" type="curve" smooth="yes"/>
      <point x="213" y="1158"/>
      <point x="257" y="1195"/>
      <point x="346" y="1195" type="curve" smooth="yes"/>
      <point x="374" y="1195" type="line"/>
      <point x="374" y="0" type="line"/>
      <point x="1079" y="0" type="line" smooth="yes"/>
      <point x="1420" y="0"/>
      <point x="1623" y="146"/>
    </contour>
    <contour>
      <point x="1245" y="1015" type="curve" smooth="yes"/>
      <point x="1245" y="899"/>
      <point x="1174" y="841"/>
      <point x="1007" y="841" type="curve" smooth="yes"/>
      <point x="669" y="841" type="line"/>
      <point x="669" y="1190" type="line"/>
      <point x="1005" y="1190" type="line" smooth="yes"/>
      <point x="1162" y="1190"/>
      <point x="1245" y="1142"/>
    </contour>
    <contour>
      <point x="1327" y="425" type="curve" smooth="yes"/>
      <point x="1327" y="288"/>
      <point x="1242" y="219"/>
      <point x="1054" y="219" type="curve" smooth="yes"/>
      <point x="669" y="219" type="line"/>
      <point x="669" y="623" type="line"/>
      <point x="1043" y="623" type="line" smooth="yes"/>
      <point x="1232" y="623"/>
      <point x="1327" y="557"/>
    </contour>
  </outline>
</glyph>
<glyph name="uni0182" format="2">
  <advance width="1472"/>
  <unicode hex="0182"/>
  <note>
uni0182
</note>
  <outline>
    <contour>
      <point x="1390" y="431" type="curve" smooth="yes"/>
      <point x="1390" y="691"/>
      <point x="1217" y="841"/>
      <point x="901" y="841" type="curve" smooth="yes"/>
      <point x="432" y="841" type="line"/>
      <point x="432" y="1182" type="line"/>
      <point x="1198" y="1182" type="line"/>
      <point x="1198" y="1409" type="line"/>
      <point x="137" y="1409" type="line"/>
      <point x="137" y="0" type="line"/>
      <point x="869" y="0" type="line" smooth="yes"/>
      <point x="1191" y="0"/>
      <point x="1390" y="176"/>
    </contour>
    <contour>
      <point x="1091" y="425" type="curve" smooth="yes"/>
      <point x="1091" y="288"/>
      <point x="1001" y="219"/>
      <point x="821" y="219" type="curve" smooth="yes"/>
      <point x="432" y="219" type="line"/>
      <point x="432" y="623" type="line"/>
      <point x="815" y="623" type="line" smooth="yes"/>
      <point x="999" y="623"/>
      <point x="1091" y="549"/>
    </contour>
  </outline>
</glyph>
<glyph name="uni0183" format="2">
  <advance width="1251"/>
  <unicode hex="0183"/>
  <note>
uni0183
</note>
  <outline>
    <contour>
      <point x="1167" y="525" type="curve" smooth="yes"/>
      <point x="1167" y="866"/>
      <point x="1021" y="1062"/>
      <point x="770" y="1062" type="curve" smooth="yes"/>
      <point x="603" y="1062"/>
      <point x="487" y="993"/>
      <point x="424" y="854" type="curve"/>
      <point x="420" y="854" type="line"/>
      <point x="421" y="913"/>
      <point x="424.0" y="971"/>
      <point x="424" y="1030" type="curve" smooth="yes"/>
      <point x="424" y="1271" type="line"/>
      <point x="885" y="1271" type="line"/>
      <point x="885" y="1484" type="line"/>
      <point x="143" y="1484" type="line"/>
      <point x="143" y="247" type="line" smooth="yes"/>
      <point x="143" y="144"/>
      <point x="140" y="62"/>
      <point x="135" y="0" type="curve"/>
      <point x="408" y="0" type="line"/>
      <point x="415" y="23"/>
      <point x="422" y="127"/>
      <point x="422" y="174" type="curve"/>
      <point x="424" y="174" type="line"/>
      <point x="481" y="50"/>
      <point x="597" y="-20"/>
      <point x="752" y="-20" type="curve" smooth="yes"/>
      <point x="1013" y="-20"/>
      <point x="1167" y="181"/>
    </contour>
    <contour>
      <point x="874" y="525" type="curve" smooth="yes"/>
      <point x="874" y="290"/>
      <point x="800" y="172"/>
      <point x="651" y="172" type="curve" smooth="yes"/>
      <point x="502" y="172"/>
      <point x="420" y="299"/>
      <point x="420" y="516" type="curve" smooth="yes"/>
      <point x="420" y="743"/>
      <point x="505" y="867"/>
      <point x="653" y="867" type="curve" smooth="yes"/>
      <point x="800" y="867"/>
      <point x="874" y="753"/>
    </contour>
  </outline>
</glyph>
<glyph name="uni0184" format="2">
  <advance width="1472"/>
  <unicode hex="0184"/>
  <note>
uni0184
</note>
  <outline>
    <contour>
      <point x="1390" y="431" type="curve" smooth="yes"/>
      <point x="1390" y="691"/>
      <point x="1217" y="841"/>
      <point x="901" y="841" type="curve" smooth="yes"/>
      <point x="432" y="841" type="line"/>
      <point x="432" y="1409" type="line"/>
      <point x="357" y="1409" type="line"/>
      <point x="0" y="1182" type="line"/>
      <point x="0" y="1146" type="line"/>
      <point x="137" y="1003" type="line"/>
      <point x="137" y="0" type="line"/>
      <point x="869" y="0" type="line" smooth="yes"/>
      <point x="1084" y="0"/>
      <point x="1247" y="76"/>
      <point x="1329" y="206" type="curve" smooth="yes"/>
      <point x="1370" y="271"/>
      <point x="1390" y="346"/>
    </contour>
    <contour>
      <point x="1091" y="425" type="curve" smooth="yes"/>
      <point x="1091" y="288"/>
      <point x="1001" y="219"/>
      <point x="821" y="219" type="curve" smooth="yes"/>
      <point x="432" y="219" type="line"/>
      <point x="432" y="623" type="line"/>
      <point x="815" y="623" type="line" smooth="yes"/>
      <point x="999" y="623"/>
      <point x="1091" y="549"/>
    </contour>
  </outline>
</glyph>
<glyph name="uni0185" format="2">
  <advance width="1251"/>
  <unicode hex="0185"/>
  <note>
uni0185
</note>
  <outline>
    <contour>
      <point x="1167" y="545" type="curve" smooth="yes"/>
      <point x="1167" y="900"/>
      <point x="1026" y="1102"/>
      <point x="770" y="1102" type="curve" smooth="yes"/>
      <point x="603" y="1102"/>
      <point x="487" y="1033"/>
      <point x="424" y="894" type="curve"/>
      <point x="420" y="894" type="line"/>
      <point x="422" y="953"/>
      <point x="424.0" y="1011.0"/>
      <point x="424" y="1070" type="curve" smooth="yes"/>
      <point x="424" y="1484" type="line"/>
      <point x="349" y="1484" type="line"/>
      <point x="0" y="1276" type="line"/>
      <point x="0" y="1240" type="line"/>
      <point x="143" y="1097" type="line"/>
      <point x="143" y="247" type="line" smooth="yes"/>
      <point x="143" y="144"/>
      <point x="140" y="62"/>
      <point x="135" y="0" type="curve"/>
      <point x="408" y="0" type="line"/>
      <point x="415" y="23"/>
      <point x="422" y="127"/>
      <point x="422" y="174" type="curve"/>
      <point x="424" y="174" type="line"/>
      <point x="481" y="50"/>
      <point x="597" y="-20"/>
      <point x="752" y="-20" type="curve" smooth="yes"/>
      <point x="1019" y="-20"/>
      <point x="1167" y="188"/>
    </contour>
    <contour>
      <point x="874" y="545" type="curve" smooth="yes"/>
      <point x="874" y="296"/>
      <point x="800" y="172"/>
      <point x="651" y="172" type="curve" smooth="yes"/>
      <point x="499" y="172"/>
      <point x="420" y="307"/>
      <point x="420" y="536" type="curve" smooth="yes"/>
      <point x="420" y="776"/>
      <point x="501" y="907"/>
      <point x="653" y="907" type="curve" smooth="yes"/>
      <point x="804" y="907"/>
      <point x="874" y="790"/>
    </contour>
  </outline>
</glyph>
<glyph name="uni0186" format="2">
  <advance width="1479"/>
  <unicode hex="0186"/>
  <note>
uni0186
</note>
  <outline>
    <contour>
      <point x="691" y="212" type="curve" smooth="yes"/>
      <point x="516" y="212"/>
      <point x="378" y="302"/>
      <point x="334" y="443" type="curve"/>
      <point x="74" y="372" type="line"/>
      <point x="158" y="115"/>
      <point x="366" y="-20"/>
      <point x="697" y="-20" type="curve" smooth="yes"/>
      <point x="1150" y="-20"/>
      <point x="1395" y="236"/>
      <point x="1395" y="699" type="curve" smooth="yes"/>
      <point x="1395" y="1160"/>
      <point x="1137" y="1430"/>
      <point x="684" y="1430" type="curve" smooth="yes"/>
      <point x="385" y="1430"/>
      <point x="167" y="1299"/>
      <point x="56" y="1027" type="curve"/>
      <point x="313" y="930" type="line"/>
      <point x="382" y="1109"/>
      <point x="506" y="1198"/>
      <point x="684" y="1198" type="curve" smooth="yes"/>
      <point x="952" y="1198"/>
      <point x="1098" y="1023"/>
      <point x="1098" y="699" type="curve" smooth="yes"/>
      <point x="1098" y="380"/>
      <point x="958" y="212"/>
    </contour>
  </outline>
</glyph>
<glyph name="uni0187" format="2">
  <advance width="1479"/>
  <unicode hex="0187"/>
  <note>
uni0187
</note>
  <outline>
    <contour>
      <point x="1145" y="967" type="curve"/>
      <point x="1405" y="1038" type="line"/>
      <point x="1405" y="1357" type="line" smooth="yes"/>
      <point x="1405" y="1453"/>
      <point x="1438" y="1498"/>
      <point x="1517" y="1498" type="curve" smooth="yes"/>
      <point x="1537" y="1498"/>
      <point x="1566" y="1494"/>
      <point x="1605" y="1486" type="curve"/>
      <point x="1605" y="1690" type="line"/>
      <point x="1554" y="1701"/>
      <point x="1503" y="1707"/>
      <point x="1453" y="1707" type="curve" smooth="yes"/>
      <point x="1256" y="1707"/>
      <point x="1139" y="1606"/>
      <point x="1139" y="1417" type="curve" smooth="yes"/>
      <point x="1139" y="1357" type="line"/>
      <point x="1042" y="1406"/>
      <point x="923" y="1430"/>
      <point x="782" y="1430" type="curve" smooth="yes"/>
      <point x="329" y="1430"/>
      <point x="84" y="1174"/>
      <point x="84" y="711" type="curve" smooth="yes"/>
      <point x="84" y="250"/>
      <point x="342" y="-20"/>
      <point x="795" y="-20" type="curve" smooth="yes"/>
      <point x="1095" y="-20"/>
      <point x="1315" y="114"/>
      <point x="1423" y="383" type="curve"/>
      <point x="1166" y="480" type="line"/>
      <point x="1089" y="291"/>
      <point x="964" y="212"/>
      <point x="795" y="212" type="curve" smooth="yes"/>
      <point x="527" y="212"/>
      <point x="381" y="387"/>
      <point x="381" y="711" type="curve" smooth="yes"/>
      <point x="381" y="1030"/>
      <point x="521" y="1198"/>
      <point x="788" y="1198" type="curve" smooth="yes"/>
      <point x="963" y="1198"/>
      <point x="1101" y="1108"/>
    </contour>
  </outline>
</glyph>
<glyph name="uni0188" format="2">
  <advance width="1139"/>
  <unicode hex="0188"/>
  <note>
uni0188
</note>
  <outline>
    <contour>
      <point x="788" y="727" type="curve"/>
      <point x="1071" y="741" type="line"/>
      <point x="1071" y="981" type="line" smooth="yes"/>
      <point x="1071" y="1077"/>
      <point x="1104" y="1122"/>
      <point x="1183" y="1122" type="curve" smooth="yes"/>
      <point x="1203" y="1122"/>
      <point x="1232" y="1118"/>
      <point x="1271" y="1110" type="curve"/>
      <point x="1271" y="1311" type="line"/>
      <point x="1220" y="1322"/>
      <point x="1169" y="1328"/>
      <point x="1119" y="1328" type="curve" smooth="yes"/>
      <point x="930" y="1328"/>
      <point x="823" y="1239"/>
      <point x="812" y="1064" type="curve"/>
      <point x="747" y="1089"/>
      <point x="676" y="1102"/>
      <point x="598" y="1102" type="curve" smooth="yes"/>
      <point x="267" y="1102"/>
      <point x="80" y="892"/>
      <point x="80" y="535" type="curve" smooth="yes"/>
      <point x="80" y="186"/>
      <point x="266" y="-20"/>
      <point x="594" y="-20" type="curve" smooth="yes"/>
      <point x="862" y="-20"/>
      <point x="1049" y="139"/>
      <point x="1079" y="360" type="curve"/>
      <point x="797" y="373" type="line"/>
      <point x="780" y="240"/>
      <point x="703" y="172"/>
      <point x="596" y="172" type="curve" smooth="yes"/>
      <point x="449" y="172"/>
      <point x="375" y="297"/>
      <point x="375" y="546" type="curve" smooth="yes"/>
      <point x="375" y="788"/>
      <point x="447" y="909"/>
      <point x="592" y="909" type="curve" smooth="yes"/>
      <point x="709" y="909"/>
      <point x="772" y="838"/>
    </contour>
  </outline>
</glyph>
<glyph name="uni018A" format="2">
  <advance width="1715"/>
  <unicode hex="018A"/>
  <note>
uni018A
</note>
  <outline>
    <contour>
      <point x="1630" y="715" type="curve" smooth="yes"/>
      <point x="1630" y="1159"/>
      <point x="1359" y="1409"/>
      <point x="884" y="1409" type="curve" smooth="yes"/>
      <point x="334" y="1409" type="line" smooth="yes"/>
      <point x="133" y="1409"/>
      <point x="0" y="1304"/>
      <point x="0" y="1135" type="curve" smooth="yes"/>
      <point x="0" y="1071"/>
      <point x="10" y="1004"/>
      <point x="30" y="934" type="curve"/>
      <point x="244" y="951" type="line"/>
      <point x="223" y="1006"/>
      <point x="213" y="1051"/>
      <point x="213" y="1085" type="curve" smooth="yes"/>
      <point x="213" y="1158"/>
      <point x="257" y="1195"/>
      <point x="346" y="1195" type="curve" smooth="yes"/>
      <point x="374" y="1195" type="line"/>
      <point x="374" y="0" type="line"/>
      <point x="944" y="0" type="line" smooth="yes"/>
      <point x="1213" y="0"/>
      <point x="1431" y="118"/>
      <point x="1545" y="335" type="curve" smooth="yes"/>
      <point x="1602" y="443"/>
      <point x="1630" y="570"/>
    </contour>
    <contour>
      <point x="1333" y="715" type="curve" smooth="yes"/>
      <point x="1333" y="415"/>
      <point x="1172" y="228"/>
      <point x="919" y="228" type="curve" smooth="yes"/>
      <point x="669" y="228" type="line"/>
      <point x="669" y="1181" type="line"/>
      <point x="878" y="1181" type="line" smooth="yes"/>
      <point x="1170" y="1181"/>
      <point x="1333" y="1018"/>
    </contour>
  </outline>
</glyph>
<glyph name="uni018B" format="2">
  <advance width="1472"/>
  <unicode hex="018B"/>
  <note>
uni018B
</note>
  <outline>
    <contour>
      <point x="88" y="431" type="curve" smooth="yes"/>
      <point x="88" y="166"/>
      <point x="290" y="0"/>
      <point x="609" y="0" type="curve" smooth="yes"/>
      <point x="1341" y="0" type="line"/>
      <point x="1341" y="1409" type="line"/>
      <point x="280" y="1409" type="line"/>
      <point x="280" y="1182" type="line"/>
      <point x="1046" y="1182" type="line"/>
      <point x="1046" y="841" type="line"/>
      <point x="577" y="841" type="line" smooth="yes"/>
      <point x="262" y="841"/>
      <point x="88" y="691"/>
    </contour>
    <contour>
      <point x="387" y="425" type="curve" smooth="yes"/>
      <point x="387" y="549"/>
      <point x="479" y="623"/>
      <point x="663" y="623" type="curve" smooth="yes"/>
      <point x="1046" y="623" type="line"/>
      <point x="1046" y="219" type="line"/>
      <point x="657" y="219" type="line" smooth="yes"/>
      <point x="477" y="219"/>
      <point x="387" y="288"/>
    </contour>
  </outline>
</glyph>
<glyph name="uni018C" format="2">
  <advance width="1251"/>
  <unicode hex="018C"/>
  <note>
uni018C
</note>
  <outline>
    <contour>
      <point x="84" y="525" type="curve" smooth="yes"/>
      <point x="84" y="181"/>
      <point x="239" y="-20"/>
      <point x="499" y="-20" type="curve" smooth="yes"/>
      <point x="652" y="-20"/>
      <point x="766" y="47"/>
      <point x="827" y="174" type="curve"/>
      <point x="829" y="174" type="line"/>
      <point x="829" y="126"/>
      <point x="836" y="21"/>
      <point x="843" y="0" type="curve"/>
      <point x="1116" y="0" type="line"/>
      <point x="1111" y="62"/>
      <point x="1108" y="144"/>
      <point x="1108" y="247" type="curve" smooth="yes"/>
      <point x="1108" y="1484" type="line"/>
      <point x="366" y="1484" type="line"/>
      <point x="366" y="1271" type="line"/>
      <point x="827" y="1271" type="line"/>
      <point x="827" y="1030" type="line" smooth="yes"/>
      <point x="827.0" y="971"/>
      <point x="830" y="913"/>
      <point x="831" y="854" type="curve"/>
      <point x="827" y="854" type="line"/>
      <point x="764" y="993"/>
      <point x="648" y="1062"/>
      <point x="481" y="1062" type="curve" smooth="yes"/>
      <point x="230" y="1062"/>
      <point x="84" y="865"/>
    </contour>
    <contour>
      <point x="377" y="525" type="curve" smooth="yes"/>
      <point x="377" y="753"/>
      <point x="451" y="867"/>
      <point x="598" y="867" type="curve" smooth="yes"/>
      <point x="747" y="867"/>
      <point x="831" y="741"/>
      <point x="831" y="516" type="curve" smooth="yes"/>
      <point x="831" y="300"/>
      <point x="749" y="172"/>
      <point x="600" y="172" type="curve" smooth="yes"/>
      <point x="451" y="172"/>
      <point x="377" y="290"/>
    </contour>
  </outline>
</glyph>
<glyph name="uni018D" format="2">
  <advance width="1242"/>
  <unicode hex="018D"/>
  <note>
uni018D
</note>
  <outline>
    <contour>
      <point x="1171" y="552" type="curve" smooth="yes"/>
      <point x="1171" y="908"/>
      <point x="979" y="1102"/>
      <point x="627" y="1102" type="curve" smooth="yes"/>
      <point x="287" y="1102"/>
      <point x="80" y="885"/>
      <point x="80" y="552" type="curve" smooth="yes"/>
      <point x="80" y="327"/>
      <point x="160" y="170"/>
      <point x="288" y="78" type="curve" smooth="yes"/>
      <point x="703" y="-221" type="line"/>
      <point x="166" y="-221" type="line"/>
      <point x="166" y="-424" type="line"/>
      <point x="1089" y="-424" type="line"/>
      <point x="1089" y="-244" type="line"/>
      <point x="742" y="9" type="line"/>
      <point x="1017" y="56"/>
      <point x="1171" y="256"/>
    </contour>
    <contour>
      <point x="877" y="552" type="curve" smooth="yes"/>
      <point x="877" y="312"/>
      <point x="791" y="192"/>
      <point x="618" y="192" type="curve" smooth="yes"/>
      <point x="463" y="192"/>
      <point x="375" y="317"/>
      <point x="375" y="552" type="curve" smooth="yes"/>
      <point x="375" y="790"/>
      <point x="460" y="909"/>
      <point x="631" y="909" type="curve" smooth="yes"/>
      <point x="795" y="909"/>
      <point x="877" y="790"/>
    </contour>
  </outline>
</glyph>
<glyph name="uni018E" format="2">
  <advance width="1366"/>
  <unicode hex="018E"/>
  <note>
uni018E
</note>
  <outline>
    <contour>
      <point x="1229" y="1409" type="line"/>
      <point x="121" y="1409" type="line"/>
      <point x="121" y="1181" type="line"/>
      <point x="934" y="1181" type="line"/>
      <point x="934" y="827" type="line"/>
      <point x="182" y="827" type="line"/>
      <point x="182" y="599" type="line"/>
      <point x="934" y="599" type="line"/>
      <point x="934" y="228" type="line"/>
      <point x="80" y="228" type="line"/>
      <point x="80" y="0" type="line"/>
      <point x="1229" y="0" type="line"/>
    </contour>
  </outline>
</glyph>
<glyph name="uni018F" format="2">
  <advance width="1487"/>
  <unicode hex="018F"/>
  <unicode hex="04D8"/>
  <note>
uni018F
</note>
  <outline>
    <contour>
      <point x="1091" y="848" type="curve"/>
      <point x="93" y="848" type="line"/>
      <point x="87" y="807"/>
      <point x="84" y="762"/>
      <point x="84" y="711" type="curve" smooth="yes"/>
      <point x="84" y="411"/>
      <point x="192" y="184"/>
      <point x="388" y="68" type="curve" smooth="yes"/>
      <point x="487" y="9"/>
      <point x="604" y="-20"/>
      <point x="741" y="-20" type="curve" smooth="yes"/>
      <point x="1010" y="-20"/>
      <point x="1216" y="102"/>
      <point x="1323" y="324" type="curve" smooth="yes"/>
      <point x="1376" y="434"/>
      <point x="1403" y="564"/>
      <point x="1403" y="711" type="curve" smooth="yes"/>
      <point x="1403" y="989"/>
      <point x="1309" y="1198"/>
      <point x="1140" y="1317" type="curve" smooth="yes"/>
      <point x="1035" y="1391"/>
      <point x="901" y="1430"/>
      <point x="743" y="1430" type="curve" smooth="yes"/>
      <point x="442" y="1430"/>
      <point x="248" y="1310"/>
      <point x="161" y="1070" type="curve"/>
      <point x="425" y="997" type="line"/>
      <point x="484" y="1138"/>
      <point x="579" y="1205"/>
      <point x="742" y="1205" type="curve" smooth="yes"/>
      <point x="947" y="1205"/>
      <point x="1066" y="1072"/>
    </contour>
    <contour>
      <point x="741" y="206" type="curve"/>
      <point x="534" y="206"/>
      <point x="402" y="353"/>
      <point x="386" y="613" type="curve"/>
      <point x="1096" y="613" type="line"/>
      <point x="1080" y="349"/>
      <point x="956" y="206"/>
    </contour>
  </outline>
</glyph>
<glyph name="uni0190" format="2">
  <advance width="1283"/>
  <unicode hex="0190"/>
  <note>
uni0190
</note>
  <outline>
    <contour>
      <point x="635" y="-20" type="curve" smooth="yes"/>
      <point x="951" y="-20"/>
      <point x="1146" y="105"/>
      <point x="1237" y="368" type="curve"/>
      <point x="973" y="461" type="line"/>
      <point x="912" y="292"/>
      <point x="802" y="208"/>
      <point x="645" y="208" type="curve" smooth="yes"/>
      <point x="473" y="208"/>
      <point x="382" y="283"/>
      <point x="382" y="412" type="curve" smooth="yes"/>
      <point x="382" y="547"/>
      <point x="485" y="602"/>
      <point x="710" y="602" type="curve" smooth="yes"/>
      <point x="769" y="602" type="line"/>
      <point x="769" y="829" type="line"/>
      <point x="710" y="829" type="line" smooth="yes"/>
      <point x="509" y="829"/>
      <point x="415" y="892"/>
      <point x="415" y="1025" type="curve" smooth="yes"/>
      <point x="415" y="1146"/>
      <point x="502" y="1212"/>
      <point x="646" y="1212" type="curve" smooth="yes"/>
      <point x="789" y="1212"/>
      <point x="884" y="1133"/>
      <point x="933" y="975" type="curve"/>
      <point x="1201" y="1036" type="line"/>
      <point x="1110" y="1304"/>
      <point x="932" y="1429"/>
      <point x="641" y="1429" type="curve" smooth="yes"/>
      <point x="333" y="1429"/>
      <point x="130" y="1274"/>
      <point x="130" y="1050" type="curve" smooth="yes"/>
      <point x="130" y="881"/>
      <point x="223" y="773"/>
      <point x="410" y="726" type="curve"/>
      <point x="213" y="697"/>
      <point x="94" y="576"/>
      <point x="94" y="400" type="curve" smooth="yes"/>
      <point x="94" y="141"/>
      <point x="296" y="-20"/>
    </contour>
  </outline>
</glyph>
<glyph name="uni0191" format="2">
  <advance width="1251"/>
  <unicode hex="0191"/>
  <note>
uni0191
</note>
  <outline>
    <contour>
      <point x="432" y="-32" type="curve" smooth="yes"/>
      <point x="432" y="517" type="line"/>
      <point x="1153" y="517" type="line"/>
      <point x="1153" y="745" type="line"/>
      <point x="432" y="745" type="line"/>
      <point x="432" y="1181" type="line"/>
      <point x="1176" y="1181" type="line"/>
      <point x="1176" y="1409" type="line"/>
      <point x="137" y="1409" type="line"/>
      <point x="137" y="-42" type="line" smooth="yes"/>
      <point x="137" y="-147"/>
      <point x="106" y="-198"/>
      <point x="19" y="-198" type="curve" smooth="yes"/>
      <point x="1" y="-198"/>
      <point x="-31" y="-194"/>
      <point x="-76" y="-185" type="curve"/>
      <point x="-76" y="-405" type="line"/>
      <point x="-15" y="-418"/>
      <point x="40" y="-425"/>
      <point x="89" y="-425" type="curve" smooth="yes"/>
      <point x="318" y="-425"/>
      <point x="432" y="-294"/>
    </contour>
  </outline>
</glyph>
<glyph name="florin" format="2">
  <advance width="1139"/>
  <unicode hex="0192"/>
  <note>
florin
</note>
  <outline>
    <contour>
      <point x="885" y="1277" type="curve"/>
      <point x="885" y="1457" type="line"/>
      <point x="840" y="1474"/>
      <point x="769" y="1484"/>
      <point x="702" y="1484" type="curve" smooth="yes"/>
      <point x="493" y="1484"/>
      <point x="392" y="1395"/>
      <point x="392" y="1195" type="curve" smooth="yes"/>
      <point x="392" y="1082" type="line"/>
      <point x="234" y="1082" type="line"/>
      <point x="234" y="892" type="line"/>
      <point x="392" y="892" type="line"/>
      <point x="392" y="-425" type="line"/>
      <point x="672" y="-425" type="line"/>
      <point x="672" y="892" type="line"/>
      <point x="885" y="892" type="line"/>
      <point x="885" y="1082" type="line"/>
      <point x="672" y="1082" type="line"/>
      <point x="672" y="1167" type="line" smooth="yes"/>
      <point x="672" y="1264"/>
      <point x="704" y="1294"/>
      <point x="779" y="1294" type="curve" smooth="yes"/>
      <point x="806" y="1294"/>
      <point x="856" y="1286"/>
    </contour>
  </outline>
</glyph>
<glyph name="uni0193" format="2">
  <advance width="1593"/>
  <unicode hex="0193"/>
  <note>
uni0193
</note>
  <outline>
    <contour>
      <point x="1164" y="981" type="curve"/>
      <point x="1436" y="1063" type="line"/>
      <point x="1436" y="1357" type="line" smooth="yes"/>
      <point x="1436" y="1453"/>
      <point x="1469" y="1498"/>
      <point x="1548" y="1498" type="curve" smooth="yes"/>
      <point x="1568" y="1498"/>
      <point x="1597" y="1494"/>
      <point x="1636" y="1486" type="curve"/>
      <point x="1636" y="1690" type="line"/>
      <point x="1585" y="1701"/>
      <point x="1534" y="1707"/>
      <point x="1484" y="1707" type="curve" smooth="yes"/>
      <point x="1287" y="1707"/>
      <point x="1170" y="1606"/>
      <point x="1170" y="1417" type="curve" smooth="yes"/>
      <point x="1170" y="1358" type="line"/>
      <point x="1071" y="1406"/>
      <point x="950" y="1430"/>
      <point x="805" y="1430" type="curve" smooth="yes"/>
      <point x="340" y="1430"/>
      <point x="84" y="1175"/>
      <point x="84" y="711" type="curve" smooth="yes"/>
      <point x="84" y="244"/>
      <point x="339" y="-20"/>
      <point x="798" y="-20" type="curve" smooth="yes"/>
      <point x="1061" y="-20"/>
      <point x="1317" y="72"/>
      <point x="1466" y="225" type="curve"/>
      <point x="1466" y="743" type="line"/>
      <point x="852" y="743" type="line"/>
      <point x="852" y="525" type="line"/>
      <point x="1196" y="525" type="line"/>
      <point x="1196" y="330" type="line"/>
      <point x="1117" y="261"/>
      <point x="959" y="211"/>
      <point x="806" y="211" type="curve" smooth="yes"/>
      <point x="537" y="211"/>
      <point x="381" y="392"/>
      <point x="381" y="711" type="curve" smooth="yes"/>
      <point x="381" y="1024"/>
      <point x="528" y="1198"/>
      <point x="805" y="1198" type="curve" smooth="yes"/>
      <point x="974" y="1198"/>
      <point x="1105" y="1124"/>
    </contour>
  </outline>
</glyph>
<glyph name="uni0194" format="2">
  <advance width="1304"/>
  <unicode hex="0194"/>
  <note>
uni0194
</note>
  <outline>
    <contour>
      <point x="14" y="1409" type="line"/>
      <point x="505" y="270" type="line"/>
      <point x="436" y="144"/>
      <point x="391" y="53"/>
      <point x="372" y="-3" type="curve" smooth="yes"/>
      <point x="352" y="-59"/>
      <point x="342" y="-108"/>
      <point x="342" y="-150" type="curve" smooth="yes"/>
      <point x="342" y="-323"/>
      <point x="459" y="-425"/>
      <point x="656" y="-425" type="curve" smooth="yes"/>
      <point x="856" y="-425"/>
      <point x="971" y="-328"/>
      <point x="971" y="-151" type="curve" smooth="yes"/>
      <point x="971" y="-112"/>
      <point x="960" y="-63"/>
      <point x="939" y="-4" type="curve" smooth="yes"/>
      <point x="917" y="55"/>
      <point x="872" y="147"/>
      <point x="804" y="270" type="curve"/>
      <point x="1292" y="1409" type="line"/>
      <point x="987" y="1409" type="line"/>
      <point x="656" y="543" type="line"/>
      <point x="322" y="1409" type="line"/>
    </contour>
    <contour>
      <point x="734" y="-121" type="curve" smooth="yes"/>
      <point x="734" y="-185"/>
      <point x="701" y="-213"/>
      <point x="656" y="-213" type="curve" smooth="yes"/>
      <point x="611" y="-213"/>
      <point x="579" y="-184"/>
      <point x="579" y="-120" type="curve" smooth="yes"/>
      <point x="579" y="-66"/>
      <point x="607" y="9"/>
      <point x="656" y="95" type="curve"/>
      <point x="715" y="-3"/>
      <point x="734" y="-72"/>
    </contour>
  </outline>
</glyph>
<glyph name="uni0195" format="2">
  <advance width="1906"/>
  <unicode hex="0195"/>
  <note>
uni0195
</note>
  <outline>
    <contour>
      <point x="1314" y="-20" type="curve" smooth="yes"/>
      <point x="1628" y="-20"/>
      <point x="1785" y="139"/>
      <point x="1785" y="456" type="curve" smooth="yes"/>
      <point x="1785" y="1082" type="line"/>
      <point x="1505" y="1082" type="line"/>
      <point x="1505" y="448" type="line" smooth="yes"/>
      <point x="1505" y="277"/>
      <point x="1441" y="191"/>
      <point x="1314" y="191" type="curve" smooth="yes"/>
      <point x="1187" y="191"/>
      <point x="1124" y="272"/>
      <point x="1124" y="448" type="curve" smooth="yes"/>
      <point x="1124" y="686" type="line" smooth="yes"/>
      <point x="1124" y="958"/>
      <point x="997" y="1102"/>
      <point x="768" y="1102" type="curve" smooth="yes"/>
      <point x="609" y="1102"/>
      <point x="496" y="1031"/>
      <point x="420" y="866" type="curve"/>
      <point x="416" y="866" type="line"/>
      <point x="421" y="935"/>
      <point x="424" y="1006"/>
      <point x="424" y="1079" type="curve" smooth="yes"/>
      <point x="424" y="1484" type="line"/>
      <point x="143" y="1484" type="line"/>
      <point x="143" y="0" type="line"/>
      <point x="424" y="0" type="line"/>
      <point x="424" y="579" type="line" smooth="yes"/>
      <point x="424" y="762"/>
      <point x="515" y="891"/>
      <point x="651" y="891" type="curve" smooth="yes"/>
      <point x="780" y="891"/>
      <point x="844" y="796"/>
      <point x="844" y="606" type="curve" smooth="yes"/>
      <point x="844" y="456" type="line" smooth="yes"/>
      <point x="844" y="132"/>
      <point x="994" y="-20"/>
    </contour>
  </outline>
</glyph>
<glyph name="uni0196" format="2">
  <advance width="569"/>
  <unicode hex="0196"/>
  <note>
uni0196
</note>
  <outline>
    <contour>
      <point x="199" y="0" type="curve"/>
      <point x="499" y="0" type="line"/>
      <point x="451" y="51"/>
      <point x="419" y="140"/>
      <point x="419" y="227" type="curve" smooth="yes"/>
      <point x="419" y="1484" type="line"/>
      <point x="137" y="1484" type="line"/>
      <point x="137" y="236" type="line" smooth="yes"/>
      <point x="137" y="141"/>
      <point x="160" y="41"/>
    </contour>
  </outline>
</glyph>
<glyph name="uni0197" format="2">
  <advance width="569"/>
  <unicode hex="0197"/>
  <note>
uni0197
</note>
  <outline>
    <contour>
      <point x="143" y="0" type="line"/>
      <point x="424" y="0" type="line"/>
      <point x="424" y="599" type="line"/>
      <point x="559" y="599" type="line"/>
      <point x="559" y="827" type="line"/>
      <point x="424" y="827" type="line"/>
      <point x="424" y="1484" type="line"/>
      <point x="143" y="1484" type="line"/>
      <point x="143" y="827" type="line"/>
      <point x="10" y="827" type="line"/>
      <point x="10" y="599" type="line"/>
      <point x="143" y="599" type="line"/>
    </contour>
  </outline>
</glyph>
<glyph name="uni0198" format="2">
  <advance width="1479"/>
  <unicode hex="0198"/>
  <note>
uni0198
</note>
  <outline>
    <contour>
      <point x="432" y="514" type="line"/>
      <point x="606" y="647" type="line"/>
      <point x="1112" y="0" type="line"/>
      <point x="1460" y="0" type="line"/>
      <point x="809" y="813" type="line"/>
      <point x="1108" y="1109" type="line" smooth="yes"/>
      <point x="1177" y="1177"/>
      <point x="1237" y="1203"/>
      <point x="1305" y="1203" type="curve" smooth="yes"/>
      <point x="1334" y="1203"/>
      <point x="1368" y="1197"/>
      <point x="1403" y="1190" type="curve"/>
      <point x="1403" y="1410" type="line"/>
      <point x="1363" y="1421"/>
      <point x="1316" y="1430"/>
      <point x="1259" y="1430" type="curve" smooth="yes"/>
      <point x="1116" y="1430"/>
      <point x="1026" y="1372"/>
      <point x="895" y="1240" type="curve" smooth="yes"/>
      <point x="432" y="770" type="line"/>
      <point x="432" y="1409" type="line"/>
      <point x="137" y="1409" type="line"/>
      <point x="137" y="0" type="line"/>
      <point x="432" y="0" type="line"/>
    </contour>
  </outline>
</glyph>
<glyph name="uni0199" format="2">
  <advance width="1139"/>
  <unicode hex="0199"/>
  <note>
uni0199
</note>
  <outline>
    <contour>
      <point x="834" y="0" type="line"/>
      <point x="1141" y="0" type="line"/>
      <point x="732" y="660" type="line"/>
      <point x="1112" y="1082" type="line"/>
      <point x="810" y="1082" type="line"/>
      <point x="424" y="634" type="line"/>
      <point x="424" y="1146" type="line" smooth="yes"/>
      <point x="424" y="1241"/>
      <point x="459" y="1287"/>
      <point x="540" y="1287" type="curve" smooth="yes"/>
      <point x="568" y="1287"/>
      <point x="630" y="1282"/>
      <point x="654" y="1275" type="curve"/>
      <point x="654" y="1476" type="line"/>
      <point x="597" y="1487"/>
      <point x="537" y="1493"/>
      <point x="472" y="1493" type="curve" smooth="yes"/>
      <point x="267" y="1493"/>
      <point x="143" y="1387"/>
      <point x="143" y="1203" type="curve" smooth="yes"/>
      <point x="143" y="0" type="line"/>
      <point x="424" y="0" type="line"/>
      <point x="424" y="406" type="line"/>
      <point x="545" y="490" type="line"/>
    </contour>
  </outline>
</glyph>
<glyph name="uni019A" format="2">
  <advance width="569"/>
  <unicode hex="019A"/>
  <note>
uni019A
</note>
  <outline>
    <contour>
      <point x="143" y="0" type="line"/>
      <point x="424" y="0" type="line"/>
      <point x="424" y="639" type="line"/>
      <point x="549" y="639" type="line"/>
      <point x="549" y="826" type="line"/>
      <point x="424" y="826" type="line"/>
      <point x="424" y="1484" type="line"/>
      <point x="143" y="1484" type="line"/>
      <point x="143" y="826" type="line"/>
      <point x="20" y="826" type="line"/>
      <point x="20" y="639" type="line"/>
      <point x="143" y="639" type="line"/>
    </contour>
  </outline>
</glyph>
<glyph name="uni019B" format="2">
  <advance width="1139"/>
  <unicode hex="019B"/>
  <note>
uni019B
</note>
  <outline>
    <contour>
      <point x="54" y="1159" type="line"/>
      <point x="128" y="986" type="line"/>
      <point x="409" y="1106" type="line"/>
      <point x="424" y="1071" type="line"/>
      <point x="16" y="0" type="line"/>
      <point x="313" y="0" type="line"/>
      <point x="569" y="797" type="line"/>
      <point x="834" y="0" type="line"/>
      <point x="1128" y="0" type="line"/>
      <point x="659" y="1213" type="line"/>
      <point x="846" y="1293" type="line"/>
      <point x="772" y="1466" type="line"/>
      <point x="591" y="1388" type="line"/>
      <point x="554" y="1484" type="line"/>
      <point x="256" y="1484" type="line"/>
      <point x="338" y="1280" type="line"/>
    </contour>
  </outline>
</glyph>
<glyph name="uni019C" format="2">
  <advance width="2031"/>
  <unicode hex="019C"/>
  <note>
uni019C
</note>
  <outline>
    <contour>
      <point x="1163" y="1409" type="line"/>
      <point x="868" y="1409" type="line"/>
      <point x="868" y="490" type="line" smooth="yes"/>
      <point x="868" y="313"/>
      <point x="773" y="191"/>
      <point x="632" y="191" type="curve" smooth="yes"/>
      <point x="499" y="191"/>
      <point x="432" y="277"/>
      <point x="432" y="476" type="curve" smooth="yes"/>
      <point x="432" y="1409" type="line"/>
      <point x="137" y="1409" type="line"/>
      <point x="137" y="396" type="line" smooth="yes"/>
      <point x="137" y="128"/>
      <point x="275" y="-20"/>
      <point x="516" y="-20" type="curve" smooth="yes"/>
      <point x="700" y="-20"/>
      <point x="814" y="34"/>
      <point x="909" y="181" type="curve"/>
      <point x="964" y="44"/>
      <point x="1071" y="-20"/>
      <point x="1243" y="-20" type="curve" smooth="yes"/>
      <point x="1392" y="-20"/>
      <point x="1514" y="34"/>
      <point x="1590" y="169" type="curve"/>
      <point x="1594" y="169" type="line"/>
      <point x="1606" y="0" type="line"/>
      <point x="1894" y="0" type="line"/>
      <point x="1894" y="1409" type="line"/>
      <point x="1599" y="1409" type="line"/>
      <point x="1599" y="503" type="line" smooth="yes"/>
      <point x="1599" y="320"/>
      <point x="1509" y="191"/>
      <point x="1362" y="191" type="curve" smooth="yes"/>
      <point x="1227" y="191"/>
      <point x="1163" y="279"/>
      <point x="1163" y="476" type="curve" smooth="yes"/>
    </contour>
  </outline>
</glyph>
<glyph name="uni019D" format="2">
  <advance width="1479"/>
  <unicode hex="019D"/>
  <note>
uni019D
</note>
  <outline>
    <contour>
      <point x="399" y="-52" type="curve" smooth="yes"/>
      <point x="399" y="831" type="line" smooth="yes"/>
      <point x="399" y="895"/>
      <point x="393" y="980"/>
      <point x="381" y="1085" type="curve"/>
      <point x="995" y="0" type="line"/>
      <point x="1341" y="0" type="line"/>
      <point x="1341" y="1409" type="line"/>
      <point x="1079" y="1409" type="line"/>
      <point x="1079" y="590" type="line" smooth="yes"/>
      <point x="1079" y="507"/>
      <point x="1085" y="416"/>
      <point x="1097" y="315" type="curve"/>
      <point x="474" y="1409" type="line"/>
      <point x="137" y="1409" type="line"/>
      <point x="137" y="-32" type="line" smooth="yes"/>
      <point x="137" y="-137"/>
      <point x="106" y="-188"/>
      <point x="19" y="-188" type="curve" smooth="yes"/>
      <point x="1" y="-188"/>
      <point x="-31" y="-184"/>
      <point x="-76" y="-175" type="curve"/>
      <point x="-76" y="-405" type="line"/>
      <point x="-15" y="-418"/>
      <point x="40" y="-425"/>
      <point x="89" y="-425" type="curve" smooth="yes"/>
      <point x="312" y="-425"/>
      <point x="399" y="-317"/>
    </contour>
  </outline>
</glyph>
<glyph name="uni019E" format="2">
  <advance width="1251"/>
  <unicode hex="019E"/>
  <note>
uni019E
</note>
  <outline>
    <contour>
      <point x="1124" y="687" type="line" smooth="yes"/>
      <point x="1124" y="959"/>
      <point x="997" y="1103"/>
      <point x="768" y="1103" type="curve" smooth="yes"/>
      <point x="609" y="1103"/>
      <point x="496" y="1032"/>
      <point x="420" y="867" type="curve"/>
      <point x="416" y="867" type="line"/>
      <point x="416" y="908"/>
      <point x="407" y="1057"/>
      <point x="403" y="1082" type="curve"/>
      <point x="135" y="1082" type="line"/>
      <point x="140" y="1013"/>
      <point x="143" y="932"/>
      <point x="143" y="840" type="curve" smooth="yes"/>
      <point x="143" y="0" type="line"/>
      <point x="424" y="0" type="line"/>
      <point x="424" y="580" type="line" smooth="yes"/>
      <point x="424" y="763"/>
      <point x="515" y="892"/>
      <point x="651" y="892" type="curve" smooth="yes"/>
      <point x="780" y="892"/>
      <point x="844" y="797"/>
      <point x="844" y="607" type="curve" smooth="yes"/>
      <point x="844" y="-424" type="line"/>
      <point x="1124" y="-424" type="line"/>
    </contour>
  </outline>
</glyph>
